<svg id="Layer_1" data-name="Layer 1" xmlns="http://www.w3.org/2000/svg" viewBox="0 0 160.922 160.928"><defs><style>.cls-1{fill:#c5c2c2;}.cls-2{fill:#fff;}</style></defs><rect class="cls-1" width="160.922" height="160.928"/><polygon class="cls-2" points="22.468 21.165 22.516 21.165 22.516 46.002 27.97 46.002 27.97 13.555 23.614 13.555 18.591 19.442 18.591 25.135 18.639 25.135 22.468 21.165"/><path class="cls-2" d="M348.405,421.4a4.456,4.456,0,1,0-4.458-4.455A4.452,4.452,0,0,0,348.405,421.4Z" transform="translate(-217.217 -340.167)"/><path class="cls-2" d="M353.606,423.117a2.826,2.826,0,0,0-.339-.027H343.53a2.618,2.618,0,0,0-.326.027,5.94,5.94,0,0,0-5.4,5.917v12.349a1.727,1.727,0,0,0,3.453,0V430.777c0-.4.11-.937.842-.937.5,0,.607.534.624.873V462.5a2.481,2.481,0,1,0,4.961,0V444.184a.683.683,0,0,1,.716-.728h0a.673.673,0,0,1,.7.728V462.5a2.483,2.483,0,0,0,4.966,0v-31.79c.019-.339.123-.873.626-.873.728,0,.843.539.843.937v10.606a1.727,1.727,0,0,0,3.453,0V429.034A5.937,5.937,0,0,0,353.606,423.117Z" transform="translate(-217.217 -340.167)"/><path class="cls-2" d="M313.24,423.5a4.221,4.221,0,1,0-4.22-4.219A4.214,4.214,0,0,0,313.24,423.5Z" transform="translate(-217.217 -340.167)"/><path class="cls-2" d="M318.259,431.249c.552-.159.7.574.7.574l2.827,9.528s.538,2.043,2.3,1.52,1.151-2.615,1.151-2.615l-3.507-11.416s-1.253-3.3-4.028-3.3H308.77c-2.775,0-4.031,3.3-4.031,3.3l-3.507,11.416s-.625,2.093,1.151,2.615,2.3-1.52,2.3-1.52l2.828-9.528s.153-.733.7-.574.345.942.345.942l-4.922,17.855h4.577v12.79a2.2,2.2,0,0,0,4.394,0v-12.79h1.249v12.79a2.2,2.2,0,0,0,4.4,0v-12.79h4.575l-4.918-17.855S317.709,431.407,318.259,431.249Z" transform="translate(-217.217 -340.167)"/><path class="cls-2" d="M287.972,423.5a4.221,4.221,0,1,0-4.219-4.219A4.217,4.217,0,0,0,287.972,423.5Z" transform="translate(-217.217 -340.167)"/><path class="cls-2" d="M296.468,428.84s-1.25-3.3-4.027-3.3H283.5c-2.773,0-4.031,3.3-4.031,3.3l-3.5,11.416a3.176,3.176,0,0,0-.1.705,1.255,1.255,0,0,0-2.078.094l-.014-.008c-.1.089-1.742,3.007-2.283,3.548a1.418,1.418,0,0,1-1.084.512h-4.255a1.415,1.415,0,0,1-1.084-.512c-.548-.541-2.18-3.459-2.285-3.548l-.01.008a1.285,1.285,0,0,0-1.084-.6,1.258,1.258,0,0,0-1.032.563V429.034a5.939,5.939,0,0,0-5.4-5.917,2.652,2.652,0,0,0-.327-.027h-9.737a2.809,2.809,0,0,0-.339.027,5.94,5.94,0,0,0-5.394,5.917v12.349a1.722,1.722,0,0,0,.929,1.521.638.638,0,0,0-.062.153l-3.956,20.969a.654.654,0,0,0,.521.764.728.728,0,0,0,.122.011.652.652,0,0,0,.64-.532l3.956-20.97a.622.622,0,0,0,0-.247,1.725,1.725,0,0,0,1.309-1.669V430.777c0-.4.115-.937.843-.937.5,0,.606.534.628.873V462.5a2.48,2.48,0,1,0,4.96,0V444.184a.679.679,0,0,1,.708-.728h0a.682.682,0,0,1,.716.728V462.5a2.48,2.48,0,1,0,4.96,0v-31.79c.015-.339.128-.873.626-.873.732,0,.841.539.841.937v10.606a1.724,1.724,0,0,0,3.28.743c.027.093.051.167.051.167l3.54,6.406a2.263,2.263,0,0,1,.217.845v1.26l-1.867,6.858h1.867V463.3h.007a1.729,1.729,0,1,0,3.457,0v-5.429a1.2,1.2,0,0,1,0-.209H268.8a1.2,1.2,0,0,1,0,.209V463.3a1.733,1.733,0,0,0,3.466,0v-5.638h1.873l-1.873-6.9v-1.221a2.287,2.287,0,0,1,.214-.845l3.272-5.914s.21-.446.325-.769a1.591,1.591,0,0,0,1.043.855c1.766.523,2.3-1.52,2.3-1.52l2.828-9.528s.153-.733.7-.574.344.942.344.942l-4.92,17.855h4.576v12.79a2.2,2.2,0,0,0,4.4,0v-12.79H288.6v12.79a2.2,2.2,0,0,0,4.395,0v-12.79h4.577l-4.917-17.855s-.209-.784.34-.942.706.574.706.574l2.826,9.528s.538,2.043,2.3,1.52,1.151-2.615,1.151-2.615Z" transform="translate(-217.217 -340.167)"/><path class="cls-2" d="M331.623,442.894a3.511,3.511,0,1,0-3.512-3.514A3.508,3.508,0,0,0,331.623,442.894Z" transform="translate(-217.217 -340.167)"/><path class="cls-2" d="M339.946,452.879c-.043-.135-2.236-5.513-2.494-6.268-.792-2.312-2.233-2.292-3.621-2.33s-2.219,0-2.219,0-.886-.036-2.719.018-2.408,1-4.426,6.188c-.288.748-1.263,3.168-1.276,3.313l.013,0a1.219,1.219,0,0,0,.512,1.661,1.171,1.171,0,0,0,1.5-.49l1.909-6.087s.331-.408.331.013v14.331h.009a1.8,1.8,0,1,0,3.6,0v-5.655s-.1-.8.54-.8.545.8.545.8v5.655a1.806,1.806,0,0,0,3.611,0V448.9c0-.421.222-.12.222-.12l1.5,4.168a9.982,9.982,0,0,0,.85,1.945,1.33,1.33,0,0,0,1.74-.72,1.313,1.313,0,0,0-.142-1.281Z" transform="translate(-217.217 -340.167)"/><path class="cls-2" d="M250.054,421.4a4.456,4.456,0,1,0-4.449-4.455A4.459,4.459,0,0,0,250.054,421.4Z" transform="translate(-217.217 -340.167)"/><path class="cls-2" d="M268.273,442.894a3.511,3.511,0,1,0-3.509-3.514A3.508,3.508,0,0,0,268.273,442.894Z" transform="translate(-217.217 -340.167)"/><path class="cls-2" d="M265.359,358.378v8.262H263.5V353.491h2.173l2.384,7.544v-7.544H269.9V366.64h-1.939Z" transform="translate(-217.217 -340.167)"/><path class="cls-2" d="M271.353,363.246v-6.362c0-2.055,1.009-3.548,3.336-3.548,2.347,0,3.356,1.493,3.356,3.548v6.362c0,2.036-1.009,3.549-3.356,3.549C272.362,366.8,271.353,365.282,271.353,363.246Zm4.481.349v-7.059c0-.8-.349-1.358-1.145-1.358-.775,0-1.125.562-1.125,1.358V363.6c0,.795.35,1.357,1.125,1.357C275.485,364.952,275.834,364.39,275.834,363.6Z" transform="translate(-217.217 -340.167)"/><path class="cls-2" d="M263.5,372.95h3.278c2.231,0,3.045,1.105,3.045,2.948v2.773c0,1.842-.814,2.967-3.045,2.967h-1.067V386.1H263.5Zm2.211,1.8v5.178h.815a.95.95,0,0,0,1.086-1.086V375.82c0-.718-.33-1.067-1.086-1.067Z" transform="translate(-217.217 -340.167)"/><path class="cls-2" d="M271.16,382.705v-6.362c0-2.055,1.009-3.548,3.336-3.548,2.347,0,3.355,1.493,3.355,3.548v6.362c0,2.036-1.008,3.549-3.355,3.549C272.169,386.254,271.16,384.741,271.16,382.705Zm4.48.349V376c0-.8-.348-1.358-1.144-1.358-.776,0-1.125.562-1.125,1.358v7.059c0,.8.349,1.357,1.125,1.357C275.292,384.411,275.64,383.849,275.64,383.054Z" transform="translate(-217.217 -340.167)"/><path class="cls-2" d="M286,372.95,283.5,386.1h-2.4l-2.5-13.149h2.25l1.512,9.173h.019l1.552-9.173Z" transform="translate(-217.217 -340.167)"/><path class="cls-2" d="M287.106,372.95h5.276v1.8h-3.065v3.763h2.193V380.3h-2.193v4h3.065v1.8h-5.276Z" transform="translate(-217.217 -340.167)"/><path class="cls-2" d="M295.971,380.067V386.1H293.76V372.95h3.22c2.231,0,3.045,1.105,3.045,2.948v1.687c0,1.416-.5,2.25-1.765,2.541l2.115,5.973h-2.328Zm0-5.314v4.092h.738a.957.957,0,0,0,1.086-1.086V375.82c0-.718-.329-1.067-1.086-1.067Z" transform="translate(-217.217 -340.167)"/><path class="cls-2" d="M300.977,372.95h5.877v1.8h-1.823V386.1H302.8V374.753h-1.824Z" transform="translate(-217.217 -340.167)"/><path class="cls-2" d="M312.383,381.1v5h-2.211v-5l-2.463-8.145h2.307l1.339,4.984h.02l1.338-4.984h2.114Z" transform="translate(-217.217 -340.167)"/></svg>