<svg id="Layer_1" data-name="Layer 1" xmlns="http://www.w3.org/2000/svg" viewBox="0 0 160.922 160.929"><defs><style>.cls-1{fill:#40ae49;}.cls-2{fill:#fff;}</style></defs><rect class="cls-1" width="160.922" height="160.929"/><polygon class="cls-2" points="11.783 19.358 11.783 25.052 11.83 25.052 15.658 21.081 15.707 21.081 15.707 45.917 21.162 45.917 21.162 13.47 16.807 13.47 11.783 19.358"/><path class="cls-2" d="M374.207,240.443a4.924,4.924,0,0,0-4.594,2.248h-.049V234.6h9.381v-4.449H364.589v18.282h4.975v-.72c0-1.912.861-2.966,2.393-2.966,1.675,0,2.347,1.149,2.347,2.92v7.848c0,1.721-.623,2.918-2.3,2.918-1.865,0-2.533-1.244-2.533-3.158v-4.067h-4.98V254.9c0,4.928,1.963,8.086,7.513,8.086,5.5,0,7.752-2.92,7.752-7.418v-7.944c0-5.121-2.631-7.178-5.55-7.178" transform="translate(-340.076 -216.682)"/><path class="cls-2" d="M62.713,108.807h4.742a.356.356,0,0,1,.356.356v11.717a.356.356,0,0,1-.356.356H62.715a.356.356,0,0,1-.356-.356v-11.72A.355.355,0,0,1,62.713,108.807Z"/><path class="cls-2" d="M459.608,342.951H381.464a.367.367,0,0,0-.358.367v4.776a.357.357,0,0,0,.358.352h78.144a.359.359,0,0,0,.359-.352v-4.776a.369.369,0,0,0-.359-.367" transform="translate(-340.076 -216.682)"/><path class="cls-2" d="M459.608,352.444H381.464a.356.356,0,0,0-.358.351v4.791a.359.359,0,0,0,.358.353h78.144a.361.361,0,0,0,.359-.353V352.8a.358.358,0,0,0-.359-.351" transform="translate(-340.076 -216.682)"/><path class="cls-2" d="M444.738,312.518a11.56,11.56,0,0,0-6.76-2.547,9.031,9.031,0,0,0-6.275,2.667.67.67,0,0,0-.209.49v.426a.678.678,0,0,0,.223.534.626.626,0,0,0,.551.128.745.745,0,0,0,.146-.037,1.063,1.063,0,0,0,.391-.248,6.315,6.315,0,0,1,3.13-.651,11.819,11.819,0,0,1,8.051,3.374l.073.065a.939.939,0,0,0,.679.282.919.919,0,0,0,.661-.276l.064-.065a11.857,11.857,0,0,1,8.063-3.38,6.319,6.319,0,0,1,3.138.651,1.166,1.166,0,0,0,.432.265.967.967,0,0,0,.458.014.671.671,0,0,0,.492-.644v-.377a.673.673,0,0,0-.21-.484,9.056,9.056,0,0,0-6.352-2.738,11.473,11.473,0,0,0-6.746,2.551" transform="translate(-340.076 -216.682)"/><path class="cls-2" d="M439.889,281.373a.648.648,0,0,0-.341.412l-.079.26a.667.667,0,0,0,.1.587.64.64,0,0,0,.484.263.234.234,0,0,0,.1,0,.855.855,0,0,0,.378-.1,1.985,1.985,0,0,1,.474-.053,6.783,6.783,0,0,1,5.583,3.647l.026.05a.806.806,0,0,0,.5.4,1.038,1.038,0,0,0,.249.038.818.818,0,0,0,.394-.1l.052-.024a7.781,7.781,0,0,1,3.486-.863,5.3,5.3,0,0,1,3.563,1.141.911.911,0,0,0,.262.291,1.847,1.847,0,0,0,.254.122.692.692,0,0,0,.115.017.411.411,0,0,0,.071,0,.673.673,0,0,0,.309-.077.661.661,0,0,0,.332-.4l.066-.23a.619.619,0,0,0,.027-.19.63.63,0,0,0-.091-.335,5.875,5.875,0,0,0-5.3-3.187,8.345,8.345,0,0,0-2.812.528,6.83,6.83,0,0,0-5.271-2.953,6.489,6.489,0,0,0-2.929.742" transform="translate(-340.076 -216.682)"/><path class="cls-2" d="M423.377,293.4l.022.352a.649.649,0,0,0,.313.526.658.658,0,0,0,.525.08.966.966,0,0,0,.115-.036.85.85,0,0,0,.337-.249,5.724,5.724,0,0,1,2.981-.677,9.658,9.658,0,0,1,6.179,2.337l.054.057a.927.927,0,0,0,.6.227h.057a.914.914,0,0,0,.614-.3l.052-.059a9.385,9.385,0,0,1,6.851-3.166,4.643,4.643,0,0,1,2.037.372,1.03,1.03,0,0,0,.406.211.924.924,0,0,0,.287.018.887.887,0,0,0,.164-.039.666.666,0,0,0,.443-.672l-.018-.305a.659.659,0,0,0-.235-.465,7.661,7.661,0,0,0-5-1.967,9.315,9.315,0,0,0-5.85,2.419,9.755,9.755,0,0,0-5.214-1.731,7.453,7.453,0,0,0-5.543,2.562.69.69,0,0,0-.182.5" transform="translate(-340.076 -216.682)"/><path class="cls-2" d="M383.832,299.669A8.472,8.472,0,0,1,392.3,291.2c.183,0,.362.016.543.026a11.456,11.456,0,1,1,21.722,5.866,12.8,12.8,0,0,1-2.778,25.306c-.517,0-17.095-.1-17.095-.1h0a9.06,9.06,0,0,1-6.6-15.28A8.462,8.462,0,0,1,383.832,299.669Z" transform="translate(-340.076 -216.682)"/><path class="cls-2" d="M391.5,230.16h2.211v11.345h2.637v1.8H391.5Z" transform="translate(-340.076 -216.682)"/><path class="cls-2" d="M397.552,230.16h2.211v13.149h-2.211Z" transform="translate(-340.076 -216.682)"/><path class="cls-2" d="M401.432,230.16h5.179v1.8h-2.968v3.763h2.211v1.784h-2.211v5.8h-2.211Z" transform="translate(-340.076 -216.682)"/><path class="cls-2" d="M407.757,230.16h5.275v1.8h-3.065v3.763h2.193v1.784h-2.193v4h3.065v1.8h-5.275Z" transform="translate(-340.076 -216.682)"/><path class="cls-2" d="M391.484,259.237v-6.361c0-2.056,1.009-3.549,3.336-3.549,2.347,0,3.355,1.493,3.355,3.549v6.361c0,2.037-1.008,3.55-3.355,3.55C392.493,262.787,391.484,261.274,391.484,259.237Zm4.481.349v-7.059c0-.795-.349-1.358-1.145-1.358-.775,0-1.125.563-1.125,1.358v7.059c0,.8.35,1.358,1.125,1.358C395.616,260.944,395.965,260.382,395.965,259.586Z" transform="translate(-340.076 -216.682)"/><path class="cls-2" d="M401.261,254.37v8.261H399.4V249.482h2.173l2.385,7.544v-7.544H405.8v13.149H403.86Z" transform="translate(-340.076 -216.682)"/><path class="cls-2" d="M410.573,249.482h2.211v11.346h2.638v1.8h-4.849Z" transform="translate(-340.076 -216.682)"/><path class="cls-2" d="M416.025,262.631l2.482-13.149h2.522l2.5,13.149h-2.27l-.407-2.4h-2.347l-.387,2.4Zm2.773-4.17h1.765l-.873-5.275h-.018Z" transform="translate(-340.076 -216.682)"/><path class="cls-2" d="M426.287,254.37v8.261h-1.863V249.482H426.6l2.385,7.544v-7.544h1.843v13.149h-1.94Z" transform="translate(-340.076 -216.682)"/><path class="cls-2" d="M438.856,253.012V259.1c0,2.018-.834,3.53-3.2,3.53h-3.414V249.482h3.414C438.022,249.482,438.856,250.976,438.856,253.012Zm-3.472,7.816c.912,0,1.261-.543,1.261-1.338V252.6a1.152,1.152,0,0,0-1.261-1.318h-.931v9.542Z" transform="translate(-340.076 -216.682)"/></svg>