<svg id="Layer_1" data-name="Layer 1" xmlns="http://www.w3.org/2000/svg" viewBox="0 0 160.922 160.928"><defs><style>.cls-1{fill:#c5c2c2;}.cls-2{fill:#fff;}</style></defs><rect class="cls-1" width="160.922" height="160.928"/><path class="cls-2" d="M247.313,381.649h-8.95v-1.531c0-2.535.911-3.493,2.3-4.977l3.493-3.684c2.823-3.015,3.446-4.929,3.446-8.185v-3.158c0-4.641-2.25-6.844-7.131-6.844-4.784,0-7.226,2.537-7.226,7.084v3.922h4.978v-4.067c0-1.96.957-2.537,2.106-2.537,1.051,0,1.961.432,1.961,2.442v2.68c0,2.681-.24,3.734-2.009,5.6l-3.065,3.254c-2.965,3.16-4.066,5.266-4.066,8.471V386.1h14.166Z" transform="translate(-217.217 -340.167)"/><path class="cls-2" d="M283.7,476.909v2.263c0,.016-.007.034-.007.051s.006.037.007.053a1.065,1.065,0,0,0,1.044,1.017c.007,0,.013,0,.021,0s.018,0,.026,0h26.545c.007,0,.015,0,.023,0s.015,0,.023,0a1.067,1.067,0,0,0,1.047-1.062l0-.008,0-.008v-2.561c14.943-4.9,26.138-17.009,28.6-31.769,0-.031.009-.061.014-.088a.854.854,0,0,0,.015-.148,1.072,1.072,0,0,0-1.073-1.074h-84.6a1.073,1.073,0,0,0-1.076,1.074l.056.482c2.586,14.9,14.087,27.079,29.338,31.778" transform="translate(-217.217 -340.167)"/><path class="cls-2" d="M312.4,407.467c-.349.5-8.523,12.264.182,21.779,3.992,4.367,3.646,8.221,2.506,10.823h5.584c1.131-3.842.664-8.662-3.869-13.615-6.414-7.012.082-16.489.18-16.636a2.094,2.094,0,0,0-.907-3.125,2.968,2.968,0,0,0-3.676.774" transform="translate(-217.217 -340.167)"/><path class="cls-2" d="M298.259,440.069h5.586c1.129-3.843.66-8.661-3.873-13.615-6.416-7.013.075-16.485.178-16.64a2.091,2.091,0,0,0-.909-3.121,2.963,2.963,0,0,0-3.671.774c-.351.494-8.532,12.264.181,21.779,3.992,4.368,3.645,8.223,2.508,10.823" transform="translate(-217.217 -340.167)"/><path class="cls-2" d="M278.736,407.467c-.354.5-8.528,12.264.179,21.779,3.994,4.369,3.649,8.223,2.512,10.823h5.584c1.129-3.84.662-8.66-3.875-13.615-6.416-7.012.08-16.489.183-16.639a2.1,2.1,0,0,0-.913-3.122,2.952,2.952,0,0,0-3.67.774" transform="translate(-217.217 -340.167)"/><path class="cls-2" d="M265.341,365H268.7v1.8h-5.663V365l3.47-9.541h-3.122v-1.8h5.451v1.8Z" transform="translate(-217.217 -340.167)"/><path class="cls-2" d="M270.191,353.658h5.275v1.8H272.4v3.762h2.192v1.784H272.4v4h3.064v1.8h-5.275Z" transform="translate(-217.217 -340.167)"/><path class="cls-2" d="M279.056,360.775v6.032h-2.211V353.658h3.22c2.23,0,3.045,1.1,3.045,2.948v1.687c0,1.416-.5,2.25-1.765,2.541l2.115,5.973h-2.329Zm0-5.313v4.091h.738a.956.956,0,0,0,1.085-1.086v-1.939c0-.718-.329-1.066-1.085-1.066Z" transform="translate(-217.217 -340.167)"/><path class="cls-2" d="M284.508,363.413v-6.362c0-2.055,1.009-3.548,3.336-3.548,2.347,0,3.356,1.493,3.356,3.548v6.362c0,2.036-1.009,3.549-3.356,3.549C285.517,366.962,284.508,365.449,284.508,363.413Zm4.481.349V356.7c0-.8-.349-1.358-1.145-1.358-.775,0-1.125.562-1.125,1.358v7.059c0,.8.35,1.357,1.125,1.357C288.64,365.119,288.989,364.557,288.989,363.762Z" transform="translate(-217.217 -340.167)"/><path class="cls-2" d="M267.5,380.279h-2.134v5.8h-2.211V372.929h2.211V378.5H267.5v-5.566h2.23v13.149H267.5Z" transform="translate(-217.217 -340.167)"/><path class="cls-2" d="M277.608,372.929v9.949c0,2.036-.873,3.355-3.122,3.355-2.328,0-3.3-1.319-3.3-3.355v-9.949H273.4v10.162c0,.776.311,1.3,1.087,1.3s1.086-.523,1.086-1.3V372.929Z" transform="translate(-217.217 -340.167)"/><path class="cls-2" d="M280.927,377.816v8.262h-1.862V372.929h2.173l2.385,7.544v-7.544h1.842v13.149h-1.939Z" transform="translate(-217.217 -340.167)"/><path class="cls-2" d="M290.257,379.057H293.4v7.021h-1.591v-1.435a1.992,1.992,0,0,1-2.114,1.59c-1.9,0-2.774-1.513-2.774-3.549v-6.362c0-2.055.99-3.548,3.317-3.548,2.444,0,3.162,1.357,3.162,3.3v1.164h-2.018V375.9c0-.815-.31-1.28-1.105-1.28s-1.145.562-1.145,1.358v7.059c0,.795.33,1.357,1.087,1.357.717,0,1.086-.407,1.086-1.26V380.8h-1.048Z" transform="translate(-217.217 -340.167)"/><path class="cls-2" d="M294.856,372.929h5.275v1.8h-3.064V378.5h2.192v1.784h-2.192v4h3.064v1.8h-5.275Z" transform="translate(-217.217 -340.167)"/><path class="cls-2" d="M303.72,380.046v6.032h-2.211V372.929h3.22c2.231,0,3.045,1.105,3.045,2.948v1.687c0,1.416-.5,2.25-1.765,2.541l2.115,5.973H305.8Zm0-5.313v4.091h.738a.957.957,0,0,0,1.086-1.086V375.8c0-.718-.33-1.066-1.086-1.066Z" transform="translate(-217.217 -340.167)"/></svg>