<svg id="Layer_1" data-name="Layer 1" xmlns="http://www.w3.org/2000/svg" viewBox="0 0 160.92 160.928"><defs><style>.cls-1{fill:#ef412a;}.cls-2{fill:#fff;}</style></defs><rect class="cls-1" width="160.92" height="160.928"/><path class="cls-2" d="M365.735,240.442c-2.152,0-3.733.764-4.594,2.249h-.049V234.6h9.381v-4.45H356.118v18.282h4.974v-.721c0-1.914.864-2.967,2.393-2.967,1.676,0,2.348,1.151,2.348,2.922v7.848c0,1.724-.624,2.919-2.3,2.919-1.867,0-2.535-1.244-2.535-3.157V251.21h-4.981V254.9c0,4.929,1.963,8.088,7.516,8.088,5.5,0,7.752-2.919,7.752-7.418V247.62c0-5.121-2.631-7.178-5.551-7.178" transform="translate(-340.077 -216.682)"/><path class="cls-2" d="M457.288,277.575h-20a.256.256,0,0,0-.254.254v6.646a.256.256,0,0,0,.254.256h7.963l-8.842,8.845a26.185,26.185,0,1,0-19.532,46.571v7.658h-7.888a.253.253,0,0,0-.258.253v7.123a.253.253,0,0,0,.258.255h7.888v7.536a.254.254,0,0,0,.254.254h7.12a.256.256,0,0,0,.258-.254v-7.536H432.4a.253.253,0,0,0,.254-.255v-7.123a.253.253,0,0,0-.254-.253h-7.888v-7.783a26.17,26.17,0,0,0,17.159-40.911l8.717-8.719v7.439a.257.257,0,0,0,.258.254h6.645a.257.257,0,0,0,.259-.254v-20a.257.257,0,0,0-.259-.254m-37.03,55.884a19.282,19.282,0,1,1,19.283-19.281,19.3,19.3,0,0,1-19.283,19.281" transform="translate(-340.077 -216.682)"/><path class="cls-2" d="M432.227,306.263H408.841a.243.243,0,0,0-.254.228v5.662a.241.241,0,0,0,.254.232h23.386a.242.242,0,0,0,.259-.232v-5.662a.244.244,0,0,0-.259-.228" transform="translate(-340.077 -216.682)"/><path class="cls-2" d="M432.227,316.372H408.841a.246.246,0,0,0-.254.236v5.662a.241.241,0,0,0,.254.228h23.386a.242.242,0,0,0,.259-.228v-5.662a.247.247,0,0,0-.259-.236" transform="translate(-340.077 -216.682)"/><path class="cls-2" d="M386.029,249.445H391.3v1.8H388.24v3.763h2.192V256.8H388.24v4H391.3v1.8h-5.275Z" transform="translate(-340.077 -216.682)"/><path class="cls-2" d="M394.835,263.486v-.892c-1.764-.311-2.521-1.61-2.521-3.394v-6.362c0-2.055,1.009-3.549,3.336-3.549,2.347,0,3.355,1.494,3.355,3.549V259.2a3.159,3.159,0,0,1-1.629,3.1l1.629.31v1.649Zm1.959-3.821V252.49c0-.8-.348-1.358-1.144-1.358-.775,0-1.125.562-1.125,1.358v7.175c0,.776.35,1.358,1.125,1.358C396.446,261.023,396.794,260.441,396.794,259.665Z" transform="translate(-340.077 -216.682)"/><path class="cls-2" d="M406.863,249.445v9.948c0,2.037-.873,3.356-3.122,3.356-2.328,0-3.3-1.319-3.3-3.356v-9.948h2.211v10.162c0,.776.31,1.3,1.087,1.3s1.086-.523,1.086-1.3V249.445Z" transform="translate(-340.077 -216.682)"/><path class="cls-2" d="M407.97,262.594l2.483-13.149h2.521l2.5,13.149h-2.269l-.408-2.4h-2.346l-.388,2.4Zm2.774-4.17h1.764l-.873-5.275h-.018Z" transform="translate(-340.077 -216.682)"/><path class="cls-2" d="M416.564,249.445h2.211V260.79h2.638v1.8h-4.849Z" transform="translate(-340.077 -216.682)"/><path class="cls-2" d="M422.6,249.445h2.211v13.149H422.6Z" transform="translate(-340.077 -216.682)"/><path class="cls-2" d="M425.992,249.445h5.877v1.8h-1.824v11.346h-2.23V251.248h-1.823Z" transform="translate(-340.077 -216.682)"/><path class="cls-2" d="M437.359,257.59v5h-2.211v-5l-2.463-8.145h2.308l1.339,4.984h.019l1.338-4.984H439.8Z" transform="translate(-340.077 -216.682)"/><path class="cls-2" d="M389.366,236.281h3.142V243.3h-1.591v-1.435a1.992,1.992,0,0,1-2.114,1.59c-1.9,0-2.773-1.513-2.773-3.549v-6.362c0-2.055.989-3.549,3.316-3.549,2.445,0,3.162,1.358,3.162,3.3v1.164h-2.017V233.12c0-.815-.311-1.28-1.106-1.28s-1.144.562-1.144,1.358v7.059c0,.795.33,1.357,1.087,1.357.716,0,1.086-.407,1.086-1.26v-2.328h-1.048Z" transform="translate(-340.077 -216.682)"/><path class="cls-2" d="M393.964,230.153h5.276v1.8h-3.065v3.763h2.193V237.5h-2.193v4h3.065v1.8h-5.276Z" transform="translate(-340.077 -216.682)"/><path class="cls-2" d="M402.485,235.04V243.3h-1.862V230.153H402.8l2.385,7.544v-7.544h1.843V243.3h-1.94Z" transform="translate(-340.077 -216.682)"/><path class="cls-2" d="M415.093,233.683v6.089c0,2.017-.834,3.53-3.2,3.53h-3.414V230.153h3.414C414.259,230.153,415.093,231.646,415.093,233.683Zm-3.471,7.815c.911,0,1.26-.543,1.26-1.338v-6.885a1.152,1.152,0,0,0-1.26-1.319h-.932V241.5Z" transform="translate(-340.077 -216.682)"/><path class="cls-2" d="M416.569,230.153h5.275v1.8H418.78v3.763h2.192V237.5H418.78v4h3.064v1.8h-5.275Z" transform="translate(-340.077 -216.682)"/><path class="cls-2" d="M425.415,237.27V243.3H423.2V230.153h3.219c2.231,0,3.045,1.105,3.045,2.948v1.687c0,1.416-.5,2.25-1.764,2.541l2.114,5.973H427.49Zm0-5.314v4.092h.737a.957.957,0,0,0,1.086-1.086v-1.939c0-.718-.329-1.067-1.086-1.067Z" transform="translate(-340.077 -216.682)"/></svg>