<svg id="Layer_1" data-name="Layer 1" xmlns="http://www.w3.org/2000/svg" viewBox="0 0 160.92 160.926"><defs><style>.cls-1{fill:#f99d25;}.cls-2{fill:#fff;}</style></defs><rect class="cls-1" width="160.92" height="160.926"/><polygon class="cls-2" points="11.53 19.374 11.53 25.068 11.577 25.068 15.405 21.095 15.454 21.095 15.454 45.933 20.909 45.933 20.909 13.486 16.554 13.486 11.53 19.374"/><polygon class="cls-2" points="23.972 19.374 23.972 25.068 24.021 25.068 27.849 21.095 27.896 21.095 27.896 45.933 33.353 45.933 33.353 13.486 28.999 13.486 23.972 19.374"/><path class="cls-2" d="M366.621,339.2h24.206a.59.59,0,0,0,.438-.99l-.034-.035L379.188,322.59l-.117-.129a.591.591,0,0,0-.438-.194.607.607,0,0,0-.39.153l-.072.084-.113.127-11.749,15.418-.181.22a.582.582,0,0,0-.1.332A.6.6,0,0,0,366.621,339.2Z" transform="translate(-340.077 -216.683)"/><path class="cls-2" d="M390.754,341.394H366.5a.594.594,0,0,0-.594.594v18.981a.6.6,0,0,0,.594.6h7.807V349.623a.591.591,0,0,1,.593-.594h7.246a.592.592,0,0,1,.594.594v11.941h8.014a.6.6,0,0,0,.594-.6V341.988A.6.6,0,0,0,390.754,341.394Z" transform="translate(-340.077 -216.683)"/><path class="cls-2" d="M474.579,336.426H450.573a.576.576,0,0,0-.586.57v24.24a.579.579,0,0,0,.586.571h24.006a.579.579,0,0,0,.588-.571V337a.576.576,0,0,0-.588-.57M461.444,352.25a.579.579,0,0,1-.586.574h-7.171a.581.581,0,0,1-.59-.574v-4.358a.579.579,0,0,1,.59-.572h7.171a.577.577,0,0,1,.586.572Zm0-8.055a.578.578,0,0,1-.586.572h-7.171a.58.58,0,0,1-.59-.572v-4.361a.579.579,0,0,1,.59-.57h7.171a.577.577,0,0,1,.586.57Zm10.961,8.055a.579.579,0,0,1-.588.574h-7.17a.579.579,0,0,1-.587-.574v-4.358a.577.577,0,0,1,.587-.572h7.17a.577.577,0,0,1,.588.572Zm0-8.055a.578.578,0,0,1-.588.572h-7.17a.578.578,0,0,1-.587-.572v-4.361a.577.577,0,0,1,.587-.57h7.17a.578.578,0,0,1,.588.57Z" transform="translate(-340.077 -216.683)"/><path class="cls-2" d="M418.776,280.159H395.284a.576.576,0,0,0-.574.576v80.286a.577.577,0,0,0,.574.575h23.492a.58.58,0,0,0,.578-.575V280.735a.578.578,0,0,0-.578-.576M404.8,352.449a.31.31,0,0,1-.309.309h-5.379a.309.309,0,0,1-.308-.309v-5.994a.307.307,0,0,1,.308-.307h5.379a.308.308,0,0,1,.309.307Zm0-13.767a.307.307,0,0,1-.309.308h-5.379a.306.306,0,0,1-.308-.308v-5.993a.306.306,0,0,1,.308-.308h5.379a.306.306,0,0,1,.309.308Zm0-13.764a.309.309,0,0,1-.309.308h-5.379a.308.308,0,0,1-.308-.308v-6a.309.309,0,0,1,.308-.309h5.379a.31.31,0,0,1,.309.309Zm0-13.768a.31.31,0,0,1-.309.309h-5.379a.309.309,0,0,1-.308-.309v-6a.306.306,0,0,1,.308-.305h5.379a.306.306,0,0,1,.309.305Zm0-13.763a.309.309,0,0,1-.309.306h-5.379a.308.308,0,0,1-.308-.306v-6a.307.307,0,0,1,.308-.308h5.379a.308.308,0,0,1,.309.308Zm10.549,55.062a.31.31,0,0,1-.311.309h-5.377a.309.309,0,0,1-.309-.309v-5.994a.307.307,0,0,1,.309-.307h5.377a.309.309,0,0,1,.311.307Zm0-13.767a.308.308,0,0,1-.311.308h-5.377a.306.306,0,0,1-.309-.308v-5.993a.305.305,0,0,1,.309-.308h5.377a.307.307,0,0,1,.311.308Zm0-13.764a.309.309,0,0,1-.311.308h-5.377a.308.308,0,0,1-.309-.308v-6a.309.309,0,0,1,.309-.309h5.377a.31.31,0,0,1,.311.309Zm0-13.768a.31.31,0,0,1-.311.309h-5.377a.309.309,0,0,1-.309-.309v-6a.305.305,0,0,1,.309-.305h5.377a.307.307,0,0,1,.311.305Zm0-13.763a.309.309,0,0,1-.311.306h-5.377a.307.307,0,0,1-.309-.306v-6a.307.307,0,0,1,.309-.308h5.377a.309.309,0,0,1,.311.308Z" transform="translate(-340.077 -216.683)"/><path class="cls-2" d="M110.42,111.988h24.16a.483.483,0,0,1,.483.483V117.3a.482.482,0,0,1-.482.482H110.418a.482.482,0,0,1-.482-.482v-4.832A.484.484,0,0,1,110.42,111.988Z"/><path class="cls-2" d="M447.152,295.32a.617.617,0,0,0-.59-.449.61.61,0,0,0-.335.111.427.427,0,0,0-.044.03l-.2.25L422.9,324.551l-.106.142a.666.666,0,0,0-.2.457v35.992a.574.574,0,0,0,.576.573h23.469a.573.573,0,0,0,.574-.573V295.56A.564.564,0,0,0,447.152,295.32Zm-9.72,15.906.165-.207c1.58-2.027,4.242-5.3,5.54-6.9l.17-.2a.667.667,0,0,1,.516-.244.658.658,0,0,1,.641.537v7.41a.664.664,0,0,1-.638.66c-.011,0-.019.006-.029.006s-.019-.006-.029-.006H438c-.011,0-.019.006-.029.006s-.019-.006-.03-.006a.663.663,0,0,1-.507-1.057Zm-3.654,41.02a.573.573,0,0,1-.574.574h-7a.573.573,0,0,1-.574-.574v-4.383a.572.572,0,0,1,.574-.572h7a.572.572,0,0,1,.574.572Zm0-8.1a.573.573,0,0,1-.574.575h-7a.573.573,0,0,1-.574-.575v-4.383a.571.571,0,0,1,.574-.574h7a.571.571,0,0,1,.574.574Zm0-8.1a.574.574,0,0,1-.574.572h-7a.574.574,0,0,1-.574-.572v-4.385a.573.573,0,0,1,.574-.574h7a.573.573,0,0,1,.574.574Zm.02-17.746v9.654a.575.575,0,0,1-.574.574h-7a.575.575,0,0,1-.579-.574v-1.215a.664.664,0,0,1,.044-.215.464.464,0,0,1,.036-.066.454.454,0,0,1,.05-.076c.018-.028.044-.063.066-.094.894-1.281,4.933-6.256,6.63-8.336l.17-.2a.667.667,0,0,1,.516-.244.659.659,0,0,1,.641.537Zm10.683,33.941a.575.575,0,0,1-.574.574h-7a.575.575,0,0,1-.578-.574v-4.383a.574.574,0,0,1,.578-.572h7a.574.574,0,0,1,.574.572Zm0-8.1a.575.575,0,0,1-.574.575h-7a.575.575,0,0,1-.578-.575v-4.383a.574.574,0,0,1,.578-.574h7a.573.573,0,0,1,.574.574Zm0-8.1a.576.576,0,0,1-.574.572h-7a.576.576,0,0,1-.578-.572v-4.385a.575.575,0,0,1,.578-.574h7a.575.575,0,0,1,.574.574Zm0-8.1a.574.574,0,0,1-.574.572h-7a.574.574,0,0,1-.578-.572v-4.383a.575.575,0,0,1,.578-.574h7a.575.575,0,0,1,.574.574Zm0-8.1a.575.575,0,0,1-.574.575h-7a.575.575,0,0,1-.578-.575v-4.382a.576.576,0,0,1,.578-.577h7a.575.575,0,0,1,.574.577Z" transform="translate(-340.077 -216.683)"/><path class="cls-2" d="M384.028,240.466V238.7h2.057v1.8c0,.738.33,1.164,1.086,1.164.7,0,1.008-.465,1.008-1.164V240a2.377,2.377,0,0,0-.989-1.861l-1.3-1.3c-1.262-1.241-1.844-2-1.844-3.51v-.446c0-1.629.951-2.89,3.1-2.89,2.211,0,3.084,1.086,3.084,2.987v1.066h-2.017V232.9c0-.756-.35-1.125-1.047-1.125a.97.97,0,0,0-1.047,1.086v.272c0,.737.406,1.163,1.047,1.784l1.416,1.4c1.2,1.222,1.783,1.959,1.783,3.414v.64c0,1.8-.969,3.084-3.219,3.084S384.028,242.192,384.028,240.466Z" transform="translate(-340.077 -216.683)"/><path class="cls-2" d="M397.763,230.148V240.1c0,2.037-.873,3.356-3.123,3.356-2.329,0-3.3-1.319-3.3-3.356v-9.949h2.211V240.31c0,.776.31,1.3,1.086,1.3s1.086-.524,1.086-1.3V230.148Z" transform="translate(-340.077 -216.683)"/><path class="cls-2" d="M398.89,240.466V238.7h2.054v1.8c0,.738.33,1.164,1.088,1.164.7,0,1.008-.465,1.008-1.164V240a2.376,2.376,0,0,0-.99-1.861l-1.3-1.3c-1.26-1.241-1.842-2-1.842-3.51v-.446c0-1.629.949-2.89,3.1-2.89,2.211,0,3.082,1.086,3.082,2.987v1.066h-2.016V232.9c0-.756-.35-1.125-1.047-1.125a.971.971,0,0,0-1.049,1.086v.272c0,.737.409,1.163,1.049,1.784l1.414,1.4c1.2,1.222,1.785,1.959,1.785,3.414v.64c0,1.8-.97,3.084-3.218,3.084S398.89,242.192,398.89,240.466Z" transform="translate(-340.077 -216.683)"/><path class="cls-2" d="M405.757,230.148h5.877v1.8H409.81V243.3h-2.231V231.952h-1.822Z" transform="translate(-340.077 -216.683)"/><path class="cls-2" d="M411.227,243.3l2.483-13.149h2.521l2.5,13.149h-2.269l-.406-2.405H413.71l-.387,2.405Zm2.774-4.17h1.766l-.874-5.275h-.019Z" transform="translate(-340.077 -216.683)"/><path class="cls-2" d="M419.626,230.148h2.211V243.3h-2.211Z" transform="translate(-340.077 -216.683)"/><path class="cls-2" d="M424.962,235.036V243.3H423.1V230.148h2.173l2.385,7.544v-7.544H429.5V243.3H427.56Z" transform="translate(-340.077 -216.683)"/><path class="cls-2" d="M430.22,243.3l2.482-13.149h2.522l2.5,13.149h-2.27l-.408-2.405H432.7l-.389,2.405Zm2.773-4.17h1.764l-.873-5.275h-.018Z" transform="translate(-340.077 -216.683)"/><path class="cls-2" d="M438.425,230.148h3.2c2.211,0,2.947,1.028,2.947,2.89v1.338a1.915,1.915,0,0,1-1.318,2.095,2,2,0,0,1,1.648,2.191v1.746c0,1.861-.834,2.889-3.045,2.889h-3.433Zm2.211,5.547h.777a.932.932,0,0,0,1.047-1.067v-1.61a.93.93,0,0,0-1.067-1.066h-.757Zm0,1.687v4.112h.97a.952.952,0,0,0,1.086-1.067v-1.978c0-.7-.33-1.067-1.105-1.067Z" transform="translate(-340.077 -216.683)"/><path class="cls-2" d="M445.815,230.148h2.211v11.346h2.639v1.8h-4.85Z" transform="translate(-340.077 -216.683)"/><path class="cls-2" d="M451.481,230.148h5.276v1.8h-3.065v3.762h2.192V237.5h-2.192v4h3.065v1.8h-5.276Z" transform="translate(-340.077 -216.683)"/><path class="cls-2" d="M460.481,239.9v-6.361c0-2.056.971-3.549,3.3-3.549,2.444,0,3.121,1.357,3.121,3.3v1.552h-2.015v-1.726c0-.815-.272-1.281-1.069-1.281s-1.125.563-1.125,1.358v7.059c0,.8.33,1.358,1.125,1.358s1.069-.5,1.069-1.28v-2.424H466.9v2.269c0,1.881-.775,3.278-3.121,3.278C461.452,243.453,460.481,241.94,460.481,239.9Z" transform="translate(-340.077 -216.683)"/><path class="cls-2" d="M467.931,230.148h2.211V243.3h-2.211Z" transform="translate(-340.077 -216.683)"/><path class="cls-2" d="M470.977,230.148h5.877v1.8H475.03V243.3H472.8V231.952h-1.823Z" transform="translate(-340.077 -216.683)"/><path class="cls-2" d="M477.727,230.148h2.211V243.3h-2.211Z" transform="translate(-340.077 -216.683)"/><path class="cls-2" d="M481.085,230.148h5.275v1.8H483.3v3.762h2.191V237.5H483.3v4h3.064v1.8h-5.275Z" transform="translate(-340.077 -216.683)"/><path class="cls-2" d="M486.962,240.466V238.7h2.056v1.8c0,.738.331,1.164,1.086,1.164.7,0,1.008-.465,1.008-1.164V240a2.376,2.376,0,0,0-.988-1.861l-1.3-1.3c-1.262-1.241-1.844-2-1.844-3.51v-.446c0-1.629.952-2.89,3.1-2.89,2.211,0,3.084,1.086,3.084,2.987v1.066h-2.018V232.9c0-.756-.349-1.125-1.047-1.125a.969.969,0,0,0-1.046,1.086v.272c0,.737.406,1.163,1.046,1.784l1.416,1.4c1.2,1.222,1.784,1.959,1.784,3.414v.64c0,1.8-.969,3.084-3.219,3.084S486.962,242.192,486.962,240.466Z" transform="translate(-340.077 -216.683)"/><path class="cls-2" d="M384.067,262.617l2.483-13.149h2.521l2.5,13.149H389.3l-.407-2.405H386.55l-.387,2.405Zm2.774-4.17h1.765l-.873-5.275h-.019Z" transform="translate(-340.077 -216.683)"/><path class="cls-2" d="M394.31,254.355v8.262h-1.862V249.468h2.172l2.385,7.544v-7.544h1.844v13.149h-1.94Z" transform="translate(-340.077 -216.683)"/><path class="cls-2" d="M406.686,253v6.09c0,2.017-.834,3.53-3.2,3.53h-3.414V249.468h3.414C405.852,249.468,406.686,250.961,406.686,253Zm-3.472,7.816c.912,0,1.262-.543,1.262-1.338V252.59a1.153,1.153,0,0,0-1.262-1.319h-.932v9.542Z" transform="translate(-340.077 -216.683)"/><path class="cls-2" d="M409.907,259.223v-6.362c0-2.055.971-3.549,3.3-3.549,2.443,0,3.121,1.358,3.121,3.3v1.552h-2.016v-1.726c0-.815-.271-1.28-1.068-1.28s-1.125.562-1.125,1.358v7.059c0,.8.33,1.357,1.125,1.357s1.068-.5,1.068-1.28v-2.424h2.016v2.269c0,1.881-.775,3.278-3.121,3.278C410.878,262.772,409.907,261.259,409.907,259.223Z" transform="translate(-340.077 -216.683)"/><path class="cls-2" d="M417.493,259.223v-6.362c0-2.055,1.008-3.549,3.336-3.549,2.346,0,3.356,1.494,3.356,3.549v6.362c0,2.036-1.01,3.549-3.356,3.549C418.5,262.772,417.493,261.259,417.493,259.223Zm4.481.349v-7.059c0-.8-.35-1.358-1.145-1.358-.775,0-1.125.562-1.125,1.358v7.059c0,.8.35,1.357,1.125,1.357C421.624,260.929,421.974,260.367,421.974,259.572Z" transform="translate(-340.077 -216.683)"/><path class="cls-2" d="M431.5,254.083h-.057l-1.494,8.534h-1.027l-1.649-8.534h-.039v8.534h-1.824V249.468h2.58l1.436,7.408h.019l1.28-7.408h2.793v13.149H431.5Z" transform="translate(-340.077 -216.683)"/><path class="cls-2" d="M440.829,254.083h-.059l-1.492,8.534h-1.029l-1.648-8.534h-.04v8.534h-1.822V249.468h2.58l1.434,7.408h.019l1.282-7.408h2.793v13.149h-2.018Z" transform="translate(-340.077 -216.683)"/><path class="cls-2" d="M450.489,249.468v9.948c0,2.037-.873,3.356-3.121,3.356-2.328,0-3.3-1.319-3.3-3.356v-9.948h2.211V259.63c0,.776.311,1.3,1.088,1.3s1.086-.523,1.086-1.3V249.468Z" transform="translate(-340.077 -216.683)"/><path class="cls-2" d="M453.575,254.355v8.262h-1.861V249.468h2.172l2.384,7.544v-7.544h1.844v13.149h-1.939Z" transform="translate(-340.077 -216.683)"/><path class="cls-2" d="M459.337,249.468h2.211v13.149h-2.211Z" transform="translate(-340.077 -216.683)"/><path class="cls-2" d="M462.518,249.468H468.4v1.8h-1.822v11.346h-2.23V251.271h-1.825Z" transform="translate(-340.077 -216.683)"/><path class="cls-2" d="M469.386,249.468H471.6v13.149h-2.211Z" transform="translate(-340.077 -216.683)"/><path class="cls-2" d="M472.839,249.468h5.275v1.8H475.05v3.763h2.193v1.784H475.05v4h3.064v1.8h-5.275Z" transform="translate(-340.077 -216.683)"/><path class="cls-2" d="M479.048,259.785V258.02H481.1v1.8c0,.737.331,1.164,1.088,1.164.7,0,1.008-.466,1.008-1.164v-.5a2.373,2.373,0,0,0-.99-1.862l-1.3-1.3c-1.26-1.242-1.842-2-1.842-3.511V252.2c0-1.629.95-2.89,3.1-2.89,2.211,0,3.082,1.086,3.082,2.987v1.067h-2.016v-1.144c0-.757-.349-1.125-1.047-1.125a.97.97,0,0,0-1.048,1.085v.272c0,.737.408,1.164,1.048,1.785l1.414,1.4c1.2,1.222,1.786,1.959,1.786,3.413v.64c0,1.8-.971,3.084-3.219,3.084S479.048,261.511,479.048,259.785Z" transform="translate(-340.077 -216.683)"/></svg>