<svg id="Layer_1" data-name="Layer 1" xmlns="http://www.w3.org/2000/svg" viewBox="0 0 160.922 160.93"><defs><style>.cls-1{fill:#c5c2c2;}.cls-2{fill:#fff;}</style></defs><rect class="cls-1" width="160.922" height="160.93"/><polygon class="cls-2" points="20.966 13.541 20.966 45.973 15.512 45.973 15.512 21.147 15.464 21.147 11.639 25.117 11.589 25.117 11.589 19.424 16.611 13.541 20.966 13.541"/><path class="cls-2" d="M254.79,386.147v-5.264h2.2v-4.26h-2.2V353.7h-5.36L240,377.532v3.351h9.619v5.264Zm-10-9.524,4.882-13.352h.048v13.352Z" transform="translate(-217.217 -340.166)"/><path class="cls-2" d="M341.059,457.584c-2.026-2.737-15.108-19.415-33.448-19.415-15.927,0-32.965,14.445-32.965,14.445s-6.4-13.1-19.493-14.358c-.077,0-.159-.017-.246-.017h-.081a.534.534,0,0,0-.5.518,1.457,1.457,0,0,0,.205.479c1.688,2.8,6,10.772,6,18.735,0,7.989-4.332,15.981-6,18.769l-.114.178a.533.533,0,0,0-.082.276.521.521,0,0,0,.484.516l.141-.012a.549.549,0,0,0,.138-.012c13.133-1.224,19.557-14.364,19.557-14.364s17.038,14.448,32.965,14.448c18.34,0,31.422-16.68,33.448-19.41.055-.075.1-.139.14-.188a.542.542,0,0,0,.043-.2.515.515,0,0,0-.043-.2c-.04-.056-.085-.12-.14-.188m-23.25,2.5a5.353,5.353,0,1,1,5.359-5.356,5.356,5.356,0,0,1-5.359,5.356" transform="translate(-217.217 -340.166)"/><path class="cls-2" d="M254.74,406.818a.553.553,0,0,0-.1-.022.529.529,0,0,0-.527.532v3.65a.515.515,0,0,0,.154.378c8.853,7.693,17.236.485,19.177-1.42a.491.491,0,0,1,.138-.148.532.532,0,0,1,.29-.1.512.512,0,0,1,.357.142.084.084,0,0,0,.025.022c10,9.544,20.487,1.814,22.669,0l.215-.2a.457.457,0,0,1,.2-.04.483.483,0,0,1,.208.04l.216.2c2.181,1.814,12.667,9.544,22.667,0,0,0,.015-.013.019-.022a.5.5,0,0,1,.646-.046.545.545,0,0,1,.147.148c1.939,1.905,10.313,9.113,19.174,1.42a.53.53,0,0,0,.153-.378v-3.65a.524.524,0,0,0-.52-.532.592.592,0,0,0-.113.022c-.082.047-.167.091-.266.138-2.723,1.364-11.168,4.609-18.834-2.644-.072-.068-.147-.135-.223-.213a.552.552,0,0,0-.223-.048.857.857,0,0,0-.158.024.591.591,0,0,0-.267.207c-2.285,1.742-12.771,8.841-22.11.13l-.137-.134a.585.585,0,0,0-.379-.157.557.557,0,0,0-.365.157l-.146.134c-9.334,8.711-19.832,1.612-22.113-.13a.571.571,0,0,0-.26-.207.959.959,0,0,0-.167-.024.584.584,0,0,0-.219.048,2.812,2.812,0,0,1-.225.213c-7.665,7.253-16.107,4.008-18.832,2.644-.1-.047-.187-.091-.27-.138" transform="translate(-217.217 -340.166)"/><path class="cls-2" d="M273.444,423.218a.581.581,0,0,1,.139-.145.556.556,0,0,1,.289-.1.513.513,0,0,1,.359.146.1.1,0,0,0,.023.023c10,9.531,20.487,1.805,22.67,0l.214-.2a.519.519,0,0,1,.2-.034.57.57,0,0,1,.211.034l.214.2c2.181,1.805,12.666,9.531,22.668,0,0-.007.011-.014.018-.023a.5.5,0,0,1,.355-.146.533.533,0,0,1,.29.1.6.6,0,0,1,.148.145c1.938,1.907,10.312,9.118,19.174,1.417a.514.514,0,0,0,.156-.369v-3.66a.522.522,0,0,0-.523-.524.592.592,0,0,0-.113.022c-.082.039-.168.085-.266.132-2.721,1.366-11.17,4.6-18.834-2.641-.071-.069-.146-.137-.222-.211a.434.434,0,0,0-.224-.052.325.325,0,0,0-.158.04.441.441,0,0,0-.267.2c-2.283,1.739-12.771,8.841-22.111.128l-.137-.136a.537.537,0,0,0-.379-.147.516.516,0,0,0-.365.147l-.145.136c-9.334,8.713-19.832,1.611-22.113-.128a.433.433,0,0,0-.259-.2.368.368,0,0,0-.168-.04.432.432,0,0,0-.217.052c-.073.074-.15.142-.228.211-7.665,7.243-16.106,4.007-18.831,2.641-.1-.047-.186-.093-.269-.132a.572.572,0,0,0-.1-.022.525.525,0,0,0-.528.524v3.66a.5.5,0,0,0,.153.369c8.854,7.7,17.238.49,19.178-1.417" transform="translate(-217.217 -340.166)"/><path class="cls-2" d="M268.569,353.643h2.211v11.345h2.638v1.8h-4.849Z" transform="translate(-217.217 -340.166)"/><path class="cls-2" d="M274.447,353.643h2.211v13.149h-2.211Z" transform="translate(-217.217 -340.166)"/><path class="cls-2" d="M278.133,353.643h5.179v1.8h-2.968v3.762h2.211v1.784h-2.211v5.8h-2.211Z" transform="translate(-217.217 -340.166)"/><path class="cls-2" d="M284.3,353.643h5.275v1.8h-3.064v3.762h2.192v1.784h-2.192v4h3.064v1.8H284.3Z" transform="translate(-217.217 -340.166)"/><path class="cls-2" d="M293.711,353.643h3.2c2.211,0,2.948,1.028,2.948,2.89v1.338a1.915,1.915,0,0,1-1.319,2.094,2,2,0,0,1,1.649,2.192V363.9c0,1.862-.833,2.89-3.044,2.89h-3.434Zm2.211,5.547h.776a.932.932,0,0,0,1.047-1.067v-1.61a.929.929,0,0,0-1.066-1.066h-.757Zm0,1.687v4.111h.97a.952.952,0,0,0,1.087-1.066v-1.979c0-.7-.331-1.066-1.106-1.066Z" transform="translate(-217.217 -340.166)"/><path class="cls-2" d="M301.141,353.643h5.275v1.8h-3.064v3.762h2.192v1.784h-2.192v4h3.064v1.8h-5.275Z" transform="translate(-217.217 -340.166)"/><path class="cls-2" d="M307.756,353.643h2.211v11.345h2.638v1.8h-4.849Z" transform="translate(-217.217 -340.166)"/><path class="cls-2" d="M313.46,363.4v-6.361c0-2.056,1.009-3.549,3.336-3.549,2.347,0,3.355,1.493,3.355,3.549V363.4c0,2.037-1.008,3.549-3.355,3.549C314.469,366.947,313.46,365.435,313.46,363.4Zm4.48.349v-7.059c0-.8-.348-1.358-1.144-1.358-.775,0-1.125.563-1.125,1.358v7.059c0,.8.35,1.358,1.125,1.358C317.592,365.105,317.94,364.543,317.94,363.747Z" transform="translate(-217.217 -340.166)"/><path class="cls-2" d="M326.01,358.666l-1.241,8.126h-2.076l-1.764-13.149h2.133l1.028,8.34h.019l1.106-8.34h1.8l1.221,8.34h.02l1.008-8.34h1.862l-1.707,13.149h-2.1l-1.3-8.126Z" transform="translate(-217.217 -340.166)"/><path class="cls-2" d="M273.345,377.968l-1.241,8.126h-2.076l-1.764-13.149H270.4l1.028,8.34h.019l1.106-8.34h1.8l1.221,8.34h.02l1.008-8.34h1.862l-1.707,13.149h-2.095l-1.3-8.126Z" transform="translate(-217.217 -340.166)"/><path class="cls-2" d="M278.254,386.094l2.482-13.149h2.522l2.5,13.149h-2.27l-.407-2.4h-2.347l-.387,2.4Zm2.773-4.17h1.765l-.873-5.274H281.9Z" transform="translate(-217.217 -340.166)"/><path class="cls-2" d="M285.335,372.945h5.877v1.8h-1.823v11.345h-2.231V374.749h-1.823Z" transform="translate(-217.217 -340.166)"/><path class="cls-2" d="M292.24,372.945h5.276v1.8h-3.065v3.762h2.193V380.3h-2.193v4h3.065v1.8H292.24Z" transform="translate(-217.217 -340.166)"/><path class="cls-2" d="M300.911,380.063v6.031H298.7V372.945h3.22c2.23,0,3.045,1.106,3.045,2.948v1.687c0,1.416-.5,2.25-1.765,2.541l2.114,5.973h-2.328Zm0-5.314v4.092h.737a.957.957,0,0,0,1.086-1.086v-1.939c0-.718-.329-1.067-1.086-1.067Z" transform="translate(-217.217 -340.166)"/></svg>