<svg id="Layer_1" data-name="Layer 1" xmlns="http://www.w3.org/2000/svg" viewBox="0 0 160.922 160.926"><defs><style>.cls-1{fill:#c5c2c2;}.cls-2{fill:#fff;}</style></defs><rect class="cls-1" width="160.922" height="160.926"/><path class="cls-2" d="M246.691,361.819c0-5.024-2.2-8.658-7.942-8.658-5.789,0-8.035,3.155-8.035,8.178v4.784c0,5.31,2.1,7.988,6.027,7.988a4.664,4.664,0,0,0,4.495-2.63h.047v6.982c0,1.961-.765,3.349-2.725,3.349s-2.679-1.148-2.679-3.158V376.5H230.9v1.723c0,4.782,1.724,8.13,7.751,8.13,5.738,0,8.037-3.683,8.037-8.754Zm-5.408,4.974c-.095,1.817-.86,2.965-2.582,2.965-1.863,0-2.583-1.148-2.583-3.254v-5.643c0-2.057.764-3.252,2.631-3.252,1.818,0,2.534,1.243,2.534,3.252Z" transform="translate(-217.217 -340.168)"/><path class="cls-2" d="M337.889,445.94l-19.13-11.04V412.813a1.3,1.3,0,0,0-.652-1.13L298.33,400.264a1.31,1.31,0,0,0-1.305,0l-19.779,11.419a1.3,1.3,0,0,0-.653,1.13V434.9l-19.127,11.04a1.3,1.3,0,0,0-.652,1.13v22.843a1.3,1.3,0,0,0,.652,1.13l19.78,11.417a1.3,1.3,0,0,0,1.3,0l19.127-11.041L316.8,482.46a1.313,1.313,0,0,0,.653.175,1.3,1.3,0,0,0,.652-.175l19.782-11.417a1.3,1.3,0,0,0,.653-1.13V447.07A1.3,1.3,0,0,0,337.889,445.94Zm-41.516,21.712-15.866-9.16,15.866-9.161Zm18.471-32-15.862,9.156V426.493Zm-18.471,9.157-15.865-9.158,15.865-9.16Zm3.915,2.26,17.167-9.91,17.172,9.909-17.172,9.915Zm15.862-13.678-15.862-9.161,15.862-9.158Zm-21.083-9.161L279.2,433.394v-18.32ZM276.593,479.07l-17.17-9.911V449.331l17.17,9.915Zm2.61,0V460.752l15.864,9.161Zm56.729-9.911-17.173,9.911V459.246l17.173-9.915Z" transform="translate(-217.217 -340.168)"/><path class="cls-2" d="M255.206,353.907h2.053v12.207h-2.053Z" transform="translate(-217.217 -340.168)"/><path class="cls-2" d="M260.265,358.444v7.67h-1.729V353.907h2.017l2.215,7v-7h1.71v12.207h-1.8Z" transform="translate(-217.217 -340.168)"/><path class="cls-2" d="M271.875,357.184v5.653c0,1.873-.774,3.277-2.97,3.277h-3.169V353.907H268.9C271.1,353.907,271.875,355.293,271.875,357.184Zm-3.222,7.256c.845,0,1.17-.5,1.17-1.243v-6.391a1.07,1.07,0,0,0-1.17-1.225h-.865v8.859Z" transform="translate(-217.217 -340.168)"/><path class="cls-2" d="M279.094,353.907v9.237c0,1.89-.81,3.114-2.9,3.114-2.16,0-3.061-1.224-3.061-3.114v-9.237h2.053v9.434c0,.721.288,1.207,1.008,1.207s1.008-.486,1.008-1.207v-9.434Z" transform="translate(-217.217 -340.168)"/><path class="cls-2" d="M280.244,363.485v-1.638h1.91v1.675c0,.684.305,1.08,1.007,1.08.649,0,.937-.433.937-1.08v-.469a2.205,2.205,0,0,0-.918-1.728l-1.207-1.206c-1.17-1.153-1.71-1.855-1.71-3.26v-.414a2.546,2.546,0,0,1,2.881-2.682c2.053,0,2.862,1.008,2.862,2.773v.99h-1.872v-1.063c0-.7-.324-1.044-.973-1.044a.9.9,0,0,0-.971,1.008v.252c0,.685.378,1.081.971,1.657l1.315,1.3c1.116,1.135,1.656,1.819,1.656,3.169v.6a2.643,2.643,0,0,1-2.988,2.862C281.055,366.258,280.244,365.088,280.244,363.485Z" transform="translate(-217.217 -340.168)"/><path class="cls-2" d="M286.616,353.907h5.456v1.674h-1.693v10.533h-2.071V355.581h-1.692Z" transform="translate(-217.217 -340.168)"/><path class="cls-2" d="M295.166,360.515v5.6h-2.052V353.907H296.1c2.07,0,2.826,1.026,2.826,2.737v1.566c0,1.314-.468,2.088-1.639,2.359l1.963,5.545h-2.16Zm0-4.934v3.8h.684a.889.889,0,0,0,1.009-1.008v-1.8c0-.666-.307-.99-1.009-.99Z" transform="translate(-217.217 -340.168)"/><path class="cls-2" d="M303.681,361.469v4.645h-2.053v-4.645l-2.286-7.562h2.143l1.242,4.627h.017l1.244-4.627h1.962Z" transform="translate(-217.217 -340.168)"/><path class="cls-2" d="M308.073,364.314l-1.044,2.754h-1.153l.252-2.916h1.945Z" transform="translate(-217.217 -340.168)"/><path class="cls-2" d="M311.312,353.907h2.053v12.207h-2.053Z" transform="translate(-217.217 -340.168)"/><path class="cls-2" d="M316.37,358.444v7.67h-1.728V353.907h2.017l2.214,7v-7h1.71v12.207h-1.8Z" transform="translate(-217.217 -340.168)"/><path class="cls-2" d="M323.57,358.444v7.67h-1.729V353.907h2.017l2.215,7v-7h1.71v12.207h-1.8Z" transform="translate(-217.217 -340.168)"/><path class="cls-2" d="M329.041,362.963v-5.905c0-1.909.937-3.3,3.1-3.3,2.179,0,3.115,1.386,3.115,3.3v5.905c0,1.891-.936,3.295-3.115,3.295C329.978,366.258,329.041,364.854,329.041,362.963Zm4.16.325v-6.555c0-.738-.325-1.26-1.063-1.26-.72,0-1.044.522-1.044,1.26v6.555c0,.738.324,1.26,1.044,1.26C332.876,364.548,333.2,364.026,333.2,363.288Z" transform="translate(-217.217 -340.168)"/><path class="cls-2" d="M343.083,353.907l-2.323,12.207h-2.232L336.2,353.907h2.089l1.4,8.516h.018l1.441-8.516Z" transform="translate(-217.217 -340.168)"/><path class="cls-2" d="M342.792,366.114l2.305-12.207h2.341l2.322,12.207h-2.106l-.378-2.233H345.1l-.36,2.233Zm2.576-3.871h1.637l-.809-4.9h-.019Z" transform="translate(-217.217 -340.168)"/><path class="cls-2" d="M349.56,353.907h5.456v1.674h-1.692v10.533h-2.072V355.581H349.56Z" transform="translate(-217.217 -340.168)"/><path class="cls-2" d="M356.057,353.907h2.053v12.207h-2.053Z" transform="translate(-217.217 -340.168)"/><path class="cls-2" d="M359.387,362.963v-5.905c0-1.909.937-3.3,3.1-3.3,2.178,0,3.115,1.386,3.115,3.3v5.905c0,1.891-.937,3.295-3.115,3.295C360.324,366.258,359.387,364.854,359.387,362.963Zm4.159.325v-6.555c0-.738-.324-1.26-1.062-1.26-.72,0-1.044.522-1.044,1.26v6.555c0,.738.324,1.26,1.044,1.26C363.222,364.548,363.546,364.026,363.546,363.288Z" transform="translate(-217.217 -340.168)"/><path class="cls-2" d="M368.585,358.444v7.67h-1.728V353.907h2.016l2.215,7v-7h1.71v12.207H371Z" transform="translate(-217.217 -340.168)"/><path class="cls-2" d="M254.873,385.444l2.305-12.208h2.341l2.322,12.208h-2.106l-.378-2.233h-2.179l-.36,2.233Zm2.576-3.871h1.637l-.809-4.9h-.019Z" transform="translate(-217.217 -340.168)"/><path class="cls-2" d="M264.324,377.773v7.671H262.6V373.236h2.017l2.215,7v-7h1.709v12.208h-1.8Z" transform="translate(-217.217 -340.168)"/><path class="cls-2" d="M275.935,376.513v5.654c0,1.873-.774,3.277-2.971,3.277H269.8V373.236h3.169C275.161,373.236,275.935,374.623,275.935,376.513Zm-3.223,7.257c.846,0,1.17-.5,1.17-1.243v-6.392a1.069,1.069,0,0,0-1.17-1.224h-.864v8.859Z" transform="translate(-217.217 -340.168)"/><path class="cls-2" d="M279.173,373.236h2.053v12.208h-2.053Z" transform="translate(-217.217 -340.168)"/><path class="cls-2" d="M284.232,377.773v7.671H282.5V373.236h2.017l2.215,7v-7h1.71v12.208h-1.8Z" transform="translate(-217.217 -340.168)"/><path class="cls-2" d="M289.7,373.236h4.808v1.675h-2.755V378.4h2.053v1.656h-2.053v5.384H289.7Z" transform="translate(-217.217 -340.168)"/><path class="cls-2" d="M297.551,379.844v5.6H295.5V373.236h2.99c2.07,0,2.826,1.027,2.826,2.737v1.567c0,1.314-.468,2.088-1.639,2.358l1.963,5.546h-2.16Zm0-4.933v3.8h.684a.889.889,0,0,0,1.009-1.008v-1.8c0-.666-.307-.99-1.009-.99Z" transform="translate(-217.217 -340.168)"/><path class="cls-2" d="M302.2,385.444l2.3-12.208h2.341l2.322,12.208h-2.106l-.378-2.233H304.5l-.36,2.233Zm2.575-3.871h1.638l-.81-4.9h-.019Z" transform="translate(-217.217 -340.168)"/><path class="cls-2" d="M309.808,382.815v-1.638h1.909v1.674c0,.684.306,1.08,1.008,1.08.648,0,.936-.431.936-1.08v-.468a2.21,2.21,0,0,0-.917-1.729l-1.208-1.206c-1.169-1.152-1.709-1.855-1.709-3.259v-.414a2.546,2.546,0,0,1,2.88-2.683c2.053,0,2.863,1.009,2.863,2.773v.991H313.7v-1.063c0-.7-.325-1.044-.973-1.044a.9.9,0,0,0-.972,1.008v.252c0,.684.378,1.08.972,1.657l1.314,1.3c1.117,1.134,1.657,1.818,1.657,3.169v.594a2.644,2.644,0,0,1-2.989,2.863C310.619,385.588,309.808,384.418,309.808,382.815Z" transform="translate(-217.217 -340.168)"/><path class="cls-2" d="M316.36,373.236h5.456v1.675h-1.693v10.533h-2.071V374.911H316.36Z" transform="translate(-217.217 -340.168)"/><path class="cls-2" d="M324.911,379.844v5.6h-2.053V373.236h2.989c2.07,0,2.826,1.027,2.826,2.737v1.567c0,1.314-.468,2.088-1.638,2.358L329,385.444h-2.16Zm0-4.933v3.8h.683A.889.889,0,0,0,326.6,377.7v-1.8c0-.666-.307-.99-1.009-.99Z" transform="translate(-217.217 -340.168)"/><path class="cls-2" d="M335.838,373.236v9.237c0,1.891-.81,3.115-2.9,3.115-2.16,0-3.061-1.224-3.061-3.115v-9.237h2.053v9.435c0,.72.288,1.207,1.008,1.207s1.009-.487,1.009-1.207v-9.435Z" transform="translate(-217.217 -340.168)"/><path class="cls-2" d="M337.1,382.293v-5.906c0-1.908.9-3.3,3.061-3.3,2.268,0,2.9,1.261,2.9,3.061v1.44h-1.873v-1.6c0-.756-.252-1.188-.99-1.188s-1.044.522-1.044,1.26v6.554c0,.738.305,1.261,1.044,1.261s.99-.469.99-1.189v-2.25h1.873v2.106c0,1.747-.721,3.043-2.9,3.043C338,385.588,337.1,384.184,337.1,382.293Z" transform="translate(-217.217 -340.168)"/><path class="cls-2" d="M343.576,373.236h5.456v1.675h-1.693v10.533h-2.071V374.911h-1.692Z" transform="translate(-217.217 -340.168)"/><path class="cls-2" d="M356.034,373.236v9.237c0,1.891-.811,3.115-2.9,3.115-2.16,0-3.06-1.224-3.06-3.115v-9.237h2.052v9.435c0,.72.288,1.207,1.008,1.207s1.009-.487,1.009-1.207v-9.435Z" transform="translate(-217.217 -340.168)"/><path class="cls-2" d="M359.344,379.844v5.6h-2.053V373.236h2.99c2.07,0,2.826,1.027,2.826,2.737v1.567c0,1.314-.468,2.088-1.639,2.358l1.963,5.546h-2.16Zm0-4.933v3.8h.684a.888.888,0,0,0,1.008-1.008v-1.8c0-.666-.306-.99-1.008-.99Z" transform="translate(-217.217 -340.168)"/><path class="cls-2" d="M364.312,373.236h4.9v1.675h-2.844V378.4H368.4v1.656h-2.034v3.71h2.844v1.674h-4.9Z" transform="translate(-217.217 -340.168)"/></svg>