<svg id="Layer_1" data-name="Layer 1" xmlns="http://www.w3.org/2000/svg" viewBox="0 0 160.92 160.928"><defs><style>.cls-1{fill:#1a3668;}.cls-2{fill:#fff;}</style></defs><rect class="cls-1" width="160.92" height="160.928"/><polygon class="cls-2" points="24.079 13.487 24.079 45.933 18.624 45.933 18.624 21.096 18.575 21.096 14.747 25.067 14.7 25.067 14.7 19.373 19.726 13.487 24.079 13.487"/><polygon class="cls-2" points="26.567 13.487 40.255 13.487 40.255 18.512 33.124 45.933 27.714 45.933 34.989 17.936 26.567 17.936 26.567 13.487"/><path class="cls-2" d="M461.436,314.281a20.983,20.983,0,0,0-20.189-20.942,20.957,20.957,0,0,0-39.524,0,20.944,20.944,0,0,0-12.1,37.464,20.946,20.946,0,0,0,31.962,23.1,20.947,20.947,0,0,0,31.793-23.128,20.932,20.932,0,0,0,8.056-16.5m-23.211-13.964a16.749,16.749,0,0,1-14.27,16.536,16.589,16.589,0,0,1,14.051-19.109,16.653,16.653,0,0,1,.219,2.573m-16.662,48.155a16.69,16.69,0,0,1-.154-23.845,16.69,16.69,0,0,1,.154,23.845m-16.6-50.729a16.576,16.576,0,0,1,14.052,19.11,16.59,16.59,0,0,1-14.052-19.11m12.481,24.025a16.675,16.675,0,0,1-22.639,7.364,16.678,16.678,0,0,1,22.639-7.364m8.025-.113a16.684,16.684,0,0,1,22.75,7.451,16.682,16.682,0,0,1-22.75-7.451m-3.986-38.077a16.759,16.759,0,0,1,15.345,10.066,21.024,21.024,0,0,0-15.345,11.778,21.011,21.011,0,0,0-15.343-11.778,16.758,16.758,0,0,1,15.343-10.066m-35.728,30.7A16.761,16.761,0,0,1,400.7,297.639a21.144,21.144,0,0,0-.176,2.678,20.911,20.911,0,0,0,6.848,15.483A21.008,21.008,0,0,0,391.3,326.691a16.685,16.685,0,0,1-5.546-12.41m7.261,22.34a16.6,16.6,0,0,1,.366-3.469,20.924,20.924,0,0,0,19.233-.525,20.85,20.85,0,0,0,5.562,18.433,16.705,16.705,0,0,1-25.161-14.439m56.938-.139a16.713,16.713,0,0,1-25,14.541,20.881,20.881,0,0,0,5.366-18.413,20.909,20.909,0,0,0,19.289.526,16.642,16.642,0,0,1,.34,3.346m-14.229-20.805a20.9,20.9,0,0,0,6.719-15.36,21.331,21.331,0,0,0-.176-2.678,16.71,16.71,0,0,1,9.446,29.009,21,21,0,0,0-15.989-10.971" transform="translate(-340.077 -216.682)"/><path class="cls-2" d="M391.433,230.164h3.278c2.231,0,3.045,1.106,3.045,2.948v2.773c0,1.843-.814,2.968-3.045,2.968h-1.067v4.46h-2.211Zm2.211,1.8v5.178h.815a.95.95,0,0,0,1.086-1.086v-3.026c0-.717-.33-1.066-1.086-1.066Z" transform="translate(-340.077 -216.682)"/><path class="cls-2" d="M398.03,243.313l2.482-13.149h2.521l2.5,13.149h-2.269l-.407-2.405h-2.347l-.388,2.405Zm2.773-4.17h1.765l-.873-5.275h-.019Z" transform="translate(-340.077 -216.682)"/><path class="cls-2" d="M408.853,237.281v6.032h-2.211V230.164h3.22c2.23,0,3.045,1.106,3.045,2.948V234.8c0,1.416-.5,2.25-1.765,2.541l2.114,5.973h-2.328Zm0-5.313v4.092h.737a.957.957,0,0,0,1.086-1.086v-1.94c0-.717-.329-1.066-1.086-1.066Z" transform="translate(-340.077 -216.682)"/><path class="cls-2" d="M413.685,230.164h5.877v1.8h-1.823v11.345h-2.231V231.968h-1.823Z" transform="translate(-340.077 -216.682)"/><path class="cls-2" d="M422.822,235.051v8.262h-1.863V230.164h2.173l2.385,7.544v-7.544h1.843v13.149h-1.94Z" transform="translate(-340.077 -216.682)"/><path class="cls-2" d="M429.185,230.164h5.275v1.8H431.4v3.762h2.192v1.784H431.4v3.995h3.064v1.8h-5.275Z" transform="translate(-340.077 -216.682)"/><path class="cls-2" d="M438.049,237.281v6.032h-2.211V230.164h3.22c2.23,0,3.045,1.106,3.045,2.948V234.8c0,1.416-.5,2.25-1.765,2.541l2.114,5.973h-2.328Zm0-5.313v4.092h.737a.957.957,0,0,0,1.086-1.086v-1.94c0-.717-.329-1.066-1.086-1.066Z" transform="translate(-340.077 -216.682)"/><path class="cls-2" d="M443.21,240.482v-1.765h2.056v1.8c0,.737.33,1.164,1.087,1.164.7,0,1.008-.466,1.008-1.164v-.5a2.379,2.379,0,0,0-.99-1.862l-1.3-1.3c-1.261-1.241-1.843-2-1.843-3.51V232.9c0-1.629.95-2.89,3.1-2.89,2.211,0,3.083,1.086,3.083,2.987v1.066H447.4v-1.144c0-.756-.35-1.125-1.047-1.125a.971.971,0,0,0-1.048,1.086v.272c0,.737.407,1.163,1.048,1.784l1.415,1.4c1.2,1.222,1.784,1.959,1.784,3.414v.639c0,1.8-.97,3.084-3.219,3.084S443.21,242.208,443.21,240.482Z" transform="translate(-340.077 -216.682)"/><path class="cls-2" d="M455.257,237.514h-2.134v5.8h-2.211V230.164h2.211v5.566h2.134v-5.566h2.231v13.149h-2.231Z" transform="translate(-340.077 -216.682)"/><path class="cls-2" d="M458.944,230.164h2.211v13.149h-2.211Z" transform="translate(-340.077 -216.682)"/><path class="cls-2" d="M462.629,230.164h3.278c2.231,0,3.045,1.106,3.045,2.948v2.773c0,1.843-.814,2.968-3.045,2.968H464.84v4.46h-2.211Zm2.211,1.8v5.178h.816a.949.949,0,0,0,1.085-1.086v-3.026c0-.717-.33-1.066-1.085-1.066Z" transform="translate(-340.077 -216.682)"/><path class="cls-2" d="M469.808,240.482v-1.765h2.056v1.8c0,.737.33,1.164,1.086,1.164.7,0,1.008-.466,1.008-1.164v-.5a2.377,2.377,0,0,0-.989-1.862l-1.3-1.3c-1.261-1.241-1.843-2-1.843-3.51V232.9c0-1.629.951-2.89,3.1-2.89,2.211,0,3.083,1.086,3.083,2.987v1.066H474v-1.144c0-.756-.349-1.125-1.047-1.125a.97.97,0,0,0-1.047,1.086v.272c0,.737.407,1.163,1.047,1.784l1.415,1.4c1.2,1.222,1.785,1.959,1.785,3.414v.639c0,1.8-.97,3.084-3.219,3.084S469.808,242.208,469.808,240.482Z" transform="translate(-340.077 -216.682)"/><path class="cls-2" d="M391.433,249.268h5.179v1.8h-2.968v3.762h2.211v1.784h-2.211v5.8h-2.211Z" transform="translate(-340.077 -216.682)"/><path class="cls-2" d="M397.369,259.023v-6.361c0-2.056,1.009-3.549,3.336-3.549,2.347,0,3.356,1.493,3.356,3.549v6.361c0,2.037-1.009,3.549-3.356,3.549C398.378,262.572,397.369,261.06,397.369,259.023Zm4.481.349v-7.059c0-.795-.349-1.358-1.145-1.358-.775,0-1.125.563-1.125,1.358v7.059c0,.8.35,1.358,1.125,1.358C401.5,260.73,401.85,260.168,401.85,259.372Z" transform="translate(-340.077 -216.682)"/><path class="cls-2" d="M407.728,256.385v6.032h-2.211V249.268h3.22c2.23,0,3.045,1.106,3.045,2.948V253.9c0,1.416-.5,2.25-1.765,2.541l2.114,5.973H409.8Zm0-5.313v4.092h.737a.957.957,0,0,0,1.086-1.086v-1.94c0-.717-.329-1.066-1.086-1.066Z" transform="translate(-340.077 -216.682)"/><path class="cls-2" d="M415.256,249.268h5.877v1.8H419.31v11.345h-2.231V251.072h-1.823Z" transform="translate(-340.077 -216.682)"/><path class="cls-2" d="M426.526,256.618h-2.134v5.8h-2.211V249.268h2.211v5.566h2.134v-5.566h2.23v13.149h-2.23Z" transform="translate(-340.077 -216.682)"/><path class="cls-2" d="M430.212,249.268h5.276v1.8h-3.065v3.762h2.192v1.784h-2.192v4h3.065v1.8h-5.276Z" transform="translate(-340.077 -216.682)"/><path class="cls-2" d="M442.55,255.4h3.143v7.02H444.1v-1.435a1.992,1.992,0,0,1-2.114,1.59c-1.9,0-2.774-1.512-2.774-3.549v-6.361c0-2.056.989-3.549,3.317-3.549,2.444,0,3.162,1.357,3.162,3.3v1.163h-2.018v-1.337c0-.815-.31-1.281-1.105-1.281s-1.145.563-1.145,1.358v7.059c0,.8.33,1.358,1.087,1.358.717,0,1.086-.408,1.086-1.261v-2.327H442.55Z" transform="translate(-340.077 -216.682)"/><path class="cls-2" d="M446.935,259.023v-6.361c0-2.056,1.009-3.549,3.336-3.549,2.346,0,3.355,1.493,3.355,3.549v6.361c0,2.037-1.009,3.549-3.355,3.549C447.944,262.572,446.935,261.06,446.935,259.023Zm4.48.349v-7.059c0-.795-.348-1.358-1.144-1.358-.776,0-1.125.563-1.125,1.358v7.059c0,.8.349,1.358,1.125,1.358C451.067,260.73,451.415,260.168,451.415,259.372Z" transform="translate(-340.077 -216.682)"/><path class="cls-2" d="M454.249,262.417l2.483-13.149h2.521l2.5,13.149h-2.269l-.408-2.4h-2.346l-.388,2.4Zm2.774-4.17h1.764l-.873-5.275H457.9Z" transform="translate(-340.077 -216.682)"/><path class="cls-2" d="M462.842,249.268h2.211v11.345h2.638v1.8h-4.849Z" transform="translate(-340.077 -216.682)"/><path class="cls-2" d="M468.488,259.586v-1.765h2.055v1.8c0,.737.33,1.164,1.087,1.164.7,0,1.008-.466,1.008-1.164v-.5a2.38,2.38,0,0,0-.989-1.862l-1.3-1.3c-1.261-1.241-1.843-2-1.843-3.51V252c0-1.629.95-2.89,3.1-2.89,2.211,0,3.083,1.086,3.083,2.987v1.066h-2.017v-1.144c0-.756-.35-1.125-1.047-1.125a.971.971,0,0,0-1.048,1.086v.272c0,.737.408,1.163,1.048,1.784l1.415,1.4c1.2,1.222,1.784,1.959,1.784,3.414v.639c0,1.8-.969,3.084-3.218,3.084S468.488,261.312,468.488,259.586Z" transform="translate(-340.077 -216.682)"/></svg>