<svg id="Layer_1" data-name="Layer 1" xmlns="http://www.w3.org/2000/svg" viewBox="0 0 160.922 160.927"><defs><style>.cls-1{fill:#fdb714;}.cls-2{fill:#fff;}</style></defs><rect class="cls-1" width="160.922" height="160.927"/><polygon class="cls-2" points="16.506 17.938 24.93 17.938 17.653 45.933 23.063 45.933 30.194 18.512 30.194 13.486 16.506 13.486 16.506 17.938"/><path class="cls-2" d="M385.706,243.3l2.483-13.149h2.521l2.5,13.149h-2.27l-.407-2.405h-2.346L387.8,243.3Zm2.774-4.17h1.764l-.873-5.275h-.018Z" transform="translate(-340.076 -216.683)"/><path class="cls-2" d="M394.027,230.154h5.179v1.8h-2.968v3.763h2.211V237.5h-2.211v5.8h-2.211Z" transform="translate(-340.076 -216.683)"/><path class="cls-2" d="M400.08,230.154h5.179v1.8h-2.968v3.763H404.5V237.5h-2.211v5.8H400.08Z" transform="translate(-340.076 -216.683)"/><path class="cls-2" d="M405.94,239.909v-6.362c0-2.055,1.008-3.549,3.335-3.549,2.347,0,3.356,1.494,3.356,3.549v6.362c0,2.036-1.009,3.549-3.356,3.549C406.948,243.458,405.94,241.945,405.94,239.909Zm4.48.349V233.2c0-.8-.349-1.358-1.145-1.358-.775,0-1.125.562-1.125,1.358v7.059c0,.795.35,1.357,1.125,1.357C410.071,241.615,410.42,241.053,410.42,240.258Z" transform="translate(-340.076 -216.683)"/><path class="cls-2" d="M416.007,237.271V243.3H413.8V230.154h3.22c2.23,0,3.045,1.1,3.045,2.947v1.687c0,1.416-.5,2.25-1.765,2.541l2.114,5.974h-2.328Zm0-5.314v4.092h.737a.957.957,0,0,0,1.086-1.086v-1.939c0-.718-.329-1.067-1.086-1.067Z" transform="translate(-340.076 -216.683)"/><path class="cls-2" d="M427.782,233.683v6.09c0,2.017-.834,3.53-3.2,3.53h-3.414V230.154h3.414C426.948,230.154,427.782,231.647,427.782,233.683Zm-3.471,7.816c.911,0,1.26-.543,1.26-1.338v-6.885a1.152,1.152,0,0,0-1.26-1.319h-.932V241.5Z" transform="translate(-340.076 -216.683)"/><path class="cls-2" d="M428.308,243.3l2.482-13.149h2.522l2.5,13.149h-2.27l-.407-2.405H430.79L430.4,243.3Zm2.773-4.17h1.765l-.873-5.275h-.019Z" transform="translate(-340.076 -216.683)"/><path class="cls-2" d="M436.629,230.154h3.2c2.211,0,2.948,1.028,2.948,2.889v1.338a1.915,1.915,0,0,1-1.319,2.095,2,2,0,0,1,1.649,2.191v1.746c0,1.862-.833,2.89-3.044,2.89h-3.434Zm2.211,5.546h.776a.931.931,0,0,0,1.047-1.066v-1.61a.93.93,0,0,0-1.066-1.067h-.757Zm0,1.688V241.5h.97a.952.952,0,0,0,1.087-1.066v-1.979c0-.7-.331-1.066-1.106-1.066Z" transform="translate(-340.076 -216.683)"/><path class="cls-2" d="M444.117,230.154h2.211V241.5h2.638v1.8h-4.849Z" transform="translate(-340.076 -216.683)"/><path class="cls-2" d="M449.879,230.154h5.275v1.8H452.09v3.763h2.192V237.5H452.09v4h3.064v1.8h-5.275Z" transform="translate(-340.076 -216.683)"/><path class="cls-2" d="M457.833,243.3l2.483-13.149h2.521l2.5,13.149h-2.27l-.407-2.405h-2.346l-.388,2.405Zm2.774-4.17h1.764l-.873-5.275h-.018Z" transform="translate(-340.076 -216.683)"/><path class="cls-2" d="M468.018,235.041V243.3h-1.863V230.154h2.173l2.385,7.544v-7.544h1.843V243.3h-1.94Z" transform="translate(-340.076 -216.683)"/><path class="cls-2" d="M480.335,233.683v6.09c0,2.017-.834,3.53-3.2,3.53h-3.414V230.154h3.414C479.5,230.154,480.335,231.647,480.335,233.683Zm-3.472,7.816c.911,0,1.261-.543,1.261-1.338v-6.885a1.153,1.153,0,0,0-1.261-1.319h-.931V241.5Z" transform="translate(-340.076 -216.683)"/><path class="cls-2" d="M386.037,259.222v-6.331c0-2.047.965-3.533,3.281-3.533,2.433,0,3.109,1.351,3.109,3.282v1.543h-2.008v-1.717c0-.811-.27-1.274-1.062-1.274s-1.12.559-1.12,1.351v7.026c0,.791.329,1.351,1.12,1.351s1.062-.5,1.062-1.274v-2.413h2.008v2.259c0,1.872-.773,3.262-3.109,3.262C387,262.754,386.037,261.248,386.037,259.222Z" transform="translate(-340.076 -216.683)"/><path class="cls-2" d="M393.815,249.513h2.2v11.292h2.626V262.6h-4.826Z" transform="translate(-340.076 -216.683)"/><path class="cls-2" d="M399.836,249.513h5.25v1.795h-3.05v3.744h2.182v1.776h-2.182v3.977h3.05V262.6h-5.25Z" transform="translate(-340.076 -216.683)"/><path class="cls-2" d="M406.108,262.6l2.471-13.086h2.51l2.49,13.086H411.32l-.4-2.393h-2.336l-.386,2.393Zm2.761-4.149h1.757l-.869-5.251h-.02Z" transform="translate(-340.076 -216.683)"/><path class="cls-2" d="M416.531,254.377V262.6h-1.853V249.513h2.162l2.374,7.508v-7.508h1.834V262.6h-1.931Z" transform="translate(-340.076 -216.683)"/><path class="cls-2" d="M426.933,249.513h5.25v1.795h-3.05v3.744h2.182v1.776h-2.182v3.977h3.05V262.6h-5.25Z" transform="translate(-340.076 -216.683)"/><path class="cls-2" d="M435.348,254.377V262.6h-1.854V249.513h2.162l2.374,7.508v-7.508h1.834V262.6h-1.93Z" transform="translate(-340.076 -216.683)"/><path class="cls-2" d="M441.291,249.513h5.25v1.795h-3.05v3.744h2.182v1.776h-2.182v3.977h3.05V262.6h-5.25Z" transform="translate(-340.076 -216.683)"/><path class="cls-2" d="M450.073,256.6v6h-2.2V249.513h3.2c2.22,0,3.03,1.1,3.03,2.934v1.679c0,1.409-.5,2.239-1.755,2.528l2.1,5.945h-2.316Zm0-5.289v4.072h.735a.952.952,0,0,0,1.08-1.08v-1.931c0-.714-.328-1.061-1.08-1.061Z" transform="translate(-340.076 -216.683)"/><path class="cls-2" d="M458.816,255.612h3.127V262.6H460.36v-1.428a1.981,1.981,0,0,1-2.1,1.583c-1.892,0-2.761-1.506-2.761-3.532v-6.331c0-2.047.985-3.533,3.3-3.533,2.433,0,3.146,1.351,3.146,3.282V253.8h-2.007v-1.332c0-.811-.309-1.274-1.1-1.274s-1.14.559-1.14,1.351v7.026c0,.791.328,1.351,1.081,1.351.715,0,1.081-.405,1.081-1.255v-2.316h-1.042Z" transform="translate(-340.076 -216.683)"/><path class="cls-2" d="M467.636,257.62V262.6h-2.2V257.62l-2.452-8.107h2.3l1.332,4.96h.019l1.332-4.96h2.1Z" transform="translate(-340.076 -216.683)"/><path class="cls-2" d="M420.748,359.079a1.973,1.973,0,0,0,1.935-1.813V346.939a1.943,1.943,0,0,0-3.879,0v10.327a1.979,1.979,0,0,0,1.944,1.813" transform="translate(-340.076 -216.683)"/><path class="cls-2" d="M420.531,294.651a23.587,23.587,0,1,0,23.583,23.585,23.585,23.585,0,0,0-23.583-23.585m-1.746,9.318a1.755,1.755,0,0,1,3.5,0v8.1a1.756,1.756,0,0,1-3.5,0Zm1.75,26.353a12.269,12.269,0,0,1-3.645-23.983v4.567a8.029,8.029,0,1,0,7.27-.011v-4.562a12.268,12.268,0,0,1-3.625,23.989" transform="translate(-340.076 -216.683)"/><path class="cls-2" d="M393.458,318.03a1.972,1.972,0,0,0-1.813-1.935H381.317a1.942,1.942,0,0,0,0,3.878h10.328a1.977,1.977,0,0,0,1.813-1.943" transform="translate(-340.076 -216.683)"/><path class="cls-2" d="M461.583,318.03a1.972,1.972,0,0,0-1.813-1.935H449.442a1.942,1.942,0,0,0,0,3.878H459.77a1.977,1.977,0,0,0,1.813-1.943" transform="translate(-340.076 -216.683)"/><path class="cls-2" d="M420.541,290.955a1.972,1.972,0,0,0,1.934-1.812V278.814a1.942,1.942,0,0,0-3.878,0v10.329a1.979,1.979,0,0,0,1.944,1.812" transform="translate(-340.076 -216.683)"/><path class="cls-2" d="M397.036,304.58a1.97,1.97,0,0,0-.611-2.58l-8.964-5.13a1.942,1.942,0,0,0-1.926,3.366l8.964,5.13a1.975,1.975,0,0,0,2.537-.786" transform="translate(-340.076 -216.683)"/><path class="cls-2" d="M456.163,338.419a1.974,1.974,0,0,0-.611-2.58l-8.964-5.13a1.943,1.943,0,0,0-1.927,3.366l8.964,5.13a1.977,1.977,0,0,0,2.538-.786" transform="translate(-340.076 -216.683)"/><path class="cls-2" d="M433.991,294.534a1.973,1.973,0,0,0,2.579-.611l5.13-8.964a1.943,1.943,0,0,0-3.366-1.927L433.2,292a1.976,1.976,0,0,0,.787,2.539" transform="translate(-340.076 -216.683)"/><path class="cls-2" d="M400.152,353.66a1.972,1.972,0,0,0,2.579-.612l5.13-8.963a1.943,1.943,0,0,0-3.366-1.928l-5.13,8.964a1.979,1.979,0,0,0,.787,2.539" transform="translate(-340.076 -216.683)"/><path class="cls-2" d="M407.041,294.557a1.971,1.971,0,0,0,.774-2.536l-5.148-8.954A1.943,1.943,0,0,0,399.306,285l5.147,8.952a1.977,1.977,0,0,0,2.588.6" transform="translate(-340.076 -216.683)"/><path class="cls-2" d="M441,353.614a1.972,1.972,0,0,0,.775-2.535l-5.148-8.954a1.942,1.942,0,0,0-3.361,1.934l5.147,8.954a1.977,1.977,0,0,0,2.587.6" transform="translate(-340.076 -216.683)"/><path class="cls-2" d="M444.014,304.538a1.972,1.972,0,0,0,2.535.774l8.952-5.148a1.942,1.942,0,0,0-1.932-3.362l-8.953,5.148a1.976,1.976,0,0,0-.6,2.588" transform="translate(-340.076 -216.683)"/><path class="cls-2" d="M384.957,338.5a1.97,1.97,0,0,0,2.535.773l8.952-5.148a1.942,1.942,0,0,0-1.931-3.362l-8.954,5.148a1.979,1.979,0,0,0-.6,2.589" transform="translate(-340.076 -216.683)"/></svg>