<svg id="Layer_1" data-name="Layer 1" xmlns="http://www.w3.org/2000/svg" viewBox="0 0 160.918 160.928"><defs><style>.cls-1{fill:#c5c2c2;}.cls-2{fill:#fff;}</style></defs><rect class="cls-1" width="160.918" height="160.928"/><path class="cls-2" d="M241.567,386.528c5.789,0,8.039-3.16,8.039-8.185v-4.786c0-5.312-2.106-7.992-6.032-7.992a4.669,4.669,0,0,0-4.5,2.633h-.047v-6.987c0-1.964.623-3.351,2.584-3.351s2.538,1.151,2.538,3.16v2.153h4.976V361.45c0-4.787-1.58-8.135-7.609-8.135-5.742,0-7.9,3.684-7.9,8.756v15.793c0,5.027,2.2,8.664,7.946,8.664m-2.538-13.641c.1-1.818.862-2.966,2.584-2.966,1.866,0,2.584,1.148,2.584,3.255v5.647c0,2.057-.763,3.254-2.63,3.254-1.821,0-2.538-1.244-2.538-3.254Z" transform="translate(-217.219 -340.167)"/><path class="cls-2" d="M327.391,405.24a.7.7,0,0,0-.528-.231H268.482a.661.661,0,0,0-.671.783l9.809,59.322a.685.685,0,0,0,.673.572h12.038l.823,9.662-5.065.006,11.787,11.787,11.815-11.814-5.064.006.822-9.647H317.7a.675.675,0,0,0,.67-.582l9.177-59.312A.7.7,0,0,0,327.391,405.24Zm-22.563,47.492a11.213,11.213,0,0,1-13.941,0c-4.374-4.37-2.813-9.807-1.291-12.616.941-1.759,7.661-11.851,8.239-12.71v-.068s.01.014.026.033l.024-.033v.068c.562.859,7.293,10.951,8.233,12.71C307.642,442.925,309.2,448.362,304.828,452.732Zm18.519-35.011a7.246,7.246,0,0,0-5.513.334c-7.244,2.936-12.174,3.992-19.793,1.607-4.8-1.5-9.287-4.648-14.594-2.732-3.521,1.266-6.8,2.475-10.784,2.444l-2.3-11.79H325Z" transform="translate(-217.219 -340.167)"/><path class="cls-2" d="M262.99,386.078l2.483-13.149h2.521l2.5,13.149h-2.269l-.408-2.4h-2.346l-.388,2.4Zm2.774-4.17h1.764l-.873-5.275h-.018Z" transform="translate(-217.219 -340.167)"/><path class="cls-2" d="M273.272,377.816v8.262h-1.863V372.929h2.173l2.385,7.544v-7.544h1.843v13.149h-1.94Z" transform="translate(-217.219 -340.167)"/><path class="cls-2" d="M286.016,376.459v6.089c0,2.018-.834,3.53-3.2,3.53H279.4V372.929h3.415C285.182,372.929,286.016,374.422,286.016,376.459Zm-3.472,7.815c.911,0,1.261-.542,1.261-1.337v-6.886a1.152,1.152,0,0,0-1.261-1.318h-.932v9.541Z" transform="translate(-217.219 -340.167)"/><path class="cls-2" d="M290.944,383.247v-1.765H293v1.8c0,.738.33,1.164,1.087,1.164.7,0,1.008-.466,1.008-1.164v-.5a2.377,2.377,0,0,0-.989-1.861l-1.3-1.3c-1.261-1.241-1.843-2-1.843-3.51v-.446c0-1.629.95-2.89,3.1-2.89,2.211,0,3.083,1.086,3.083,2.987v1.066h-2.016v-1.144c0-.756-.35-1.125-1.047-1.125a.971.971,0,0,0-1.048,1.086v.272c0,.737.407,1.163,1.048,1.784l1.415,1.4c1.2,1.222,1.784,1.959,1.784,3.414v.639c0,1.8-.97,3.084-3.219,3.084S290.944,384.973,290.944,383.247Z" transform="translate(-217.219 -340.167)"/><path class="cls-2" d="M297.929,386.078l2.482-13.149h2.522l2.5,13.149h-2.27l-.407-2.4h-2.347l-.387,2.4Zm2.773-4.17h1.765l-.873-5.275h-.019Z" transform="translate(-217.219 -340.167)"/><path class="cls-2" d="M308.365,377.816v8.262H306.5V372.929h2.173l2.385,7.544v-7.544H312.9v13.149h-1.939Z" transform="translate(-217.219 -340.167)"/><path class="cls-2" d="M314.67,372.929h2.211v13.149H314.67Z" transform="translate(-217.219 -340.167)"/><path class="cls-2" d="M317.949,372.929h5.877v1.8H322v11.345h-2.23V374.733h-1.824Z" transform="translate(-217.219 -340.167)"/><path class="cls-2" d="M323.3,386.078l2.482-13.149h2.522l2.5,13.149h-2.27l-.407-2.4h-2.347l-.387,2.4Zm2.773-4.17h1.765l-.873-5.275h-.019Z" transform="translate(-217.219 -340.167)"/><path class="cls-2" d="M330.112,372.929h5.877v1.8h-1.823v11.345h-2.23V374.733h-1.824Z" transform="translate(-217.219 -340.167)"/><path class="cls-2" d="M337.153,372.929h2.211v13.149h-2.211Z" transform="translate(-217.219 -340.167)"/><path class="cls-2" d="M340.82,382.684v-6.361c0-2.056,1.009-3.549,3.336-3.549,2.347,0,3.356,1.493,3.356,3.549v6.361c0,2.037-1.009,3.549-3.356,3.549C341.829,386.233,340.82,384.721,340.82,382.684Zm4.481.349v-7.059c0-.8-.349-1.358-1.145-1.358-.775,0-1.125.563-1.125,1.358v7.059c0,.8.35,1.358,1.125,1.358C344.952,384.391,345.3,383.829,345.3,383.033Z" transform="translate(-217.219 -340.167)"/><path class="cls-2" d="M350.83,377.816v8.262h-1.862V372.929h2.173l2.384,7.544v-7.544h1.843v13.149h-1.939Z" transform="translate(-217.219 -340.167)"/><path class="cls-2" d="M263.235,363.288v-6.362c0-2.055.97-3.548,3.3-3.548,2.444,0,3.122,1.357,3.122,3.3v1.552h-2.016V356.5c0-.815-.272-1.28-1.068-1.28s-1.125.562-1.125,1.358v7.059c0,.8.33,1.357,1.125,1.357s1.068-.5,1.068-1.28V361.29h2.016v2.269c0,1.882-.775,3.278-3.122,3.278C264.205,366.837,263.235,365.324,263.235,363.288Z" transform="translate(-217.219 -340.167)"/><path class="cls-2" d="M271.048,353.533h2.211v11.345H275.9v1.8h-4.849Z" transform="translate(-217.219 -340.167)"/><path class="cls-2" d="M277.1,353.533h5.275v1.8h-3.064V359.1H281.5v1.784h-2.192v4h3.064v1.8H277.1Z" transform="translate(-217.219 -340.167)"/><path class="cls-2" d="M283.4,366.682l2.483-13.149h2.521l2.5,13.149h-2.269l-.408-2.405h-2.346l-.388,2.405Zm2.774-4.17h1.764l-.873-5.275h-.018Z" transform="translate(-217.219 -340.167)"/><path class="cls-2" d="M293.881,358.42v8.262h-1.862V353.533h2.172l2.385,7.544v-7.544h1.843v13.149H296.48Z" transform="translate(-217.219 -340.167)"/><path class="cls-2" d="M307.887,358.556l-1.241,8.126H304.57l-1.764-13.149h2.133l1.028,8.339h.019l1.106-8.339h1.8l1.221,8.339h.02l1.008-8.339h1.862L311.3,366.682h-2.1l-1.3-8.126Z" transform="translate(-217.219 -340.167)"/><path class="cls-2" d="M312.932,366.682l2.482-13.149h2.522l2.5,13.149h-2.27l-.407-2.405h-2.347l-.388,2.405Zm2.773-4.17h1.765l-.873-5.275h-.019Z" transform="translate(-217.219 -340.167)"/><path class="cls-2" d="M320.167,353.533h5.877v1.8h-1.823v11.345H321.99V355.337h-1.823Z" transform="translate(-217.219 -340.167)"/><path class="cls-2" d="M327.112,353.533h5.276v1.8h-3.065V359.1h2.193v1.784h-2.193v4h3.065v1.8h-5.276Z" transform="translate(-217.219 -340.167)"/><path class="cls-2" d="M335.8,360.65v6.032h-2.211V353.533h3.22c2.23,0,3.045,1.1,3.045,2.948v1.687c0,1.416-.5,2.25-1.765,2.541l2.114,5.973h-2.328Zm0-5.313v4.091h.737a.957.957,0,0,0,1.086-1.086V356.4c0-.718-.329-1.066-1.086-1.066Z" transform="translate(-217.219 -340.167)"/></svg>