<svg id="Layer_1" data-name="Layer 1" xmlns="http://www.w3.org/2000/svg" viewBox="0 0 160.922 160.93"><defs><style>.cls-1{fill:#00558a;}.cls-2{fill:#fff;}</style></defs><rect class="cls-1" width="160.922" height="160.93"/><polygon class="cls-2" points="12.381 19.386 12.381 25.08 12.43 25.08 16.258 21.108 16.307 21.108 16.307 45.945 21.762 45.945 21.762 13.498 17.408 13.498 12.381 19.386"/><path class="cls-2" d="M380.933,254.828v-4.786c0-5.312-2.105-7.993-6.029-7.993a4.66,4.66,0,0,0-4.5,2.632h-.047v-6.987c0-1.963.619-3.35,2.584-3.35s2.535,1.148,2.535,3.157v2.157h4.977v-1.725c0-4.786-1.579-8.134-7.61-8.134-5.742,0-7.9,3.684-7.9,8.757v15.792c0,5.025,2.2,8.663,7.945,8.663,5.789,0,8.039-3.159,8.039-8.183m-5.408.478c0,2.057-.766,3.253-2.631,3.253-1.818,0-2.535-1.243-2.535-3.253v-5.934c.094-1.818.859-2.968,2.584-2.968,1.863,0,2.582,1.15,2.582,3.255Z" transform="translate(-340.076 -216.681)"/><path class="cls-2" d="M391.433,230.164h3.278c2.23,0,3.045,1.105,3.045,2.948v2.773c0,1.842-.815,2.967-3.045,2.967h-1.067v4.461h-2.211Zm2.211,1.8v5.177h.815a.949.949,0,0,0,1.086-1.085v-3.026c0-.718-.33-1.066-1.086-1.066Z" transform="translate(-340.076 -216.681)"/><path class="cls-2" d="M398.824,230.164H404.1v1.8h-3.065v3.762h2.192v1.784h-2.192v3.995H404.1v1.8h-5.276Z" transform="translate(-340.076 -216.681)"/><path class="cls-2" d="M405.052,243.313l2.482-13.149h2.522l2.5,13.149h-2.27l-.407-2.405h-2.347l-.388,2.405Zm2.773-4.17h1.765l-.873-5.275H408.7Z" transform="translate(-340.076 -216.681)"/><path class="cls-2" d="M413.393,239.919v-6.361c0-2.056.969-3.549,3.3-3.549,2.444,0,3.122,1.357,3.122,3.3v1.551H417.8v-1.726c0-.815-.272-1.28-1.068-1.28s-1.125.563-1.125,1.358v7.059c0,.795.331,1.357,1.125,1.357s1.068-.5,1.068-1.279v-2.425h2.016v2.269c0,1.882-.775,3.278-3.122,3.278C414.362,243.468,413.393,241.955,413.393,239.919Z" transform="translate(-340.076 -216.681)"/><path class="cls-2" d="M421.114,230.164h5.276v1.8h-3.065v3.762h2.193v1.784h-2.193v3.995h3.065v1.8h-5.276Z" transform="translate(-340.076 -216.681)"/><path class="cls-2" d="M430.037,241.373l-1.125,2.968h-1.241l.271-3.142h2.095Z" transform="translate(-340.076 -216.681)"/><path class="cls-2" d="M439.6,230.164v10.162c0,1.9-.834,3.142-3.045,3.142-2.288,0-2.91-1.261-2.91-2.929v-2.618h2.095v2.658c0,.659.233,1.046.815,1.046.6,0,.834-.387.834-1.066v-10.4Z" transform="translate(-340.076 -216.681)"/><path class="cls-2" d="M447.457,230.164v9.949c0,2.036-.873,3.355-3.122,3.355-2.328,0-3.3-1.319-3.3-3.355v-9.949h2.211v10.162c0,.776.311,1.3,1.087,1.3s1.086-.523,1.086-1.3V230.164Z" transform="translate(-340.076 -216.681)"/><path class="cls-2" d="M448.8,240.481v-1.764h2.055v1.8c0,.737.331,1.164,1.087,1.164.7,0,1.008-.466,1.008-1.164v-.5a2.376,2.376,0,0,0-.989-1.862l-1.3-1.3c-1.261-1.241-1.843-2-1.843-3.51V232.9c0-1.629.951-2.889,3.1-2.889,2.211,0,3.083,1.086,3.083,2.987v1.066h-2.017v-1.144c0-.756-.349-1.125-1.047-1.125a.97.97,0,0,0-1.047,1.086v.271c0,.738.407,1.164,1.047,1.785l1.415,1.4c1.2,1.222,1.785,1.959,1.785,3.414v.639c0,1.8-.97,3.084-3.219,3.084S448.8,242.207,448.8,240.481Z" transform="translate(-340.076 -216.681)"/><path class="cls-2" d="M456.247,230.164h5.877v1.8H460.3v11.345H458.07V231.968h-1.823Z" transform="translate(-340.076 -216.681)"/><path class="cls-2" d="M463.347,230.164h2.211v13.149h-2.211Z" transform="translate(-340.076 -216.681)"/><path class="cls-2" d="M467.032,239.919v-6.361c0-2.056.97-3.549,3.3-3.549,2.443,0,3.122,1.357,3.122,3.3v1.551h-2.017v-1.726c0-.815-.271-1.28-1.067-1.28s-1.125.563-1.125,1.358v7.059c0,.795.33,1.357,1.125,1.357s1.067-.5,1.067-1.279v-2.425h2.017v2.269c0,1.882-.775,3.278-3.122,3.278C468,243.468,467.032,241.955,467.032,239.919Z" transform="translate(-340.076 -216.681)"/><path class="cls-2" d="M474.851,230.164h5.275v1.8h-3.065v3.762h2.193v1.784h-2.193v3.995h3.065v1.8h-5.275Z" transform="translate(-340.076 -216.681)"/><path class="cls-2" d="M391.084,263.024l2.482-13.149h2.522l2.5,13.149h-2.27l-.407-2.4h-2.347l-.387,2.4Zm2.773-4.17h1.765l-.873-5.274h-.019Z" transform="translate(-340.076 -216.681)"/><path class="cls-2" d="M401.559,254.763v8.261H399.7V249.875h2.173l2.385,7.544v-7.544H406.1v13.149h-1.94Z" transform="translate(-340.076 -216.681)"/><path class="cls-2" d="M414.168,253.405v6.09c0,2.017-.834,3.529-3.2,3.529h-3.414V249.875h3.414C413.334,249.875,414.168,251.369,414.168,253.405Zm-3.472,7.816c.911,0,1.261-.543,1.261-1.338V253a1.152,1.152,0,0,0-1.261-1.318h-.931v9.542Z" transform="translate(-340.076 -216.681)"/><path class="cls-2" d="M417.738,260.193v-1.765h2.056v1.8c0,.738.33,1.164,1.087,1.164.7,0,1.008-.465,1.008-1.164v-.5a2.376,2.376,0,0,0-.99-1.861l-1.3-1.3c-1.261-1.241-1.843-2-1.843-3.51v-.446c0-1.629.95-2.89,3.1-2.89,2.211,0,3.083,1.086,3.083,2.987v1.066h-2.016v-1.144c0-.756-.35-1.125-1.047-1.125a.971.971,0,0,0-1.048,1.086v.272c0,.737.407,1.163,1.048,1.784l1.415,1.4c1.2,1.223,1.784,1.959,1.784,3.414v.64c0,1.8-.97,3.084-3.219,3.084S417.738,261.919,417.738,260.193Z" transform="translate(-340.076 -216.681)"/><path class="cls-2" d="M424.9,249.875h5.877v1.8h-1.823v11.345h-2.23V251.679H424.9Z" transform="translate(-340.076 -216.681)"/><path class="cls-2" d="M434.208,256.993v6.031H432V249.875h3.22c2.23,0,3.045,1.106,3.045,2.948v1.687c0,1.416-.5,2.25-1.765,2.541l2.114,5.973h-2.328Zm0-5.314v4.092h.737a.957.957,0,0,0,1.086-1.086v-1.939c0-.718-.329-1.067-1.086-1.067Z" transform="translate(-340.076 -216.681)"/><path class="cls-2" d="M439.66,259.63v-6.361c0-2.056,1.009-3.549,3.336-3.549,2.347,0,3.356,1.493,3.356,3.549v6.361c0,2.037-1.009,3.55-3.356,3.55C440.669,263.18,439.66,261.667,439.66,259.63Zm4.481.349V252.92c0-.795-.349-1.358-1.145-1.358-.775,0-1.125.563-1.125,1.358v7.059c0,.8.35,1.358,1.125,1.358C443.792,261.337,444.141,260.775,444.141,259.979Z" transform="translate(-340.076 -216.681)"/><path class="cls-2" d="M449.67,254.763v8.261h-1.862V249.875h2.172l2.385,7.544v-7.544h1.843v13.149h-1.939Z" transform="translate(-340.076 -216.681)"/><path class="cls-2" d="M459,256h3.143v7.02h-1.591v-1.435a1.993,1.993,0,0,1-2.115,1.591c-1.9,0-2.773-1.513-2.773-3.55v-6.361c0-2.056.989-3.549,3.316-3.549,2.445,0,3.163,1.358,3.163,3.3v1.164h-2.018v-1.338c0-.815-.311-1.281-1.106-1.281s-1.144.563-1.144,1.358v7.059c0,.8.33,1.358,1.087,1.358.717,0,1.086-.407,1.086-1.26v-2.328H459Z" transform="translate(-340.076 -216.681)"/><path class="cls-2" d="M391.432,268.714h2.211v13.149h-2.211Z" transform="translate(-340.076 -216.681)"/><path class="cls-2" d="M397.077,273.6v8.262h-1.862V268.714h2.173l2.384,7.544v-7.544h1.843v13.149h-1.939Z" transform="translate(-340.076 -216.681)"/><path class="cls-2" d="M402.955,279.032v-1.765h2.056v1.8c0,.738.33,1.164,1.087,1.164.7,0,1.007-.466,1.007-1.164v-.5a2.374,2.374,0,0,0-.989-1.861l-1.3-1.3c-1.26-1.241-1.842-2-1.842-3.51v-.446c0-1.629.95-2.89,3.1-2.89,2.211,0,3.083,1.086,3.083,2.987v1.066h-2.017v-1.144c0-.756-.349-1.125-1.046-1.125a.971.971,0,0,0-1.048,1.086v.272c0,.737.407,1.163,1.048,1.784l1.415,1.4c1.2,1.222,1.784,1.959,1.784,3.414v.64c0,1.8-.97,3.083-3.219,3.083S402.955,280.758,402.955,279.032Z" transform="translate(-340.076 -216.681)"/><path class="cls-2" d="M410.113,268.714h5.877v1.8h-1.823v11.345h-2.231V270.518h-1.823Z" transform="translate(-340.076 -216.681)"/><path class="cls-2" d="M417.214,268.714h2.211v13.149h-2.211Z" transform="translate(-340.076 -216.681)"/><path class="cls-2" d="M420.647,268.714h5.877v1.8H424.7v11.345h-2.23V270.518h-1.824Z" transform="translate(-340.076 -216.681)"/><path class="cls-2" d="M434.167,268.714v9.949c0,2.037-.873,3.355-3.122,3.355-2.328,0-3.3-1.318-3.3-3.355v-9.949h2.211v10.162c0,.776.311,1.3,1.087,1.3s1.086-.524,1.086-1.3V268.714Z" transform="translate(-340.076 -216.681)"/><path class="cls-2" d="M435.372,268.714h5.877v1.8h-1.823v11.345H437.2V270.518h-1.823Z" transform="translate(-340.076 -216.681)"/><path class="cls-2" d="M442.472,268.714h2.211v13.149h-2.211Z" transform="translate(-340.076 -216.681)"/><path class="cls-2" d="M446.157,278.469v-6.361c0-2.056,1.009-3.549,3.336-3.549,2.347,0,3.356,1.493,3.356,3.549v6.361c0,2.037-1.009,3.549-3.356,3.549C447.166,282.018,446.157,280.506,446.157,278.469Zm4.481.349v-7.059c0-.8-.349-1.358-1.145-1.358-.775,0-1.125.563-1.125,1.358v7.059c0,.8.35,1.358,1.125,1.358C450.289,280.176,450.638,279.614,450.638,278.818Z" transform="translate(-340.076 -216.681)"/><path class="cls-2" d="M456.168,273.6v8.262h-1.862V268.714h2.172l2.385,7.544v-7.544h1.843v13.149h-1.939Z" transform="translate(-340.076 -216.681)"/><path class="cls-2" d="M462.046,279.032v-1.765H464.1v1.8c0,.738.33,1.164,1.086,1.164.7,0,1.008-.466,1.008-1.164v-.5a2.374,2.374,0,0,0-.989-1.861l-1.3-1.3c-1.261-1.241-1.843-2-1.843-3.51v-.446c0-1.629.951-2.89,3.1-2.89,2.211,0,3.083,1.086,3.083,2.987v1.066h-2.017v-1.144c0-.756-.349-1.125-1.047-1.125a.97.97,0,0,0-1.047,1.086v.272c0,.737.407,1.163,1.047,1.784l1.415,1.4c1.2,1.222,1.785,1.959,1.785,3.414v.64c0,1.8-.97,3.083-3.219,3.083S462.046,280.758,462.046,279.032Z" transform="translate(-340.076 -216.681)"/><path class="cls-2" d="M444.058,295.81a3.937,3.937,0,0,0,1.434,6.345,3.938,3.938,0,0,0-1.434-6.345" transform="translate(-340.076 -216.681)"/><path class="cls-2" d="M441.851,306.08a3.936,3.936,0,0,0-1.433-6.345,3.934,3.934,0,0,0,1.433,6.345" transform="translate(-340.076 -216.681)"/><path class="cls-2" d="M447.417,304.154a4.452,4.452,0,0,0,3.058,1.3,4.641,4.641,0,0,0,2.835-1.82,4.447,4.447,0,0,0-3.057-1.3,4.649,4.649,0,0,0-2.836,1.821" transform="translate(-340.076 -216.681)"/><path class="cls-2" d="M449.759,296.45a5.385,5.385,0,0,0-1.137,3.724,5.147,5.147,0,0,0,3.663-1.141,5.379,5.379,0,0,0,1.137-3.722,5.15,5.15,0,0,0-3.663,1.139" transform="translate(-340.076 -216.681)"/><path class="cls-2" d="M446.836,309.5a4.651,4.651,0,0,0,3.149-1.2,4.456,4.456,0,0,0-2.727-1.895,4.653,4.653,0,0,0-3.149,1.2,4.456,4.456,0,0,0,2.727,1.895" transform="translate(-340.076 -216.681)"/><path class="cls-2" d="M448.286,337.689H436.157a1.716,1.716,0,1,0,0,3.432h12.129a1.716,1.716,0,0,0,0-3.432" transform="translate(-340.076 -216.681)"/><path class="cls-2" d="M448.286,356.6H436.157a1.716,1.716,0,1,0,0,3.432h12.129a1.716,1.716,0,0,0,0-3.432" transform="translate(-340.076 -216.681)"/><path class="cls-2" d="M393.739,333.524a7.565,7.565,0,0,0-.842-.217s.311.1.842.217" transform="translate(-340.076 -216.681)"/><path class="cls-2" d="M447.839,342.319H436.6a.978.978,0,0,0-.977.976v3.4l-7.337.806-10.718-.245v-6.547a29.475,29.475,0,0,0,4.265-.865c10.317-2.912,12.568-11.442,12.343-17.344-.225-6.011,1.7-8.345,4.463-9.383a12.476,12.476,0,0,1,2.291-.607,18.376,18.376,0,0,0,.99,5.238c.245-.013.489-.034.731-.061a17.418,17.418,0,0,1-1.011-5.28,12.8,12.8,0,0,1,2.447-.073,15.585,15.585,0,0,1-2.328-1.659c.463-2.846,2.159-4.594,3.906-6.381a21.006,21.006,0,0,0,2.734-3.21l-.609-.393a20.2,20.2,0,0,1-2.645,3.1c-1.7,1.743-3.423,3.525-4.006,6.35a22.875,22.875,0,0,1-1.766-1.778c-2.544-2.853-5.819-.758-10.49,3.591s-10.549,4.5-16.288-1.376c-7.571-7.751-14.176-7.707-18.705-7.267,3.1,1.319,4.182,4.215,5.75,11.574,1.644,7.721,5.789,11.214,11.459,11.7-3.154,1.114-3.31,2.894-7.535,5.812-3.3,2.277-7.942,1.557-9.825,1.13,3.455,1.077,7.548,4.7,11.209,5.962a27.083,27.083,0,0,0,6.682,1.37v6.268l-19.2-.439v4.373l35.858-.821,7.337.808v3.4a.979.979,0,0,0,.977.978h11.239a.98.98,0,0,0,.978-.978V343.3A.978.978,0,0,0,447.839,342.319ZM413.4,340.948c.8.013,1.6-.011,2.4-.065v6.336l-2.4-.055Z" transform="translate(-340.076 -216.681)"/><path class="cls-2" d="M391.378,350.335a1.567,1.567,0,0,1-1.436,1.67h-.864a1.568,1.568,0,0,1-1.436-1.67v-3.022a1.567,1.567,0,0,1,1.436-1.67h.864a1.565,1.565,0,0,1,1.436,1.67Z" transform="translate(-340.076 -216.681)"/></svg>