<svg id="Layer_1" data-name="Layer 1" xmlns="http://www.w3.org/2000/svg" viewBox="0 0 160.922 160.927"><defs><style>.cls-1{fill:#e01a83;}.cls-2{fill:#fff;}</style></defs><rect class="cls-1" width="160.922" height="160.927"/><polygon class="cls-2" points="15.525 21.085 15.525 45.948 20.986 45.948 20.986 13.468 16.626 13.468 11.598 19.361 11.598 25.063 11.644 25.063 15.476 21.085 15.525 21.085"/><path class="cls-2" d="M380.99,254.249V238.534c0-5.078-2.538-8.766-8.1-8.766-5.508,0-8.05,3.688-8.05,8.766v15.715c0,5.028,2.542,8.765,8.05,8.765,5.558,0,8.1-3.737,8.1-8.765m-10.683.862V237.672c0-1.964.718-3.353,2.587-3.353,1.916,0,2.634,1.389,2.634,3.353v17.439c0,1.965-.718,3.351-2.634,3.351-1.869,0-2.587-1.386-2.587-3.351" transform="translate(-340.076 -216.683)"/><path class="cls-2" d="M393.648,237.255v6.032h-2.211V230.138h3.22c2.23,0,3.045,1.106,3.045,2.948v1.687c0,1.416-.5,2.25-1.765,2.541l2.114,5.973h-2.328Zm0-5.313v4.092h.737a.957.957,0,0,0,1.086-1.086v-1.94c0-.718-.329-1.066-1.086-1.066Z" transform="translate(-340.076 -216.683)"/><path class="cls-2" d="M399.1,230.138h5.275v1.8h-3.064V235.7H403.5v1.784h-2.192v4h3.064v1.8H399.1Z" transform="translate(-340.076 -216.683)"/><path class="cls-2" d="M411.922,233.668v6.089c0,2.017-.834,3.53-3.2,3.53h-3.414V230.138h3.414C411.088,230.138,411.922,231.631,411.922,233.668Zm-3.471,7.815c.911,0,1.26-.543,1.26-1.338V233.26a1.152,1.152,0,0,0-1.26-1.318h-.932v9.541Z" transform="translate(-340.076 -216.683)"/><path class="cls-2" d="M419.8,230.138v9.949c0,2.036-.873,3.355-3.122,3.355-2.328,0-3.3-1.319-3.3-3.355v-9.949h2.211V240.3c0,.776.311,1.3,1.087,1.3s1.086-.523,1.086-1.3V230.138Z" transform="translate(-340.076 -216.683)"/><path class="cls-2" d="M421.254,239.893v-6.361c0-2.056.97-3.549,3.3-3.549,2.444,0,3.122,1.357,3.122,3.3v1.551h-2.016v-1.726c0-.815-.272-1.28-1.068-1.28s-1.125.563-1.125,1.358v7.059c0,.8.33,1.357,1.125,1.357s1.068-.5,1.068-1.279V237.9h2.016v2.269c0,1.882-.775,3.278-3.122,3.278C422.224,243.442,421.254,241.93,421.254,239.893Z" transform="translate(-340.076 -216.683)"/><path class="cls-2" d="M429.073,230.138h5.275v1.8h-3.064V235.7h2.192v1.784h-2.192v4h3.064v1.8h-5.275Z" transform="translate(-340.076 -216.683)"/><path class="cls-2" d="M442.34,233.668v6.089c0,2.017-.834,3.53-3.2,3.53h-3.414V230.138h3.414C441.506,230.138,442.34,231.631,442.34,233.668Zm-3.471,7.815c.911,0,1.26-.543,1.26-1.338V233.26a1.152,1.152,0,0,0-1.26-1.318h-.932v9.541Z" transform="translate(-340.076 -216.683)"/><path class="cls-2" d="M391.431,249.258h2.211v13.149h-2.211Z" transform="translate(-340.076 -216.683)"/><path class="cls-2" d="M396.941,254.145v8.262h-1.862V249.258h2.172l2.385,7.544v-7.544h1.843v13.149H399.54Z" transform="translate(-340.076 -216.683)"/><path class="cls-2" d="M402.741,249.258h5.275v1.8h-3.064v3.762h2.192v1.784h-2.192v4h3.064v1.8h-5.275Z" transform="translate(-340.076 -216.683)"/><path class="cls-2" d="M411.354,263.3v-.892c-1.765-.31-2.521-1.61-2.521-3.394v-6.361c0-2.056,1.008-3.549,3.335-3.549,2.347,0,3.356,1.493,3.356,3.549v6.361a3.159,3.159,0,0,1-1.629,3.1l1.629.311v1.648Zm1.959-3.821V252.3c0-.795-.349-1.358-1.145-1.358-.775,0-1.125.563-1.125,1.358v7.175c0,.776.35,1.358,1.125,1.358C412.964,260.836,413.313,260.254,413.313,259.478Z" transform="translate(-340.076 -216.683)"/><path class="cls-2" d="M423.187,249.258v9.949c0,2.037-.873,3.355-3.122,3.355-2.328,0-3.3-1.318-3.3-3.355v-9.949h2.211V259.42c0,.776.311,1.3,1.087,1.3s1.086-.524,1.086-1.3V249.258Z" transform="translate(-340.076 -216.683)"/><path class="cls-2" d="M423.887,262.407l2.483-13.149h2.521l2.5,13.149h-2.269l-.408-2.4H426.37l-.388,2.4Zm2.774-4.17h1.764l-.873-5.275h-.018Z" transform="translate(-340.076 -216.683)"/><path class="cls-2" d="M432.306,249.258h2.211V260.6h2.638v1.8h-4.849Z" transform="translate(-340.076 -216.683)"/><path class="cls-2" d="M438.145,249.258h2.211v13.149h-2.211Z" transform="translate(-340.076 -216.683)"/><path class="cls-2" d="M441.366,249.258h5.877v1.8h-1.824v11.345h-2.23V251.062h-1.823Z" transform="translate(-340.076 -216.683)"/><path class="cls-2" d="M448.272,249.258h2.211v13.149h-2.211Z" transform="translate(-340.076 -216.683)"/><path class="cls-2" d="M451.744,249.258h5.275v1.8h-3.064v3.762h2.192v1.784h-2.192v4h3.064v1.8h-5.275Z" transform="translate(-340.076 -216.683)"/><path class="cls-2" d="M457.894,259.576v-1.765h2.056v1.8c0,.737.33,1.164,1.087,1.164.7,0,1.007-.466,1.007-1.164v-.5a2.377,2.377,0,0,0-.989-1.862l-1.3-1.3c-1.26-1.241-1.842-2-1.842-3.51v-.446c0-1.629.95-2.89,3.1-2.89,2.211,0,3.083,1.086,3.083,2.987v1.066h-2.017v-1.144c0-.756-.349-1.125-1.046-1.125a.971.971,0,0,0-1.048,1.086v.272c0,.737.407,1.163,1.048,1.784l1.415,1.4c1.2,1.222,1.784,1.959,1.784,3.414v.639c0,1.8-.97,3.084-3.219,3.084S457.894,261.3,457.894,259.576Z" transform="translate(-340.076 -216.683)"/><polygon class="cls-2" points="53.072 87.906 37.934 103.044 53.072 118.182 53.072 87.906"/><polygon class="cls-2" points="107.85 118.183 122.988 103.045 107.85 87.907 107.85 118.183"/><polygon class="cls-2" points="95.622 75.722 80.485 60.583 65.346 75.722 95.622 75.722"/><polygon class="cls-2" points="65.346 130.423 80.483 145.562 95.622 130.423 65.346 130.423"/><rect class="cls-2" x="64.027" y="88.912" width="32.867" height="9.122"/><rect class="cls-2" x="64.027" y="107.686" width="32.867" height="9.537"/></svg>