<svg id="Layer_1" data-name="Layer 1" xmlns="http://www.w3.org/2000/svg" viewBox="0 0 160.922 160.927"><defs><style>.cls-1{fill:#8f1838;}.cls-2{fill:#fff;}</style></defs><rect class="cls-1" width="160.922" height="160.927"/><path class="cls-2" d="M371.343,254.677v-3.542c0-3.11-1.1-5.36-3.636-6.509,2.151-1.051,3.158-2.965,3.158-5.646v-1.341c0-5.073-2.632-7.8-7.657-7.8-4.976,0-7.562,2.727-7.562,7.8v1.341c0,2.633.959,4.595,3.062,5.646-2.536,1.149-3.589,3.4-3.589,6.509v3.542c0,4.928,2.346,8.375,8.089,8.375,5.79,0,8.135-3.447,8.135-8.375m-10.577-17.371c0-1.964.672-3.113,2.442-3.113,1.817,0,2.489,1.149,2.489,3.113v2.2c0,1.962-.672,3.113-2.489,3.113-1.77,0-2.442-1.151-2.442-3.113Zm5.121,17.945c0,1.963-.718,3.35-2.679,3.35-1.916,0-2.632-1.387-2.632-3.35v-5.265c0-1.961.716-3.349,2.632-3.349,1.961,0,2.679,1.388,2.679,3.349Z" transform="translate(-340.076 -216.683)"/><path class="cls-2" d="M451.782,295.855l-16.357,15.56a2.708,2.708,0,0,0-.933,2.337V357.36a.934.934,0,0,0,.933.931h16.9a.932.932,0,0,0,.931-.931V296.248c0-.515-.4-1.454-1.47-.393" transform="translate(-340.076 -216.683)"/><path class="cls-2" d="M404.661,316.127,388.3,331.684a2.715,2.715,0,0,0-.932,2.335V357.36a.934.934,0,0,0,.932.929h16.9a.931.931,0,0,0,.931-.929V316.517c0-.515-.406-1.457-1.469-.39" transform="translate(-340.076 -216.683)"/><path class="cls-2" d="M459.216,276.986a.463.463,0,0,0-.138-.354.5.5,0,0,0-.3-.133l-.09.006-.134.008-12.524,2.825-.228.023a.511.511,0,0,0-.244.128.48.48,0,0,0,0,.674l.142.142,2.86,2.859-28.38,28.38L407.07,298.435a.374.374,0,0,0-.533,0l-3.557,3.558,0,0-21.012,21.008a.382.382,0,0,0,0,.534l3.562,3.559a.371.371,0,0,0,.529,0l20.75-20.745,9.512,9.513a.235.235,0,0,0,.03.045l3.558,3.554a.374.374,0,0,0,.533,0l32.209-32.209,3,3a.47.47,0,0,0,.668,0,.463.463,0,0,0,.137-.309l0-.04,2.751-12.785Z" transform="translate(-340.076 -216.683)"/><path class="cls-2" d="M428.314,318.857l-7.914,7.98a.378.378,0,0,1-.51-.02l-7.17-7.308c-1.312-1.308-1.6-.247-1.6.266v37.583a.928.928,0,0,0,.925.931h16.9a.933.933,0,0,0,.929-.931V319.152c0-.513-.4-1.457-1.566-.295" transform="translate(-340.076 -216.683)"/><path class="cls-2" d="M389.94,233.683v6.09c0,2.017-.834,3.53-3.2,3.53h-3.414V230.154h3.414C389.106,230.154,389.94,231.647,389.94,233.683Zm-3.472,7.816c.911,0,1.261-.543,1.261-1.338v-6.885a1.153,1.153,0,0,0-1.261-1.319h-.931V241.5Z" transform="translate(-340.076 -216.683)"/><path class="cls-2" d="M391.337,230.154h5.276v1.8h-3.065v3.763h2.193V237.5h-2.193v4h3.065v1.8h-5.276Z" transform="translate(-340.076 -216.683)"/><path class="cls-2" d="M397.74,239.909v-6.362c0-2.055.97-3.549,3.3-3.549,2.443,0,3.122,1.358,3.122,3.3v1.552h-2.017v-1.726c0-.815-.271-1.28-1.067-1.28s-1.125.562-1.125,1.358v7.059c0,.795.33,1.357,1.125,1.357s1.067-.5,1.067-1.28v-2.424h2.017v2.269c0,1.881-.776,3.278-3.122,3.278C398.71,243.458,397.74,241.945,397.74,239.909Z" transform="translate(-340.076 -216.683)"/><path class="cls-2" d="M405.5,230.154h5.275v1.8H407.71v3.763H409.9V237.5H407.71v4h3.065v1.8H405.5Z" transform="translate(-340.076 -216.683)"/><path class="cls-2" d="M413.958,235.041V243.3H412.1V230.154h2.173l2.385,7.544v-7.544H418.5V243.3h-1.94Z" transform="translate(-340.076 -216.683)"/><path class="cls-2" d="M419.642,230.154h5.877v1.8H423.7V243.3h-2.231V231.957h-1.823Z" transform="translate(-340.076 -216.683)"/><path class="cls-2" d="M433.628,235.177l-1.241,8.126h-2.075l-1.765-13.149h2.133l1.029,8.339h.019l1.106-8.339h1.8l1.222,8.339h.019l1.008-8.339h1.863L437.042,243.3h-2.095l-1.3-8.126Z" transform="translate(-340.076 -216.683)"/><path class="cls-2" d="M439.507,239.909v-6.362c0-2.055,1.009-3.549,3.336-3.549,2.347,0,3.356,1.494,3.356,3.549v6.362c0,2.036-1.009,3.549-3.356,3.549C440.516,243.458,439.507,241.945,439.507,239.909Zm4.481.349V233.2c0-.8-.349-1.358-1.145-1.358-.775,0-1.125.562-1.125,1.358v7.059c0,.795.35,1.357,1.125,1.357C443.639,241.615,443.988,241.053,443.988,240.258Z" transform="translate(-340.076 -216.683)"/><path class="cls-2" d="M449.807,237.271V243.3H447.6V230.154h3.22c2.23,0,3.045,1.1,3.045,2.947v1.687c0,1.416-.5,2.25-1.765,2.541l2.114,5.974h-2.328Zm0-5.314v4.092h.737a.957.957,0,0,0,1.086-1.086v-1.939c0-.718-.329-1.067-1.086-1.067Z" transform="translate(-340.076 -216.683)"/><path class="cls-2" d="M457.413,236.9v6.4H455.2V230.154h2.211v5.779l2.4-5.779h2.172l-2.56,5.915,2.618,7.234h-2.327Z" transform="translate(-340.076 -216.683)"/><path class="cls-2" d="M465.134,243.3l2.483-13.149h2.521l2.5,13.149h-2.269l-.408-2.405h-2.346l-.388,2.405Zm2.774-4.17h1.764l-.873-5.275h-.018Z" transform="translate(-340.076 -216.683)"/><path class="cls-2" d="M475.241,235.041V243.3h-1.863V230.154h2.173l2.385,7.544v-7.544h1.843V243.3h-1.94Z" transform="translate(-340.076 -216.683)"/><path class="cls-2" d="M487.85,233.683v6.09c0,2.017-.834,3.53-3.2,3.53h-3.414V230.154h3.414C487.016,230.154,487.85,231.647,487.85,233.683Zm-3.472,7.816c.912,0,1.261-.543,1.261-1.338v-6.885a1.152,1.152,0,0,0-1.261-1.319h-.931V241.5Z" transform="translate(-340.076 -216.683)"/><path class="cls-2" d="M383.326,249.472H388.6v1.8h-3.064v3.762h2.192v1.785h-2.192v4H388.6v1.8h-5.275Z" transform="translate(-340.076 -216.683)"/><path class="cls-2" d="M389.573,259.226v-6.361c0-2.056.97-3.549,3.3-3.549,2.443,0,3.122,1.358,3.122,3.3v1.552h-2.017v-1.726c0-.815-.271-1.28-1.067-1.28s-1.125.562-1.125,1.357v7.06c0,.795.33,1.357,1.125,1.357s1.067-.5,1.067-1.28v-2.424h2.017V259.5c0,1.881-.776,3.278-3.122,3.278C390.543,262.776,389.573,261.263,389.573,259.226Z" transform="translate(-340.076 -216.683)"/><path class="cls-2" d="M397.2,259.226v-6.361c0-2.056,1.009-3.549,3.336-3.549,2.346,0,3.355,1.493,3.355,3.549v6.361c0,2.037-1.009,3.55-3.355,3.55C398.206,262.776,397.2,261.263,397.2,259.226Zm4.48.35v-7.06c0-.795-.348-1.357-1.144-1.357-.776,0-1.125.562-1.125,1.357v7.06c0,.795.349,1.357,1.125,1.357C401.329,260.933,401.677,260.371,401.677,259.576Z" transform="translate(-340.076 -216.683)"/><path class="cls-2" d="M407.012,254.359v8.261H405.15V249.472h2.173l2.385,7.544v-7.544h1.842V262.62h-1.939Z" transform="translate(-340.076 -216.683)"/><path class="cls-2" d="M412.813,259.226v-6.361c0-2.056,1.009-3.549,3.336-3.549,2.347,0,3.355,1.493,3.355,3.549v6.361c0,2.037-1.008,3.55-3.355,3.55C413.822,262.776,412.813,261.263,412.813,259.226Zm4.481.35v-7.06c0-.795-.349-1.357-1.145-1.357-.775,0-1.125.562-1.125,1.357v7.06c0,.795.35,1.357,1.125,1.357C416.945,260.933,417.294,260.371,417.294,259.576Z" transform="translate(-340.076 -216.683)"/><path class="cls-2" d="M426.857,254.087H426.8l-1.493,8.533h-1.028l-1.649-8.533h-.039v8.533h-1.823V249.472h2.58l1.435,7.408h.019l1.281-7.408h2.793V262.62h-2.018Z" transform="translate(-340.076 -216.683)"/><path class="cls-2" d="M430.136,249.472h2.211V262.62h-2.211Z" transform="translate(-340.076 -216.683)"/><path class="cls-2" d="M433.589,259.226v-6.361c0-2.056.97-3.549,3.3-3.549,2.444,0,3.122,1.358,3.122,3.3v1.552h-2.016v-1.726c0-.815-.272-1.28-1.068-1.28s-1.125.562-1.125,1.357v7.06c0,.795.33,1.357,1.125,1.357s1.068-.5,1.068-1.28v-2.424h2.016V259.5c0,1.881-.775,3.278-3.122,3.278C434.559,262.776,433.589,261.263,433.589,259.226Z" transform="translate(-340.076 -216.683)"/><path class="cls-2" d="M447.111,255.6h3.142v7.02h-1.59v-1.435a1.993,1.993,0,0,1-2.115,1.591c-1.9,0-2.773-1.513-2.773-3.55v-6.361c0-2.056.989-3.549,3.316-3.549,2.445,0,3.162,1.358,3.162,3.3v1.164h-2.017v-1.338c0-.815-.311-1.28-1.106-1.28s-1.144.562-1.144,1.357v7.06c0,.795.33,1.357,1.087,1.357.717,0,1.086-.407,1.086-1.26v-2.327h-1.048Z" transform="translate(-340.076 -216.683)"/><path class="cls-2" d="M453.919,256.589v6.031h-2.21V249.472h3.219c2.231,0,3.045,1.1,3.045,2.947v1.687c0,1.416-.5,2.25-1.764,2.541l2.114,5.973H456Zm0-5.314v4.092h.738a.957.957,0,0,0,1.086-1.086v-1.939c0-.718-.329-1.067-1.086-1.067Z" transform="translate(-340.076 -216.683)"/><path class="cls-2" d="M458.984,259.226v-6.361c0-2.056,1.009-3.549,3.336-3.549,2.347,0,3.355,1.493,3.355,3.549v6.361c0,2.037-1.008,3.55-3.355,3.55C459.993,262.776,458.984,261.263,458.984,259.226Zm4.48.35v-7.06c0-.795-.348-1.357-1.144-1.357-.776,0-1.125.562-1.125,1.357v7.06c0,.795.349,1.357,1.125,1.357C463.116,260.933,463.464,260.371,463.464,259.576Z" transform="translate(-340.076 -216.683)"/><path class="cls-2" d="M471.34,254.5,470.1,262.62h-2.075l-1.765-13.148h2.133l1.028,8.339h.02l1.105-8.339h1.8l1.222,8.339h.019l1.008-8.339h1.862l-1.707,13.148h-2.094l-1.3-8.125Z" transform="translate(-340.076 -216.683)"/><path class="cls-2" d="M477.142,249.472h5.877v1.8H481.2V262.62h-2.231V251.275h-1.823Z" transform="translate(-340.076 -216.683)"/><path class="cls-2" d="M488.044,256.822H485.91v5.8H483.7V249.472h2.211v5.565h2.134v-5.565h2.23V262.62h-2.23Z" transform="translate(-340.076 -216.683)"/></svg>