<svg id="Layer_1" data-name="Layer 1" xmlns="http://www.w3.org/2000/svg" viewBox="0 0 160.918 160.927"><defs><style>.cls-1{fill:#cd8b2a;}.cls-2{fill:#fff;}</style></defs><rect class="cls-1" width="160.918" height="160.927"/><polygon class="cls-2" points="16.063 21.145 16.112 21.145 16.112 45.983 21.567 45.983 21.567 13.537 17.208 13.537 12.186 19.423 12.186 25.118 12.233 25.118 16.063 21.145"/><path class="cls-2" d="M364.9,236.921v3.923h4.976v-4.069c0-1.961.959-2.535,2.106-2.535,1.055,0,1.963.43,1.963,2.441v2.678c0,2.682-.238,3.734-2.012,5.6l-3.06,3.255c-2.967,3.159-4.071,5.264-4.071,8.471v5.983h14.168v-4.452h-8.951v-1.531c0-2.537.91-3.494,2.3-4.977l3.494-3.685c2.824-3.014,3.447-4.93,3.447-8.184v-3.158c0-4.643-2.248-6.843-7.131-6.843-4.787,0-7.226,2.536-7.226,7.083" transform="translate(-340.078 -216.683)"/><path class="cls-2" d="M465.361,302.888c-6.563-5.183-14.432-5.742-17.511-5.742a19.251,19.251,0,0,0-4.227.407l-.431.1c-4.156.982-11.113,2.624-19.212,12.675l-.237.3a1.05,1.05,0,0,0-.2.608,1.069,1.069,0,0,0,.143.533l.184.3q2.005,3.353,3.331,5.826a1.071,1.071,0,0,0,1.732.243c.056-.075.113-.153.152-.213,7-9.675,12.477-10.964,16.1-11.817l.449-.106a10.566,10.566,0,0,1,2.222-.189c1.686,0,7.549.281,12.122,3.892,4.069,3.211,6.133,8.341,6.133,15.247,0,11.572-5.6,16.086-10.3,17.836a16.357,16.357,0,0,1-5.741,1.009,20.418,20.418,0,0,1-8.612-1.962l-.336-.163c-4.041-1.755-10.074-5.412-15.777-16.866-11.693-23.485-21.516-25.71-28.019-27.184l-.342-.076a19.58,19.58,0,0,0-4.192-.376,27.908,27.908,0,0,0-17.219,5.7c-4.24,3.381-9.294,9.95-9.294,22.037,0,7.365,1.516,12.23,5.4,17.346A25.887,25.887,0,0,0,392.2,352a31.605,31.605,0,0,0,5.941-.582,25.324,25.324,0,0,0,10.134-4.631l3.421,3.086a1.02,1.02,0,0,0,1.387-.065.905.905,0,0,0,.247-.65l2.646-16.3,0-.19a.968.968,0,0,0-.318-.71.952.952,0,0,0-.686-.253h-.007L399.1,336.088l-.3.05a.929.929,0,0,0-.5.292.986.986,0,0,0-.257.718.972.972,0,0,0,.325.678l3.288,2.973a15.577,15.577,0,0,1-5.137,2.087,22.551,22.551,0,0,1-4.209.412,17.176,17.176,0,0,1-13.6-6.151l-.088-.122c-2.736-3.593-3.66-6.652-3.66-12.124,0-6.928,2.029-12.06,6.027-15.255,4.45-3.55,10.175-3.826,11.826-3.826a11.093,11.093,0,0,1,2.248.189l.351.079c5.192,1.175,12.3,2.784,22.158,22.583,5.206,10.452,11.734,17.29,19.94,20.894a29.354,29.354,0,0,0,12.568,2.914,25.058,25.058,0,0,0,8.769-1.555c4.793-1.789,15.943-7.9,15.943-25.975C474.792,312.871,469.664,306.286,465.361,302.888Z" transform="translate(-340.078 -216.683)"/><path class="cls-2" d="M393.65,237.27V243.3h-2.211V230.153h3.22c2.23,0,3.045,1.106,3.045,2.948v1.687c0,1.416-.5,2.25-1.765,2.541l2.114,5.973h-2.328Zm0-5.313v4.092h.737a.957.957,0,0,0,1.086-1.086v-1.94c0-.717-.329-1.066-1.086-1.066Z" transform="translate(-340.078 -216.683)"/><path class="cls-2" d="M399.122,230.153H404.4v1.8h-3.065v3.762h2.193V237.5h-2.193v4H404.4v1.8h-5.275Z" transform="translate(-340.078 -216.683)"/><path class="cls-2" d="M405.678,240.471v-1.765h2.056v1.8c0,.736.33,1.163,1.087,1.163.7,0,1.008-.466,1.008-1.163v-.5a2.379,2.379,0,0,0-.99-1.862l-1.3-1.3c-1.26-1.241-1.842-2-1.842-3.51v-.446c0-1.629.95-2.89,3.1-2.89,2.211,0,3.083,1.086,3.083,2.987v1.066h-2.016v-1.144c0-.756-.35-1.125-1.047-1.125a.971.971,0,0,0-1.048,1.086v.272c0,.737.407,1.164,1.048,1.784l1.415,1.4c1.2,1.222,1.784,1.959,1.784,3.414v.639c0,1.8-.97,3.084-3.219,3.084S405.678,242.2,405.678,240.471Z" transform="translate(-340.078 -216.683)"/><path class="cls-2" d="M413.361,230.153h3.278c2.231,0,3.045,1.106,3.045,2.948v2.773c0,1.843-.814,2.968-3.045,2.968h-1.067v4.46h-2.211Zm2.211,1.8v5.178h.815a.95.95,0,0,0,1.086-1.086v-3.026c0-.717-.33-1.066-1.086-1.066Z" transform="translate(-340.078 -216.683)"/><path class="cls-2" d="M421.043,239.908v-6.361c0-2.056,1.009-3.549,3.336-3.549,2.347,0,3.356,1.493,3.356,3.549v6.361c0,2.037-1.009,3.549-3.356,3.549C422.052,243.457,421.043,241.945,421.043,239.908Zm4.481.349V233.2c0-.8-.349-1.358-1.145-1.358-.775,0-1.125.563-1.125,1.358v7.059c0,.8.35,1.358,1.125,1.358C425.175,241.615,425.524,241.053,425.524,240.257Z" transform="translate(-340.078 -216.683)"/><path class="cls-2" d="M431.073,235.04V243.3H429.21V230.153h2.173l2.385,7.544v-7.544h1.843V243.3h-1.94Z" transform="translate(-340.078 -216.683)"/><path class="cls-2" d="M436.99,240.471v-1.765h2.055v1.8c0,.736.33,1.163,1.087,1.163.7,0,1.008-.466,1.008-1.163v-.5a2.377,2.377,0,0,0-.989-1.862l-1.3-1.3c-1.261-1.241-1.843-2-1.843-3.51v-.446c0-1.629.95-2.89,3.1-2.89,2.211,0,3.083,1.086,3.083,2.987v1.066h-2.017v-1.144c0-.756-.349-1.125-1.047-1.125a.971.971,0,0,0-1.048,1.086v.272c0,.737.408,1.164,1.048,1.784l1.415,1.4c1.2,1.222,1.784,1.959,1.784,3.414v.639c0,1.8-.969,3.084-3.218,3.084S436.99,242.2,436.99,240.471Z" transform="translate(-340.078 -216.683)"/><path class="cls-2" d="M444.671,230.153h2.211V243.3h-2.211Z" transform="translate(-340.078 -216.683)"/><path class="cls-2" d="M448.377,230.153h3.2c2.21,0,2.948,1.028,2.948,2.89v1.338a1.914,1.914,0,0,1-1.32,2.094,2,2,0,0,1,1.65,2.192v1.745c0,1.862-.834,2.89-3.045,2.89h-3.434Zm2.211,5.547h.777a.932.932,0,0,0,1.047-1.067v-1.61a.93.93,0,0,0-1.067-1.066h-.757Zm0,1.687V241.5h.97a.952.952,0,0,0,1.087-1.066v-1.979c0-.7-.33-1.066-1.106-1.066Z" transform="translate(-340.078 -216.683)"/><path class="cls-2" d="M456.175,230.153h2.211V241.5h2.638v1.8h-4.849Z" transform="translate(-340.078 -216.683)"/><path class="cls-2" d="M462.247,230.153h5.276v1.8h-3.065v3.762h2.193V237.5h-2.193v4h3.065v1.8h-5.276Z" transform="translate(-340.078 -216.683)"/><path class="cls-2" d="M391.44,259.222V252.86c0-2.055.97-3.549,3.3-3.549,2.443,0,3.122,1.358,3.122,3.3v1.552h-2.017v-1.726c0-.815-.271-1.28-1.067-1.28s-1.125.562-1.125,1.358v7.059c0,.795.33,1.357,1.125,1.357s1.067-.5,1.067-1.28v-2.424h2.017v2.269c0,1.881-.776,3.278-3.122,3.278C392.41,262.771,391.44,261.258,391.44,259.222Z" transform="translate(-340.078 -216.683)"/><path class="cls-2" d="M399.258,259.222V252.86c0-2.055,1.009-3.549,3.336-3.549,2.347,0,3.356,1.494,3.356,3.549v6.362c0,2.036-1.009,3.549-3.356,3.549C400.267,262.771,399.258,261.258,399.258,259.222Zm4.481.349v-7.059c0-.8-.349-1.358-1.145-1.358-.775,0-1.125.562-1.125,1.358v7.059c0,.795.35,1.357,1.125,1.357C403.39,260.928,403.739,260.366,403.739,259.571Z" transform="translate(-340.078 -216.683)"/><path class="cls-2" d="M409.268,254.354v8.262h-1.862V249.467h2.173l2.384,7.544v-7.544h1.843v13.149h-1.939Z" transform="translate(-340.078 -216.683)"/><path class="cls-2" d="M415.146,259.784v-1.765H417.2v1.8c0,.737.33,1.164,1.086,1.164.7,0,1.008-.466,1.008-1.164v-.5a2.375,2.375,0,0,0-.989-1.862l-1.3-1.3c-1.261-1.242-1.843-2-1.843-3.511V252.2c0-1.629.951-2.89,3.1-2.89,2.211,0,3.083,1.086,3.083,2.987v1.067h-2.017v-1.144c0-.757-.349-1.125-1.047-1.125a.97.97,0,0,0-1.047,1.086v.271c0,.737.407,1.164,1.047,1.784l1.416,1.4c1.2,1.222,1.784,1.959,1.784,3.413v.64c0,1.8-.97,3.084-3.219,3.084S415.146,261.51,415.146,259.784Z" transform="translate(-340.078 -216.683)"/><path class="cls-2" d="M429.268,249.467v9.948c0,2.037-.873,3.356-3.122,3.356-2.328,0-3.3-1.319-3.3-3.356v-9.948h2.211v10.162c0,.776.311,1.3,1.087,1.3s1.086-.523,1.086-1.3V249.467Z" transform="translate(-340.078 -216.683)"/><path class="cls-2" d="M436.814,254.082h-.058l-1.493,8.534h-1.028l-1.649-8.534h-.039v8.534h-1.823V249.467h2.58l1.435,7.408h.019l1.28-7.408h2.793v13.149h-2.017Z" transform="translate(-340.078 -216.683)"/><path class="cls-2" d="M440.288,249.467h3.279c2.23,0,3.045,1.1,3.045,2.947v2.774c0,1.842-.815,2.967-3.045,2.967H442.5v4.461h-2.211Zm2.211,1.8v5.178h.816a.95.95,0,0,0,1.086-1.086v-3.025c0-.718-.33-1.067-1.086-1.067Z" transform="translate(-340.078 -216.683)"/><path class="cls-2" d="M447.33,249.467h5.877v1.8h-1.823v11.346h-2.23V251.27H447.33Z" transform="translate(-340.078 -216.683)"/><path class="cls-2" d="M454.255,249.467h2.211v13.149h-2.211Z" transform="translate(-340.078 -216.683)"/><path class="cls-2" d="M457.747,259.222V252.86c0-2.055,1.009-3.549,3.336-3.549,2.347,0,3.356,1.494,3.356,3.549v6.362c0,2.036-1.009,3.549-3.356,3.549C458.756,262.771,457.747,261.258,457.747,259.222Zm4.481.349v-7.059c0-.8-.349-1.358-1.145-1.358-.775,0-1.125.562-1.125,1.358v7.059c0,.795.35,1.357,1.125,1.357C461.879,260.928,462.228,260.366,462.228,259.571Z" transform="translate(-340.078 -216.683)"/><path class="cls-2" d="M467.583,254.354v8.262h-1.862V249.467h2.173l2.385,7.544v-7.544h1.843v13.149h-1.94Z" transform="translate(-340.078 -216.683)"/><path class="cls-2" d="M391.091,281.929l2.483-13.149H396.1l2.5,13.149h-2.269l-.408-2.4h-2.346l-.388,2.4Zm2.774-4.17h1.764l-.873-5.275h-.018Z" transform="translate(-340.078 -216.683)"/><path class="cls-2" d="M401.43,273.667v8.262h-1.862V268.78h2.173l2.384,7.544V268.78h1.843v13.149h-1.939Z" transform="translate(-340.078 -216.683)"/><path class="cls-2" d="M413.9,272.309v6.09c0,2.017-.834,3.53-3.2,3.53h-3.415V268.78H410.7C413.07,268.78,413.9,270.273,413.9,272.309Zm-3.472,7.816c.911,0,1.261-.543,1.261-1.338V271.9a1.152,1.152,0,0,0-1.261-1.318H409.5v9.541Z" transform="translate(-340.078 -216.683)"/><path class="cls-2" d="M417.319,268.78H420.6c2.231,0,3.045,1.106,3.045,2.948V274.5c0,1.843-.814,2.968-3.045,2.968H419.53v4.46h-2.211Zm2.211,1.8v5.178h.815a.95.95,0,0,0,1.086-1.086V271.65c0-.717-.33-1.066-1.086-1.066Z" transform="translate(-340.078 -216.683)"/><path class="cls-2" d="M427.057,275.9v6.032h-2.211V268.78h3.22c2.23,0,3.045,1.106,3.045,2.948v1.687c0,1.416-.5,2.25-1.765,2.541l2.114,5.973h-2.328Zm0-5.313v4.092h.737a.957.957,0,0,0,1.086-1.086v-1.94c0-.717-.329-1.066-1.086-1.066Z" transform="translate(-340.078 -216.683)"/><path class="cls-2" d="M432.372,278.535v-6.361c0-2.056,1.009-3.549,3.336-3.549,2.347,0,3.356,1.493,3.356,3.549v6.361c0,2.037-1.009,3.549-3.356,3.549C433.381,282.084,432.372,280.572,432.372,278.535Zm4.481.349v-7.059c0-.8-.349-1.358-1.145-1.358-.775,0-1.125.563-1.125,1.358v7.059c0,.8.35,1.358,1.125,1.358C436.5,280.242,436.853,279.68,436.853,278.884Z" transform="translate(-340.078 -216.683)"/><path class="cls-2" d="M447,272.309v6.09c0,2.017-.834,3.53-3.2,3.53h-3.414V268.78H443.8C446.165,268.78,447,270.273,447,272.309Zm-3.471,7.816c.911,0,1.26-.543,1.26-1.338V271.9a1.152,1.152,0,0,0-1.26-1.318H442.6v9.541Z" transform="translate(-340.078 -216.683)"/><path class="cls-2" d="M454.74,268.78v9.949c0,2.037-.873,3.355-3.122,3.355-2.329,0-3.3-1.318-3.3-3.355V268.78h2.211v10.162c0,.776.31,1.3,1.087,1.3s1.086-.524,1.086-1.3V268.78Z" transform="translate(-340.078 -216.683)"/><path class="cls-2" d="M456.06,278.535v-6.361c0-2.056.97-3.549,3.3-3.549,2.443,0,3.122,1.357,3.122,3.3v1.552h-2.017v-1.727c0-.814-.271-1.28-1.067-1.28s-1.125.563-1.125,1.358v7.059c0,.8.33,1.358,1.125,1.358s1.067-.5,1.067-1.28v-2.425h2.017v2.27c0,1.881-.775,3.277-3.122,3.277C457.03,282.084,456.06,280.572,456.06,278.535Z" transform="translate(-340.078 -216.683)"/><path class="cls-2" d="M463.491,268.78h5.877v1.8h-1.824v11.345h-2.23V270.584h-1.823Z" transform="translate(-340.078 -216.683)"/><path class="cls-2" d="M470.415,268.78h2.211v13.149h-2.211Z" transform="translate(-340.078 -216.683)"/><path class="cls-2" d="M473.908,278.535v-6.361c0-2.056,1.008-3.549,3.336-3.549,2.346,0,3.355,1.493,3.355,3.549v6.361c0,2.037-1.009,3.549-3.355,3.549C474.916,282.084,473.908,280.572,473.908,278.535Zm4.48.349v-7.059c0-.8-.349-1.358-1.144-1.358-.776,0-1.125.563-1.125,1.358v7.059c0,.8.349,1.358,1.125,1.358C478.039,280.242,478.388,279.68,478.388,278.884Z" transform="translate(-340.078 -216.683)"/><path class="cls-2" d="M483.743,273.667v8.262H481.88V268.78h2.173l2.385,7.544V268.78h1.843v13.149h-1.94Z" transform="translate(-340.078 -216.683)"/></svg>