<svg id="Layer_1" data-name="Layer 1" xmlns="http://www.w3.org/2000/svg" viewBox="0 0 160.917 160.928"><defs><style>.cls-1{fill:#48773c;}.cls-2{fill:#fff;}</style></defs><rect class="cls-1" width="160.917" height="160.928"/><polygon class="cls-2" points="20.312 13.499 20.312 45.932 14.857 45.932 14.857 21.105 14.81 21.105 10.984 25.075 10.935 25.075 10.935 19.383 15.957 13.499 20.312 13.499"/><path class="cls-2" d="M378.375,237.215v2.821a5.188,5.188,0,0,1-3.731,5.263c2.726.621,4.018,2.534,4.018,5.5v4.784c0,4.5-2.391,7.414-7.893,7.414-5.549,0-7.512-3.157-7.512-8.084v-4.258h4.977V255.3c0,1.913.668,3.155,2.535,3.155,1.672,0,2.437-1.194,2.437-2.918v-5.356c0-1.724-.765-2.631-2.677-2.631h-2.3v-4.162h2.058c1.768,0,2.914-.911,2.914-2.631v-3.492c0-1.771-.619-2.918-2.341-2.918s-2.344,1.147-2.344,3.157v3.3h-4.977v-2.869c0-4.785,1.963-8.133,7.606-8.133,5.025,0,7.225,2.823,7.225,7.416" transform="translate(-340.078 -216.682)"/><path class="cls-2" d="M479.607,317.43a73.6,73.6,0,0,0-118.138,0c-.181.254-.336.474-.463.661.127.192.282.41.463.668a73.609,73.609,0,0,0,118.138,0c.185-.258.338-.476.46-.668q-.183-.281-.46-.661m-78.952-14.676c.321-.472,1.388-1.819,1.518-1.989a1.906,1.906,0,0,1,1.2-.493c.378-.073.883.14.944.424a3.322,3.322,0,0,1-.333,1.579,4.124,4.124,0,0,1-2.634,1.188c-.58-.089-.808-.538-.7-.709m-1.274,2.532c.057-.067.108-.123.129-.15a3.32,3.32,0,0,1,1.958-.717c.618-.106,1.443.206,1.542.617s-1.55,1.158-1.852,1.439c-.858.79-2.2,2.4-2.986,2.573a.94.94,0,0,1-.641-.068,24.507,24.507,0,0,1,1.85-3.694m13.342,27.371a7.067,7.067,0,0,1-1.526,3.182,5.145,5.145,0,0,1-3.386,1.3c-1.13-.084-1.287-3.1-1.287-4.649,0-.535-.758,1.052-1.153-2.174-.253-2.066-1.58.215-1.672-1.163s-.757-1.1-1.454-1.96-1.557.084-2.526.518-.566.654-1.936.223c-.036-.011-.053-.021-.087-.034a24.746,24.746,0,0,1-1.951-9.666c0-.839.044-1.663.123-2.478a1.4,1.4,0,0,1,.153-.231c1.313-1.554,1.284-1.918,1.284-1.918l1.453-.5a24.325,24.325,0,0,1,4.069,1.016c1.439.54,3.707,1.761,5.025,1.224.953-.393,1.7-.914,1.609-1.708-.107-1-.891-1.233-1.84-.561-.351.247-1.1-1.5-1.682-1.412s.724,2.053.227,2.137-1.5-2.05-1.669-2.4-.94-1.2-1.633-.547c-1.465,1.392-3.844,1.307-4.322,1.665-1.454,1.088-1.838-.358-1.8-1.239.058-.2.118-.4.182-.6a2.973,2.973,0,0,1,2.764-.307c.643.429,1.1-.11,1.355-.371a.892.892,0,0,0,0-1.009c-.163-.346.322-.6.654-.687a17.5,17.5,0,0,0,1.883-1.122,6.192,6.192,0,0,1,3.771-.02,2,2,0,0,0,2.479-.5,6.65,6.65,0,0,1,1.8-1.5c.361-.168-.885-1.331-1.91-.063s-1.55,1.378-2.032,1.378-3.35-.715-3.7-1.622.9-1.582,1.955-2.095,3.953-.5,4.693-.665c1.5-.33,3.429-1.086,4.4-.427s-4.047,1.79-2.4,2.68c.586.321,3.236-1.525,4.144-2,2.136-1.1-2.071-1.465-1.526-3.705.618-2.531-5.16-1.552-8.04-1.336a24.829,24.829,0,0,1,37.523,15.117,4.131,4.131,0,0,1-.121,1.149,1.624,1.624,0,0,1-2.908.224c-.251-.363-1.317-1.369-1.281.351s1.673,1.9.085,2.931a6.114,6.114,0,0,1-2.61,1.044c-.732.259-1.442,2.033-1.267,2.98s2.442,3.537.762,3.431c-.394-.03-3.361-2.056-3.852-3.36-.516-1.372-1.081-2.715-1.481-3.75a1.481,1.481,0,0,0-2.34-.687c-.883.605.247,1.208-.389,2.5s-1.087,2.445-2.02,1.378c-2.424-2.778-5.946-1.408-6.5-4.5-.3-1.676-1.741-1.516-2.947-2.465s-1.888-1.457-2.092-.773c-.18.6,3.8,3.751,4.079,4.559.422,1.2-1.19,2.258-2.371,2.542s-1.693-.662-2.851-1.868-1.663-2.064-1.743-1.118a5.435,5.435,0,0,0,2.278,4.123c1,.637,2.13.925,1.805,1.958s-.006.449-1.132,1.563-1.342,1.48-1.26,3.025-.323,1.641-.565,2.93-.8.173-1.288,2.065m26.642-9.9c.835-.068,2.089,1.089,1.6,1.533a2.22,2.22,0,0,1-2.368-.212c-.625-.486.395-1.29.77-1.321m-1.056-.763c-.268-.1-.5-.354-.707-.964a.558.558,0,0,1,.811-.712,2.4,2.4,0,0,1,1.171,1.425c0,.407-1,.358-1.275.251m-10.961-.043a2.244,2.244,0,0,1-2.374-.214c-.624-.485.4-1.291.77-1.321.835-.075,2.09,1.092,1.6,1.535m-10.143,4.931c-.341.559-1.275,4.736-1.9,4.249s.254-4.844.436-5.175c.98-1.8,3.1-1.71,1.466.926m3.377,16.187a24.839,24.839,0,0,1-6.98-1,1.025,1.025,0,0,1-.3-1.214c.769-2,3.057-2.788,4.863-2.962,4.028-.392,9.321,2.615,10.163,2.129s2.546-2.7,5.044-2.605a3.9,3.9,0,0,1,2.265.567,24.728,24.728,0,0,1-15.054,5.085m17.516-7.229a4.309,4.309,0,0,1-.78-.288c-1.356-.69-1.194.412-1.86.169s.752-1.8-1.251-.487-1.455-.2-2.325-2.412,1-4.736,2.571-5.307a31.532,31.532,0,0,1,4.508-1.19c2.984-.745,3.615-2.515,4.156-1.438.1.2.2.394.291.574a3.926,3.926,0,0,1,.383,1.618,24.862,24.862,0,0,1-5.693,8.761m6.8-12.538c-.666-.182-3.455-4.037-1.25-6.575.366-.417-.74-1.644-.438-1.668a2.018,2.018,0,0,1,2.164,1.734c.025.475.043.955.043,1.439a25.055,25.055,0,0,1-.519,5.07" transform="translate(-340.078 -216.682)"/><path class="cls-2" d="M391.4,239.9v-6.361c0-2.056.97-3.549,3.3-3.549,2.443,0,3.122,1.357,3.122,3.3v1.551H395.8v-1.726c0-.815-.271-1.28-1.067-1.28s-1.125.563-1.125,1.358v7.059c0,.8.33,1.357,1.125,1.357s1.067-.5,1.067-1.279V237.9h2.017v2.269c0,1.882-.775,3.278-3.122,3.278C392.368,243.448,391.4,241.936,391.4,239.9Z" transform="translate(-340.078 -216.682)"/><path class="cls-2" d="M399.236,230.144h2.211v11.345h2.638v1.8h-4.849Z" transform="translate(-340.078 -216.682)"/><path class="cls-2" d="M405.288,230.144H407.5v13.149h-2.211Z" transform="translate(-340.078 -216.682)"/><path class="cls-2" d="M415.238,234.76h-.058l-1.493,8.533h-1.028l-1.649-8.533h-.039v8.533h-1.823V230.144h2.58l1.435,7.408h.019l1.28-7.408h2.793v13.149h-2.017Z" transform="translate(-340.078 -216.682)"/><path class="cls-2" d="M418.364,243.293l2.482-13.149h2.522l2.5,13.149H423.6l-.407-2.405h-2.347l-.387,2.405Zm2.773-4.17H422.9l-.873-5.275h-.019Z" transform="translate(-340.078 -216.682)"/><path class="cls-2" d="M425.58,230.144h5.877v1.8h-1.824v11.345H427.4V231.948H425.58Z" transform="translate(-340.078 -216.682)"/><path class="cls-2" d="M432.68,230.144h5.276v1.8h-3.065v3.762h2.193v1.784h-2.193v4h3.065v1.8H432.68Z" transform="translate(-340.078 -216.682)"/><path class="cls-2" d="M391.038,262.345,393.52,249.2h2.522l2.5,13.149h-2.27l-.407-2.405H393.52l-.388,2.405Zm2.773-4.17h1.765L394.7,252.9h-.019Z" transform="translate(-340.078 -216.682)"/><path class="cls-2" d="M399.166,258.951V252.59c0-2.056.969-3.549,3.3-3.549,2.444,0,3.123,1.357,3.123,3.3v1.552h-2.017v-1.726c0-.815-.272-1.281-1.067-1.281s-1.125.563-1.125,1.358V259.3c0,.8.33,1.358,1.125,1.358s1.067-.5,1.067-1.28v-2.424h2.017v2.269c0,1.881-.776,3.277-3.123,3.277C400.135,262.5,399.166,260.988,399.166,258.951Z" transform="translate(-340.078 -216.682)"/><path class="cls-2" d="M406.382,249.2h5.877V251h-1.823v11.345h-2.23V251h-1.824Z" transform="translate(-340.078 -216.682)"/><path class="cls-2" d="M413.482,249.2h2.211v13.149h-2.211Z" transform="translate(-340.078 -216.682)"/><path class="cls-2" d="M417.169,258.951V252.59c0-2.056,1.008-3.549,3.335-3.549,2.347,0,3.356,1.493,3.356,3.549v6.361c0,2.037-1.009,3.549-3.356,3.549C418.177,262.5,417.169,260.988,417.169,258.951Zm4.48.349v-7.059c0-.8-.349-1.358-1.145-1.358-.775,0-1.125.563-1.125,1.358V259.3c0,.8.35,1.358,1.125,1.358C421.3,260.658,421.649,260.1,421.649,259.3Z" transform="translate(-340.078 -216.682)"/><path class="cls-2" d="M427.159,254.083v8.262H425.3V249.2h2.173l2.385,7.544V249.2H431.7v13.149h-1.94Z" transform="translate(-340.078 -216.682)"/></svg>