<svg id="Layer_1" data-name="Layer 1" xmlns="http://www.w3.org/2000/svg" viewBox="0 0 160.922 160.928"><defs><style>.cls-1{fill:#c22033;}.cls-2{fill:#fff;}</style></defs><rect class="cls-1" width="160.922" height="160.928"/><path class="cls-2" d="M365.285,262.616h5.168v-5.264h2.2v-4.258h-2.2V230.168h-5.362L355.666,254v3.35h9.619Zm-4.834-9.522,4.881-13.352h.048v13.352Z" transform="translate(-340.076 -216.682)"/><polygon class="cls-2" points="70.532 86.287 41.671 69.622 41.671 123.533 70.532 132.241 70.532 86.287"/><polygon class="cls-2" points="73.706 86.397 73.706 132.26 102.755 123.526 102.755 69.624 73.706 86.397"/><path class="cls-2" d="M465.487,284.94a3.414,3.414,0,1,0-6.828,0v3.681h6.828Z" transform="translate(-340.076 -216.682)"/><polygon class="cls-2" points="119.431 122.577 118.583 122.577 121.999 134.512 125.409 122.577 124.562 122.577 125.409 122.577 125.409 74.612 124.562 74.612 123.714 74.612 122.815 74.612 121.116 74.612 120.278 74.612 119.431 74.612 118.581 74.612 118.581 122.577 119.431 122.577"/><polygon class="cls-2" points="108.954 71.937 105.86 69.493 105.86 124.995 73.792 135.357 72.308 135.357 72.015 135.357 70.532 135.357 38.606 126.438 38.606 69.493 35.511 71.937 35.511 128.609 70.386 138.264 72.015 138.264 72.308 138.264 73.937 138.264 106.112 128.048 108.954 127.212 108.954 71.937"/><path class="cls-2" d="M386.029,249.445H391.3v1.8H388.24v3.763h2.192V256.8H388.24v4H391.3v1.8h-5.275Z" transform="translate(-340.076 -216.682)"/><path class="cls-2" d="M399.258,252.975v6.089c0,2.017-.834,3.53-3.2,3.53h-3.414V249.445h3.414C398.424,249.445,399.258,250.938,399.258,252.975Zm-3.471,7.815c.911,0,1.26-.543,1.26-1.338v-6.885a1.152,1.152,0,0,0-1.26-1.319h-.932v9.542Z" transform="translate(-340.076 -216.682)"/><path class="cls-2" d="M407.134,249.445v9.948c0,2.037-.873,3.356-3.122,3.356-2.328,0-3.3-1.319-3.3-3.356v-9.948h2.211v10.162c0,.776.311,1.3,1.087,1.3s1.086-.523,1.086-1.3V249.445Z" transform="translate(-340.076 -216.682)"/><path class="cls-2" d="M408.59,259.2v-6.362c0-2.055.97-3.549,3.3-3.549,2.444,0,3.122,1.358,3.122,3.3v1.552h-2.016v-1.726c0-.815-.272-1.28-1.068-1.28s-1.125.562-1.125,1.358v7.059c0,.8.33,1.357,1.125,1.357s1.068-.5,1.068-1.28V257.2h2.016v2.269c0,1.881-.775,3.278-3.122,3.278C409.56,262.749,408.59,261.236,408.59,259.2Z" transform="translate(-340.076 -216.682)"/><path class="cls-2" d="M415.711,262.594l2.482-13.149h2.521l2.5,13.149h-2.269l-.407-2.4h-2.347l-.388,2.4Zm2.773-4.17h1.765l-.873-5.275h-.019Z" transform="translate(-340.076 -216.682)"/><path class="cls-2" d="M422.927,249.445H428.8v1.8h-1.823v11.346h-2.23V251.248h-1.824Z" transform="translate(-340.076 -216.682)"/><path class="cls-2" d="M430.027,249.445h2.211v13.149h-2.211Z" transform="translate(-340.076 -216.682)"/><path class="cls-2" d="M433.713,259.2v-6.362c0-2.055,1.008-3.549,3.335-3.549,2.347,0,3.356,1.494,3.356,3.549V259.2c0,2.036-1.009,3.549-3.356,3.549C434.721,262.749,433.713,261.236,433.713,259.2Zm4.48.349V252.49c0-.8-.349-1.358-1.145-1.358-.775,0-1.125.562-1.125,1.358v7.059c0,.8.35,1.357,1.125,1.357C437.844,260.906,438.193,260.344,438.193,259.549Z" transform="translate(-340.076 -216.682)"/><path class="cls-2" d="M443.723,254.332v8.262h-1.862V249.445h2.173l2.385,7.544v-7.544h1.842v13.149h-1.939Z" transform="translate(-340.076 -216.682)"/><path class="cls-2" d="M388.551,244.194V243.3c-1.764-.311-2.521-1.61-2.521-3.394v-6.362c0-2.055,1.009-3.549,3.336-3.549,2.347,0,3.355,1.494,3.355,3.549v6.362a3.159,3.159,0,0,1-1.629,3.1l1.629.31v1.649Zm1.959-3.821V233.2c0-.8-.348-1.358-1.144-1.358-.776,0-1.125.562-1.125,1.358v7.175c0,.776.349,1.358,1.125,1.358C390.162,241.731,390.51,241.149,390.51,240.373Z" transform="translate(-340.076 -216.682)"/><path class="cls-2" d="M400.578,230.153V240.1c0,2.037-.873,3.356-3.122,3.356-2.328,0-3.3-1.319-3.3-3.356v-9.948h2.211v10.162c0,.776.31,1.3,1.087,1.3s1.086-.523,1.086-1.3V230.153Z" transform="translate(-340.076 -216.682)"/><path class="cls-2" d="M401.415,243.3l2.482-13.149h2.522l2.5,13.149h-2.27l-.407-2.405H403.9l-.388,2.405Zm2.773-4.17h1.765l-.873-5.275h-.019Z" transform="translate(-340.076 -216.682)"/><path class="cls-2" d="M409.988,230.153H412.2V241.5h2.638v1.8h-4.849Z" transform="translate(-340.076 -216.682)"/><path class="cls-2" d="M415.866,230.153h2.211V243.3h-2.211Z" transform="translate(-340.076 -216.682)"/><path class="cls-2" d="M419.106,230.153h5.877v1.8H423.16V243.3h-2.231V231.956h-1.823Z" transform="translate(-340.076 -216.682)"/><path class="cls-2" d="M430.357,238.3v5h-2.211v-5l-2.463-8.145h2.308l1.339,4.984h.019l1.338-4.984H432.8Z" transform="translate(-340.076 -216.682)"/></svg>