<svg id="Layer_1" data-name="Layer 1" xmlns="http://www.w3.org/2000/svg" viewBox="0 0 160.914 160.919"><defs><style>.cls-1{fill:#c5c2c2;}.cls-2{fill:#fff;}</style></defs><rect class="cls-1" width="160.914" height="160.919"/><path class="cls-2" d="M240.184,386.54c5.5,0,7.9-2.921,7.9-7.418v-4.785c0-2.966-1.292-4.882-4.019-5.5a5.187,5.187,0,0,0,3.732-5.264v-2.823c0-4.594-2.2-7.417-7.225-7.417-5.649,0-7.611,3.348-7.611,8.134v2.87h4.977v-3.3c0-2.01.624-3.157,2.346-3.157s2.343,1.147,2.343,2.918v3.494c0,1.723-1.147,2.63-2.917,2.63h-2.059v4.166h2.3c1.914,0,2.678.908,2.678,2.631v5.36c0,1.721-.764,2.92-2.439,2.92-1.866,0-2.537-1.246-2.537-3.16v-4.641h-4.974v4.258c0,4.93,1.96,8.088,7.511,8.088" transform="translate(-217.221 -340.171)"/><path class="cls-2" d="M351.626,440.741c0-4.528-2.9-8.2-7.306-8.2-2.2,0-4.854,2.41-6.3,3.892-1.442-1.484-3.92-3.9-6.122-3.9-4.4,0-7.484,3.671-7.484,8.2a8.294,8.294,0,0,0,2.335,5.8h0l11.28,11.3L349.3,446.55l-.009-.009A8.292,8.292,0,0,0,351.626,440.741Z" transform="translate(-217.221 -340.171)"/><path class="cls-2" d="M303.6,476.287l-.115,0a1.851,1.851,0,0,1-1.711-1.536l-5.73-33.371-8.68,16.093a1.852,1.852,0,0,1-3.463-.617L280.217,431.1l-6.741,15.142a1.853,1.853,0,0,1-1.693,1.1h-26.2a1.852,1.852,0,0,1,0-3.7h25l8.867-19.917a1.853,1.853,0,0,1,3.527.491l3.8,26.555,8.559-15.87a1.852,1.852,0,0,1,3.456.566l5.306,30.906,19.339-64.238a1.852,1.852,0,0,1,3.442-.271l10.176,21.095a1.852,1.852,0,1,1-3.337,1.609l-8.106-16.805-20.235,67.212A1.851,1.851,0,0,1,303.6,476.287Z" transform="translate(-217.221 -340.171)"/><path class="cls-2" d="M266.51,359.775h3.143V366.8h-1.591V365.36a1.992,1.992,0,0,1-2.114,1.591c-1.9,0-2.774-1.513-2.774-3.55V357.04c0-2.055.989-3.549,3.317-3.549,2.444,0,3.162,1.358,3.162,3.3v1.164h-2.018v-1.338c0-.815-.31-1.28-1.105-1.28s-1.145.562-1.145,1.358v7.059c0,.8.33,1.357,1.087,1.357.717,0,1.086-.407,1.086-1.26V361.52H266.51Z" transform="translate(-217.221 -340.171)"/><path class="cls-2" d="M271.109,363.4V357.04c0-2.055,1.009-3.549,3.336-3.549,2.346,0,3.355,1.494,3.355,3.549V363.4c0,2.037-1.009,3.55-3.355,3.55C272.118,366.951,271.109,365.438,271.109,363.4Zm4.48.35v-7.059c0-.8-.348-1.358-1.144-1.358-.776,0-1.125.562-1.125,1.358v7.059c0,.8.349,1.357,1.125,1.357C275.241,365.108,275.589,364.546,275.589,363.751Z" transform="translate(-217.221 -340.171)"/><path class="cls-2" d="M279.256,363.4V357.04c0-2.055,1.009-3.549,3.336-3.549,2.347,0,3.356,1.494,3.356,3.549V363.4c0,2.037-1.009,3.55-3.356,3.55C280.265,366.951,279.256,365.438,279.256,363.4Zm4.481.35v-7.059c0-.8-.349-1.358-1.145-1.358-.775,0-1.125.562-1.125,1.358v7.059c0,.8.35,1.357,1.125,1.357C283.388,365.108,283.737,364.546,283.737,363.751Z" transform="translate(-217.221 -340.171)"/><path class="cls-2" d="M294.018,357.176v6.09c0,2.017-.834,3.53-3.2,3.53H287.4V353.647h3.414C293.184,353.647,294.018,355.14,294.018,357.176Zm-3.472,7.816c.911,0,1.261-.543,1.261-1.338v-6.885a1.153,1.153,0,0,0-1.261-1.319h-.931v9.542Z" transform="translate(-217.221 -340.171)"/><path class="cls-2" d="M302.826,361h-2.134v5.8h-2.211V353.647h2.211v5.566h2.134v-5.566h2.23V366.8h-2.23Z" transform="translate(-217.221 -340.171)"/><path class="cls-2" d="M306.61,353.647h5.275v1.8h-3.064v3.763h2.192V361h-2.192v4h3.064v1.8H306.61Z" transform="translate(-217.221 -340.171)"/><path class="cls-2" d="M312.915,366.8l2.483-13.149h2.521l2.5,13.149h-2.269l-.408-2.4H315.4l-.388,2.4Zm2.774-4.17h1.764l-.873-5.275h-.018Z" transform="translate(-217.221 -340.171)"/><path class="cls-2" d="M321.528,353.647h2.211v11.345h2.637v1.8h-4.848Z" transform="translate(-217.221 -340.171)"/><path class="cls-2" d="M326.068,353.647h5.877v1.8h-1.824V366.8h-2.23V355.45h-1.823Z" transform="translate(-217.221 -340.171)"/><path class="cls-2" d="M337.512,361h-2.134v5.8h-2.211V353.647h2.211v5.566h2.134v-5.566h2.231V366.8h-2.231Z" transform="translate(-217.221 -340.171)"/><path class="cls-2" d="M262.841,386.082l2.483-13.149h2.521l2.5,13.149h-2.27l-.407-2.4h-2.346l-.388,2.4Zm2.774-4.17h1.764l-.873-5.275h-.018Z" transform="translate(-217.221 -340.171)"/><path class="cls-2" d="M273.122,377.82v8.262H271.26V372.933h2.173l2.385,7.544v-7.544h1.842v13.149h-1.939Z" transform="translate(-217.221 -340.171)"/><path class="cls-2" d="M285.827,376.463v6.089c0,2.017-.834,3.53-3.2,3.53h-3.414V372.933h3.414C284.993,372.933,285.827,374.426,285.827,376.463Zm-3.471,7.815c.911,0,1.261-.543,1.261-1.337v-6.886a1.152,1.152,0,0,0-1.261-1.318h-.932v9.541Z" transform="translate(-217.221 -340.171)"/><path class="cls-2" d="M294.286,377.956l-1.241,8.126H290.97l-1.765-13.149h2.133l1.029,8.34h.019l1.106-8.34h1.8l1.222,8.34h.019l1.008-8.34h1.863L297.7,386.082h-2.095l-1.3-8.126Z" transform="translate(-217.221 -340.171)"/><path class="cls-2" d="M300.553,372.933h5.275v1.8h-3.064V378.5h2.192v1.784h-2.192v4h3.064v1.8h-5.275Z" transform="translate(-217.221 -340.171)"/><path class="cls-2" d="M307.207,372.933h2.211v11.345h2.638v1.8h-4.849Z" transform="translate(-217.221 -340.171)"/><path class="cls-2" d="M313.26,372.933h2.211v11.345h2.638v1.8H313.26Z" transform="translate(-217.221 -340.171)"/><path class="cls-2" d="M317.819,378.305h3.1v1.784h-3.1Z" transform="translate(-217.221 -340.171)"/><path class="cls-2" d="M322.242,372.933h3.2c2.211,0,2.948,1.028,2.948,2.89v1.338a1.915,1.915,0,0,1-1.319,2.094,2,2,0,0,1,1.649,2.192v1.746c0,1.861-.834,2.889-3.045,2.889h-3.433Zm2.21,5.547h.777a.932.932,0,0,0,1.047-1.067V375.8a.93.93,0,0,0-1.067-1.066h-.757Zm0,1.687v4.111h.97a.952.952,0,0,0,1.087-1.066v-1.978c0-.7-.33-1.067-1.105-1.067Z" transform="translate(-217.221 -340.171)"/><path class="cls-2" d="M330.021,372.933H335.3v1.8h-3.064V378.5h2.192v1.784h-2.192v4H335.3v1.8h-5.275Z" transform="translate(-217.221 -340.171)"/><path class="cls-2" d="M336.675,372.933h2.211v13.149h-2.211Z" transform="translate(-217.221 -340.171)"/><path class="cls-2" d="M342.321,377.82v8.262h-1.863V372.933h2.173l2.385,7.544v-7.544h1.843v13.149h-1.94Z" transform="translate(-217.221 -340.171)"/><path class="cls-2" d="M351.748,379.062h3.143v7.02H353.3v-1.435a1.992,1.992,0,0,1-2.114,1.59c-1.9,0-2.774-1.512-2.774-3.549v-6.361c0-2.056.99-3.549,3.317-3.549,2.444,0,3.162,1.357,3.162,3.3v1.163h-2.018V375.9c0-.815-.31-1.281-1.105-1.281s-1.145.563-1.145,1.358v7.059c0,.8.33,1.358,1.087,1.358.717,0,1.086-.408,1.086-1.261v-2.327h-1.048Z" transform="translate(-217.221 -340.171)"/></svg>