<svg id="Layer_1" data-name="Layer 1" xmlns="http://www.w3.org/2000/svg" viewBox="0 0 160.922 160.921"><defs><style>.cls-1{fill:#f7f7f8;}.cls-2{fill:#3ea635;}.cls-3{fill:#d6a102;}.cls-4{fill:#c11728;}.cls-5{fill:#289438;}.cls-6{fill:#4a7634;}.cls-7{fill:#fbb800;}.cls-8{fill:#e6331d;}.cls-9{fill:#f59d08;}.cls-10{fill:#0076b8;}.cls-11{fill:#931831;}.cls-12{fill:#00a7d7;}.cls-13{fill:#ec6411;}.cls-14{fill:#e2071f;}.cls-15{fill:#dd0979;}.cls-16{fill:#1f3262;}.cls-17{fill:#d28d0e;}.cls-18{fill:#004c84;}.cls-19{fill:#12100b;}</style></defs><rect class="cls-1" width="160.922" height="160.921"/><path class="cls-2" d="M277.218,389.588a23.928,23.928,0,0,1,3.772-4.852l-12.367-13.562a42.337,42.337,0,0,0-7.852,10.22Z" transform="translate(-217.217 -340.171)"/><path class="cls-3" d="M307.537,380.007a23.708,23.708,0,0,1,5.186,3.249l12.4-13.54a42.171,42.171,0,0,0-10.992-6.857Z" transform="translate(-217.217 -340.171)"/><path class="cls-4" d="M335.939,384.085,319.5,392.279a23.516,23.516,0,0,1,1.646,5.808l18.285-1.726a41.629,41.629,0,0,0-3.493-12.276" transform="translate(-217.217 -340.171)"/><path class="cls-5" d="M318.322,389.9l16.436-8.193a42.242,42.242,0,0,0-7.681-10.2l-12.4,13.538a23.832,23.832,0,0,1,3.647,4.852" transform="translate(-217.217 -340.171)"/><path class="cls-6" d="M273.952,401.584c0-.369.011-.739.028-1.107l-18.289-1.636c-.058.906-.093,1.821-.093,2.743a42.211,42.211,0,0,0,1.245,10.174l17.665-5.068a23.733,23.733,0,0,1-.556-5.106" transform="translate(-217.217 -340.171)"/><path class="cls-7" d="M316.021,416.617a24.014,24.014,0,0,1-4.461,4.2l9.656,15.636a42.424,42.424,0,0,0,9.457-8.783Z" transform="translate(-217.217 -340.171)"/><path class="cls-8" d="M321.4,401.584a23.522,23.522,0,0,1-.544,5.047l17.662,5.074a41.909,41.909,0,0,0,1.236-10.121q0-1.3-.084-2.583l-18.287,1.728c.01.286.017.57.017.855" transform="translate(-217.217 -340.171)"/><path class="cls-9" d="M279.63,416.968l-14.617,11.11a42.432,42.432,0,0,0,9.545,8.647l9.656-15.619a24.015,24.015,0,0,1-4.584-4.138" transform="translate(-217.217 -340.171)"/><path class="cls-10" d="M274.249,397.839A23.348,23.348,0,0,1,276,391.947l-16.432-8.186a41.726,41.726,0,0,0-3.626,12.437Z" transform="translate(-217.217 -340.171)"/><path class="cls-11" d="M318.97,437.863l-9.642-15.615a23.62,23.62,0,0,1-5.628,2.287l3.4,18.062a41.757,41.757,0,0,0,11.868-4.734" transform="translate(-217.217 -340.171)"/><path class="cls-12" d="M320.156,409.189a23.724,23.724,0,0,1-2.568,5.286l14.665,11.061A41.915,41.915,0,0,0,337.8,414.26Z" transform="translate(-217.217 -340.171)"/><path class="cls-13" d="M301.1,425.062a23.446,23.446,0,0,1-6.183.086l-3.4,18.062a42.262,42.262,0,0,0,12.985-.1Z" transform="translate(-217.217 -340.171)"/><path class="cls-14" d="M299.2,377.906a23.545,23.545,0,0,1,5.87,1.134l6.6-17.145a41.815,41.815,0,0,0-12.467-2.359Z" transform="translate(-217.217 -340.171)"/><path class="cls-15" d="M292.3,424.7a23.58,23.58,0,0,1-5.824-2.2l-9.661,15.626A41.87,41.87,0,0,0,288.9,442.74Z" transform="translate(-217.217 -340.171)"/><path class="cls-16" d="M290.546,378.955a23.535,23.535,0,0,1,6-1.067V359.521a41.9,41.9,0,0,0-12.637,2.3Z" transform="translate(-217.217 -340.171)"/><path class="cls-17" d="M278.022,414.856a23.588,23.588,0,0,1-2.8-5.611l-17.651,5.067a41.9,41.9,0,0,0,5.83,11.654Z" transform="translate(-217.217 -340.171)"/><path class="cls-18" d="M282.977,382.975a23.8,23.8,0,0,1,5.088-3.079l-6.638-17.123A42.064,42.064,0,0,0,270.6,369.4Z" transform="translate(-217.217 -340.171)"/><path class="cls-19" d="M232.78,456.282h7.606v2.334h-2.359V473.3h-2.886V458.616H232.78Z" transform="translate(-217.217 -340.171)"/><path class="cls-19" d="M247.088,465.794h-2.761v7.5h-2.861V456.282h2.861v7.2h2.761v-7.2h2.887V473.3h-2.887Z" transform="translate(-217.217 -340.171)"/><path class="cls-19" d="M251.43,456.282h6.827v2.334h-3.966v4.869h2.836v2.309h-2.836v5.171h3.966V473.3H251.43Z" transform="translate(-217.217 -340.171)"/><path class="cls-19" d="M266.264,464.213h4.065V473.3h-2.057v-1.857a2.579,2.579,0,0,1-2.737,2.058c-2.46,0-3.589-1.958-3.589-4.593v-8.233c0-2.66,1.28-4.594,4.292-4.594,3.163,0,4.091,1.758,4.091,4.268v1.506h-2.61v-1.732c0-1.054-.4-1.657-1.431-1.657s-1.48.728-1.48,1.757v9.137c0,1.029.427,1.757,1.405,1.757.929,0,1.4-.528,1.4-1.632v-3.012h-1.354Z" transform="translate(-217.217 -340.171)"/><path class="cls-19" d="M271.836,456.282H274.7v14.683h3.414V473.3h-6.275Z" transform="translate(-217.217 -340.171)"/><path class="cls-19" d="M278.713,468.907v-8.233c0-2.66,1.3-4.594,4.317-4.594,3.038,0,4.342,1.934,4.342,4.594v8.233c0,2.635-1.3,4.593-4.342,4.593C280.018,473.5,278.713,471.542,278.713,468.907Zm5.8.452v-9.137c0-1.029-.452-1.757-1.481-1.757-1,0-1.456.728-1.456,1.757v9.137c0,1.029.452,1.757,1.456,1.757C284.059,471.116,284.511,470.388,284.511,469.359Z" transform="translate(-217.217 -340.171)"/><path class="cls-19" d="M288.753,456.282H292.9c2.861,0,3.814,1.33,3.814,3.739v1.732A2.478,2.478,0,0,1,295,464.464a2.582,2.582,0,0,1,2.133,2.836v2.259c0,2.41-1.079,3.74-3.941,3.74h-4.442Zm2.861,7.178h1a1.206,1.206,0,0,0,1.356-1.38V460a1.2,1.2,0,0,0-1.381-1.381h-.979Zm0,2.184v5.321h1.255a1.232,1.232,0,0,0,1.406-1.381v-2.56c0-.9-.427-1.38-1.431-1.38Z" transform="translate(-217.217 -340.171)"/><path class="cls-19" d="M297.638,473.3l3.213-17.017h3.262l3.239,17.017h-2.937l-.527-3.112h-3.037l-.5,3.112Zm3.589-5.4h2.284l-1.129-6.827h-.025Z" transform="translate(-217.217 -340.171)"/><path class="cls-19" d="M308.33,456.282h2.862v14.683h3.413V473.3H308.33Z" transform="translate(-217.217 -340.171)"/><path class="cls-19" d="M322.386,464.213h4.065V473.3h-2.057v-1.857a2.579,2.579,0,0,1-2.737,2.058c-2.46,0-3.588-1.958-3.588-4.593v-8.233c0-2.66,1.279-4.594,4.292-4.594,3.162,0,4.09,1.758,4.09,4.268v1.506h-2.61v-1.732c0-1.054-.4-1.657-1.431-1.657s-1.48.728-1.48,1.757v9.137c0,1.029.427,1.757,1.4,1.757.929,0,1.405-.528,1.405-1.632v-3.012h-1.354Z" transform="translate(-217.217 -340.171)"/><path class="cls-19" d="M327.907,468.907v-8.233c0-2.66,1.305-4.594,4.318-4.594,3.037,0,4.342,1.934,4.342,4.594v8.233c0,2.635-1.305,4.593-4.342,4.593C329.212,473.5,327.907,471.542,327.907,468.907Zm5.8.452v-9.137c0-1.029-.452-1.757-1.48-1.757-1,0-1.456.728-1.456,1.757v9.137c0,1.029.451,1.757,1.456,1.757C333.253,471.116,333.705,470.388,333.705,469.359Z" transform="translate(-217.217 -340.171)"/><path class="cls-19" d="M337.093,473.3l3.213-17.017h3.263l3.238,17.017H343.87l-.527-3.112h-3.037l-.5,3.112Zm3.589-5.4h2.284l-1.129-6.827h-.025Z" transform="translate(-217.217 -340.171)"/><path class="cls-19" d="M347.736,456.282H350.6v14.683h3.413V473.3h-6.274Z" transform="translate(-217.217 -340.171)"/><path class="cls-19" d="M354.637,469.635v-2.284H357.3v2.334c0,.954.427,1.506,1.4,1.506.905,0,1.306-.6,1.306-1.506v-.652a3.075,3.075,0,0,0-1.28-2.411l-1.682-1.681c-1.632-1.607-2.385-2.585-2.385-4.543v-.577c0-2.109,1.231-3.741,4.017-3.741,2.861,0,3.99,1.406,3.99,3.866v1.381h-2.61v-1.481c0-.979-.451-1.456-1.356-1.456a1.256,1.256,0,0,0-1.355,1.405v.352c0,.954.527,1.506,1.355,2.308l1.833,1.808c1.556,1.581,2.309,2.535,2.309,4.418v.828c0,2.334-1.255,3.991-4.166,3.991S354.637,471.869,354.637,469.635Z" transform="translate(-217.217 -340.171)"/><path class="cls-19" d="M238.746,481.242h-3.4v3.785h-.717V477.12h4.48v.664h-3.763v2.794h3.4Z" transform="translate(-217.217 -340.171)"/><path class="cls-19" d="M241.733,485.132c-1.8,0-2.214-1.128-2.214-2.741s.411-2.741,2.214-2.741,2.214,1.128,2.214,2.741S243.546,485.132,241.733,485.132Zm0-4.829c-1.392,0-1.476.9-1.476,2.088s.084,2.088,1.476,2.088c1.371,0,1.476-.9,1.476-2.088S243.1,480.3,241.733,480.3Z" transform="translate(-217.217 -340.171)"/><path class="cls-19" d="M248.105,480.388a2.031,2.031,0,0,0-.633-.085,2.846,2.846,0,0,0-1.528.338v4.386h-.739v-5.272h.411l.159.443a2.858,2.858,0,0,1,1.7-.548,3.7,3.7,0,0,1,.633.053Z" transform="translate(-217.217 -340.171)"/><path class="cls-19" d="M251.429,479.228c0,1.128.653,1.233,1.9,1.392,1.551.2,2.51.58,2.51,2.129,0,1.076-.569,2.383-2.921,2.383a6.5,6.5,0,0,1-2.214-.422v-.684a5.983,5.983,0,0,0,2.225.442c1.644,0,2.141-.769,2.141-1.719,0-1.127-.464-1.349-1.783-1.518-1.866-.232-2.583-.664-2.583-2.014,0-.917.443-2.2,2.658-2.2a4.863,4.863,0,0,1,2.055.369v.706a4.808,4.808,0,0,0-2.066-.411C251.787,477.678,251.429,478.4,251.429,479.228Z" transform="translate(-217.217 -340.171)"/><path class="cls-19" d="M257.611,483.582c0,.686.4.9,1.054.9a2.531,2.531,0,0,0,1.424-.338v-4.386h.738v5.272h-.411l-.158-.443a2.62,2.62,0,0,1-1.593.548c-1.255,0-1.792-.569-1.792-1.581v-3.8h.738Z" transform="translate(-217.217 -340.171)"/><path class="cls-19" d="M263.941,482c1.5.137,1.855.643,1.855,1.507,0,.813-.517,1.624-2.119,1.624a5.2,5.2,0,0,1-1.571-.263v-.633a4.646,4.646,0,0,0,1.582.243c1.1,0,1.391-.464,1.391-.96s-.147-.822-1.191-.906c-1.529-.138-1.846-.675-1.846-1.4,0-.749.486-1.56,1.972-1.56a3.923,3.923,0,0,1,1.518.264v.632A4.353,4.353,0,0,0,264,480.3c-1.044,0-1.266.391-1.266.907C262.738,481.674,262.928,481.916,263.941,482Z" transform="translate(-217.217 -340.171)"/><path class="cls-19" d="M269.774,485.09a2.32,2.32,0,0,1-.475.042c-.875,0-1.687-.4-1.687-1.433v-3.364h-1.054v-.327l1.054-.305v-1.424l.738-.211v1.687h1.635v.58H268.35v3.279c0,.643.348.907,1.012.907.137,0,.275-.011.412-.022Z" transform="translate(-217.217 -340.171)"/><path class="cls-19" d="M272.834,480.3a4.624,4.624,0,0,0-1.581.264v-.633a4.249,4.249,0,0,1,1.581-.284c1.582,0,1.993.717,1.993,1.771v3.606h-.411l-.158-.422a2.76,2.76,0,0,1-1.593.527,1.6,1.6,0,0,1-1.845-1.7c0-.9.5-1.561,1.877-1.645l1.392-.085v-.294C274.089,480.641,273.815,480.3,272.834,480.3Zm-.189,2.057c-.749.073-1.076.464-1.076,1.075,0,.475.116,1.044,1.118,1.044a2.549,2.549,0,0,0,1.4-.422v-1.835Z" transform="translate(-217.217 -340.171)"/><path class="cls-19" d="M276.717,477.646a.528.528,0,1,1-.527.527A.521.521,0,0,1,276.717,477.646Zm-.358,6.327v-4.218h.716v4.3c0,.369.116.475.443.475v.6C276.759,485.132,276.359,484.816,276.359,483.973Z" transform="translate(-217.217 -340.171)"/><path class="cls-19" d="M281.938,481.2c0-.686-.4-.9-1.055-.9a2.525,2.525,0,0,0-1.423.338v4.386h-.738v-5.272h.411l.158.443a2.623,2.623,0,0,1,1.592-.548c1.255,0,1.793.569,1.793,1.581v3.8h-.738Z" transform="translate(-217.217 -340.171)"/><path class="cls-19" d="M285.853,480.3a4.624,4.624,0,0,0-1.581.264v-.633a4.249,4.249,0,0,1,1.581-.284c1.582,0,1.993.717,1.993,1.771v3.606h-.411l-.158-.422a2.763,2.763,0,0,1-1.593.527,1.6,1.6,0,0,1-1.845-1.7c0-.9.5-1.561,1.877-1.645l1.392-.085v-.294C287.108,480.641,286.833,480.3,285.853,480.3Zm-.19,2.057c-.749.073-1.076.464-1.076,1.075,0,.475.116,1.044,1.118,1.044a2.553,2.553,0,0,0,1.4-.422v-1.835Z" transform="translate(-217.217 -340.171)"/><path class="cls-19" d="M293.583,482.391c0,1.519-.464,2.741-2.161,2.741a3.012,3.012,0,0,1-1.644-.537l-.159.432h-.411V477.12h.738v2.962a2.755,2.755,0,0,1,1.476-.432C293.119,479.65,293.583,480.872,293.583,482.391Zm-3.637-1.75v3.5a2.775,2.775,0,0,0,1.476.338c1.266,0,1.424-1.044,1.424-2.088s-.158-2.088-1.424-2.088A2.775,2.775,0,0,0,289.946,480.641Z" transform="translate(-217.217 -340.171)"/><path class="cls-19" d="M295.011,483.973V477.12h.717v6.937c0,.369.115.475.442.475v.6C295.411,485.132,295.011,484.816,295.011,483.973Z" transform="translate(-217.217 -340.171)"/><path class="cls-19" d="M299.472,479.65c1.793,0,2,1.222,2,2.741v.338H298c.042.917.284,1.75,1.476,1.75a4.02,4.02,0,0,0,1.74-.3v.633a4.267,4.267,0,0,1-1.74.316c-1.781,0-2.214-1.222-2.214-2.741S297.691,479.65,299.472,479.65ZM298,482.127h2.741c0-.938-.052-1.824-1.265-1.824S298.028,481.178,298,482.127Z" transform="translate(-217.217 -340.171)"/><path class="cls-19" d="M304.959,485.027V477.12h2.151c2.584,0,3.332,1.708,3.332,3.953s-.748,3.954-3.332,3.954Zm.717-.664h1.477c1.9,0,2.53-1.392,2.53-3.29s-.633-3.289-2.53-3.289h-1.477Z" transform="translate(-217.217 -340.171)"/><path class="cls-19" d="M313.534,479.65c1.793,0,2,1.222,2,2.741v.338h-3.479c.042.917.284,1.75,1.475,1.75a4.024,4.024,0,0,0,1.741-.3v.633a4.269,4.269,0,0,1-1.741.316c-1.781,0-2.214-1.222-2.214-2.741S311.753,479.65,313.534,479.65Zm-1.475,2.477H314.8c0-.938-.053-1.824-1.266-1.824S312.09,481.178,312.059,482.127Z" transform="translate(-217.217 -340.171)"/><path class="cls-19" d="M317.028,479.755l1.507,4.324,1.508-4.324h.813l-2.057,5.377h-.527l-2.056-5.377Z" transform="translate(-217.217 -340.171)"/><path class="cls-19" d="M323.642,479.65c1.793,0,2,1.222,2,2.741v.338h-3.48c.042.917.284,1.75,1.476,1.75a4.02,4.02,0,0,0,1.74-.3v.633a4.267,4.267,0,0,1-1.74.316c-1.781,0-2.214-1.222-2.214-2.741S321.861,479.65,323.642,479.65Zm-1.476,2.477h2.741c0-.938-.052-1.824-1.265-1.824S322.2,481.178,322.166,482.127Z" transform="translate(-217.217 -340.171)"/><path class="cls-19" d="M327.062,483.973V477.12h.716v6.937c0,.369.116.475.443.475v.6C327.462,485.132,327.062,484.816,327.062,483.973Z" transform="translate(-217.217 -340.171)"/><path class="cls-19" d="M331.543,485.132c-1.8,0-2.214-1.128-2.214-2.741s.411-2.741,2.214-2.741,2.215,1.128,2.215,2.741S333.357,485.132,331.543,485.132Zm0-4.829c-1.391,0-1.475.9-1.475,2.088s.084,2.088,1.475,2.088c1.371,0,1.477-.9,1.477-2.088S332.914,480.3,331.543,480.3Z" transform="translate(-217.217 -340.171)"/><path class="cls-19" d="M335.754,484.7v2.962h-.738v-7.908h.411l.158.432a3.015,3.015,0,0,1,1.645-.537c1.7,0,2.162,1.222,2.162,2.741s-.465,2.741-2.162,2.741A2.748,2.748,0,0,1,335.754,484.7Zm2.9-2.31c0-1.044-.158-2.088-1.423-2.088a2.772,2.772,0,0,0-1.476.338v3.5a2.772,2.772,0,0,0,1.476.338C338.5,484.479,338.653,483.435,338.653,482.391Z" transform="translate(-217.217 -340.171)"/><path class="cls-19" d="M346.87,481.2c0-.686-.4-.9-1-.9a2.713,2.713,0,0,0-1.433.349,2.235,2.235,0,0,1,.063.548v3.827h-.738V481.2c0-.686-.4-.9-1-.9a2.661,2.661,0,0,0-1.37.317v4.407h-.738v-5.272h.411l.158.432a2.656,2.656,0,0,1,1.539-.537,1.67,1.67,0,0,1,1.477.6,2.954,2.954,0,0,1,1.633-.6c1.129,0,1.741.527,1.741,1.581v3.8h-.739Z" transform="translate(-217.217 -340.171)"/><path class="cls-19" d="M351.039,479.65c1.793,0,2,1.222,2,2.741v.338h-3.479c.042.917.284,1.75,1.475,1.75a4.017,4.017,0,0,0,1.74-.3v.633a4.261,4.261,0,0,1-1.74.316c-1.782,0-2.214-1.222-2.214-2.741S349.257,479.65,351.039,479.65Zm-1.475,2.477h2.741c0-.938-.053-1.824-1.266-1.824S349.6,481.178,349.564,482.127Z" transform="translate(-217.217 -340.171)"/><path class="cls-19" d="M357.506,481.2c0-.686-.4-.9-1.055-.9a2.527,2.527,0,0,0-1.423.338v4.386h-.738v-5.272h.411l.159.443a2.623,2.623,0,0,1,1.591-.548c1.255,0,1.793.569,1.793,1.581v3.8h-.738Z" transform="translate(-217.217 -340.171)"/><path class="cls-19" d="M362.3,485.09a2.32,2.32,0,0,1-.475.042c-.875,0-1.686-.4-1.686-1.433v-3.364H359.08v-.327l1.055-.305v-1.424l.737-.211v1.687h1.635v.58h-1.635v3.279c0,.643.349.907,1.013.907.137,0,.274-.011.411-.022Z" transform="translate(-217.217 -340.171)"/></svg>